<svg xmlns="http://www.w3.org/2000/svg" version="1.1" style="font-family:Lato,'Helvetica Neue',Helvetica,Arial,sans-serif;font-size:18px;background-color:#fff;text-rendering:geometricPrecision;-webkit-font-smoothing:antialiased" width="850" height="600" viewBox="0 0 850 600"><g class="HeaderView"><g transform="matrix(.29 0 0 .29 774 15)"><svg className="owidLog" width="210" height="120" viewBox="0 0 210 120" fill="none" xmlns="http://www.w3.org/2000/svg"><g clip-path="url(#a)"><path d="M0 0h210v107.89H0V0z" fill="#002147"/><path d="M40.98 32.25c0 2.36-.38 4.53-1.12 6.51a14.26 14.26 0 0 1-8.1 8.4c-1.9.78-4.02 1.17-6.34 1.17a16.6 16.6 0 0 1-6.33-1.17 14.31 14.31 0 0 1-8.08-8.4 18.29 18.29 0 0 1-1.12-6.51c0-2.36.38-4.53 1.12-6.5.75-1.97 1.8-3.67 3.17-5.1a14.32 14.32 0 0 1 4.9-3.34c1.92-.8 4.03-1.19 6.34-1.19 2.32 0 4.43.4 6.34 1.19 1.92.8 3.56 1.9 4.93 3.34a14.87 14.87 0 0 1 3.17 5.1 18.1 18.1 0 0 1 1.12 6.5zm-4.38 0c0-1.94-.26-3.68-.8-5.22a10.91 10.91 0 0 0-2.24-3.89 9.68 9.68 0 0 0-3.52-2.46 11.95 11.95 0 0 0-4.62-.86c-1.68 0-3.21.28-4.6.86a9.88 9.88 0 0 0-3.54 2.46 10.91 10.91 0 0 0-2.24 3.9c-.53 1.53-.8 3.27-.8 5.2 0 1.94.27 3.68.8 5.22a11.17 11.17 0 0 0 2.24 3.9 10.01 10.01 0 0 0 3.55 2.44c1.38.56 2.9.83 4.6.83s3.24-.27 4.61-.83a9.8 9.8 0 0 0 3.52-2.44 11.17 11.17 0 0 0 2.25-3.9c.53-1.54.8-3.28.8-5.21zm26.22-6.54V48H60.5c-.56 0-.9-.27-1.05-.81l-.31-2.4a12.45 12.45 0 0 1-3.26 2.6c-1.2.64-2.58.96-4.13.96-1.22 0-2.3-.2-3.24-.6a6.52 6.52 0 0 1-2.33-1.7 7.37 7.37 0 0 1-1.43-2.67c-.3-1.04-.46-2.2-.46-3.45V25.7h3.91v14.22c0 1.68.38 2.99 1.15 3.91.77.93 1.96 1.39 3.54 1.39 1.16 0 2.24-.27 3.23-.82a10.42 10.42 0 0 0 2.8-2.28V25.7h3.91zm8.61 4.47a9.94 9.94 0 0 1 2.6-3.56 5.64 5.64 0 0 1 3.76-1.3c.47 0 .92.05 1.34.15.44.1.83.27 1.17.49l-.3 2.92c-.09.37-.3.55-.66.55-.2 0-.5-.04-.9-.13a6.21 6.21 0 0 0-3.24.18 4.23 4.23 0 0 0-1.47.92c-.42.4-.81.9-1.17 1.5-.33.58-.64 1.26-.92 2.02V48H67.7V25.71h2.25c.42 0 .72.08.88.25.16.16.27.44.33.83l.26 3.39zm61.16-13.7L122.75 48h-3.82l-7.99-24.05a21.95 21.95 0 0 1-.42-1.58 38.36 38.36 0 0 1-.44 1.58L102.05 48h-3.83L88.4 16.47h3.54c.38 0 .7.1.95.29.26.2.43.43.5.73l6.52 21.9.28 1.28.29 1.46.3-1.46.38-1.27 7.41-21.91c.1-.25.26-.48.51-.69.27-.22.58-.33.95-.33h1.23c.38 0 .69.1.92.29a1.77 1.77 0 0 1 .53.73l7.4 21.9a28.4 28.4 0 0 1 .68 2.62 29.52 29.52 0 0 1 .52-2.61l6.54-21.91a1.31 1.31 0 0 1 .48-.7c.27-.21.58-.32.95-.32h3.32zm9.35 8.88c1.63 0 3.1.27 4.4.82a9.43 9.43 0 0 1 5.46 5.94c.5 1.4.74 2.98.74 4.73 0 1.76-.25 3.34-.74 4.75a9.43 9.43 0 0 1-5.46 5.92c-1.3.52-2.77.79-4.4.79-1.64 0-3.12-.27-4.44-.8a9.42 9.42 0 0 1-3.35-2.3c-.92-1-1.63-2.2-2.13-3.61-.49-1.41-.73-3-.73-4.75s.24-3.33.73-4.73c.5-1.43 1.2-2.64 2.13-3.63a9.4 9.4 0 0 1 3.35-2.31c1.32-.55 2.8-.82 4.44-.82zm0 19.89c2.2 0 3.84-.73 4.93-2.2 1.08-1.48 1.63-3.54 1.63-6.18 0-2.66-.55-4.72-1.63-6.2-1.09-1.49-2.73-2.23-4.93-2.23-1.12 0-2.09.2-2.93.57a5.71 5.71 0 0 0-2.06 1.65 7.5 7.5 0 0 0-1.24 2.67c-.26 1.04-.4 2.22-.4 3.54 0 2.64.55 4.7 1.64 6.18 1.1 1.47 2.76 2.2 4.99 2.2zm17.97-15.07a9.94 9.94 0 0 1 2.6-3.56 5.64 5.64 0 0 1 3.76-1.3c.47 0 .91.05 1.34.15.44.1.83.27 1.16.49l-.28 2.92c-.09.37-.31.55-.66.55-.2 0-.5-.04-.9-.13a6.2 6.2 0 0 0-3.24.18 4.23 4.23 0 0 0-1.47.92c-.43.4-.82.9-1.17 1.5a13.1 13.1 0 0 0-.92 2.02V48h-3.94V25.71h2.24c.43 0 .72.08.88.25.17.16.28.44.33.83l.27 3.39zm15.04-14.59V48h-3.92V15.6h3.92zm19.55 15.43a6.22 6.22 0 0 0-2.38-2.05 6.7 6.7 0 0 0-2.86-.6c-2.07 0-3.66.75-4.77 2.23-1.12 1.48-1.68 3.6-1.68 6.33 0 1.46.13 2.7.38 3.74a7.29 7.29 0 0 0 1.1 2.56 4.35 4.35 0 0 0 1.78 1.45c.7.3 1.5.46 2.4.46 1.29 0 2.41-.3 3.36-.88a9.6 9.6 0 0 0 2.67-2.49V31.02zm3.91-15.43V48h-2.33c-.56 0-.9-.27-1.06-.81l-.35-2.71a12.13 12.13 0 0 1-3.25 2.77 8.28 8.28 0 0 1-4.23 1.06 7.31 7.31 0 0 1-6.14-2.9c-.73-.96-1.3-2.15-1.69-3.57a18.35 18.35 0 0 1 .07-9.48 11.29 11.29 0 0 1 1.89-3.7 8.7 8.7 0 0 1 7.06-3.34 7.96 7.96 0 0 1 6.12 2.62V15.59h3.91zM46.61 70.71V93H42.7V70.71h3.91zm.84-7c0 .39-.08.75-.24 1.09a2.81 2.81 0 0 1-1.52 1.47 2.67 2.67 0 0 1-2.16 0 2.9 2.9 0 0 1-1.45-1.47 2.67 2.67 0 0 1 0-2.16c.15-.35.35-.65.6-.9.25-.27.53-.47.85-.62a2.67 2.67 0 0 1 2.16 0c.35.15.65.35.9.62.27.25.47.55.62.9.16.34.24.7.24 1.08zm7.97 10.24c.49-.54 1-1.04 1.54-1.48a9.85 9.85 0 0 1 3.66-1.84 8.96 8.96 0 0 1 5.43.35c.94.4 1.72.97 2.33 1.71a7.36 7.36 0 0 1 1.43 2.67c.32 1.04.49 2.19.49 3.45V93h-3.94V78.81c0-1.69-.4-3-1.17-3.92-.76-.93-1.93-1.4-3.5-1.4a6.6 6.6 0 0 0-3.25.83c-1 .56-1.92 1.31-2.77 2.27V93h-3.94V70.71h2.35c.56 0 .9.28 1.04.82l.3 2.42zm57.7 3.3c0 2.36-.37 4.5-1.11 6.44a14.3 14.3 0 0 1-3.17 4.98 14.1 14.1 0 0 1-4.93 3.2c-1.9.76-4.02 1.13-6.33 1.13H85.8V61.47h11.77c2.31 0 4.42.39 6.33 1.15a13.8 13.8 0 0 1 8.1 8.18 17.75 17.75 0 0 1 1.12 6.45zm-4.37 0c0-1.94-.26-3.67-.8-5.2a10.94 10.94 0 0 0-2.23-3.87 9.57 9.57 0 0 0-3.53-2.42 12.23 12.23 0 0 0-4.61-.83h-7.5v24.62h7.5c1.7 0 3.24-.28 4.61-.84a9.7 9.7 0 0 0 3.53-2.4 10.94 10.94 0 0 0 2.24-3.87c.53-1.53.8-3.26.8-5.2zm19.8 5.72c-1.8.06-3.34.2-4.62.44-1.26.22-2.3.51-3.1.88-.8.36-1.37.8-1.74 1.3-.35.5-.53 1.05-.53 1.67 0 .58.1 1.1.3 1.52a3 3 0 0 0 .76 1.05c.34.27.73.46 1.17.6a6.13 6.13 0 0 0 1.45.17 7.28 7.28 0 0 0 3.5-.81 11.95 11.95 0 0 0 2.82-2.2v-4.62zm-12.65-9.11a12.73 12.73 0 0 1 3.98-2.66c1.43-.59 3-.88 4.73-.88 1.25 0 2.36.2 3.33.61a6.81 6.81 0 0 1 3.94 4.38c.33 1.04.5 2.19.5 3.43V93h-1.74a1.8 1.8 0 0 1-.88-.18c-.2-.13-.36-.38-.48-.74l-.44-2.12-1.72 1.46a9.48 9.48 0 0 1-3.74 1.7c-.69.15-1.46.23-2.3.23-.87 0-1.69-.12-2.45-.35a5.34 5.34 0 0 1-3.34-2.93 6.64 6.64 0 0 1-.49-2.64c0-.88.25-1.72.73-2.53a6.33 6.33 0 0 1 2.35-2.17c1.09-.63 2.5-1.15 4.25-1.54 1.75-.41 3.89-.65 6.42-.7v-1.75c0-1.73-.37-3.03-1.12-3.91-.75-.9-1.84-1.34-3.28-1.34-.97 0-1.78.12-2.44.37-.64.23-1.2.5-1.7.81l-1.23.82c-.33.23-.67.35-1 .35-.27 0-.5-.07-.69-.2a2.1 2.1 0 0 1-.48-.53l-.7-1.25zm27.67 19.5c-1.76 0-3.12-.5-4.07-1.48-.94-.98-1.41-2.4-1.41-4.25V74h-2.68a.9.9 0 0 1-.6-.2c-.16-.14-.24-.36-.24-.66v-1.56l3.65-.46.9-6.89a.9.9 0 0 1 .29-.52.88.88 0 0 1 .62-.22H142v7.67h6.44V74H142v13.38c0 .94.22 1.63.68 2.09.45.45 1.04.68 1.76.68a3.21 3.21 0 0 0 1.85-.53l.55-.35c.16-.12.3-.18.41-.18.2 0 .4.13.55.38l1.15 1.87a7.45 7.45 0 0 1-2.44 1.5 8.53 8.53 0 0 1-2.95.52zm19.68-10.4c-1.8.07-3.34.21-4.62.45-1.26.22-2.3.51-3.1.88-.8.36-1.37.8-1.74 1.3-.35.5-.53 1.05-.53 1.67 0 .58.1 1.1.3 1.52a2.9 2.9 0 0 0 .76 1.05c.34.27.73.46 1.17.6a6.13 6.13 0 0 0 1.45.17 7.3 7.3 0 0 0 3.5-.81 12.04 12.04 0 0 0 2.82-2.2v-4.62zm-12.65-9.1a12.72 12.72 0 0 1 3.99-2.66c1.42-.59 3-.88 4.72-.88 1.25 0 2.36.2 3.33.61a6.81 6.81 0 0 1 3.94 4.38c.33 1.04.5 2.19.5 3.43V93h-1.74a1.8 1.8 0 0 1-.88-.18c-.2-.13-.36-.38-.48-.74l-.44-2.12-1.72 1.46a9.48 9.48 0 0 1-3.74 1.7c-.69.15-1.46.23-2.3.23-.87 0-1.69-.12-2.45-.35a5.33 5.33 0 0 1-3.34-2.93 6.62 6.62 0 0 1-.49-2.64c0-.88.25-1.72.73-2.53a6.33 6.33 0 0 1 2.35-2.17c1.09-.63 2.5-1.15 4.25-1.54a31.2 31.2 0 0 1 6.42-.7v-1.75c0-1.73-.37-3.03-1.12-3.91-.75-.9-1.84-1.34-3.28-1.34-.97 0-1.78.12-2.44.37-.64.23-1.2.5-1.7.81l-1.22.82c-.34.23-.68.35-1.02.35-.26 0-.49-.07-.68-.2a1.88 1.88 0 0 1-.48-.53l-.7-1.25zM40.98 32.25c0 2.36-.38 4.53-1.12 6.51a14.26 14.26 0 0 1-8.1 8.4c-1.9.78-4.02 1.17-6.34 1.17a16.6 16.6 0 0 1-6.33-1.17 14.31 14.31 0 0 1-8.08-8.4 18.29 18.29 0 0 1-1.12-6.51c0-2.36.38-4.53 1.12-6.5.75-1.97 1.8-3.67 3.17-5.1a14.32 14.32 0 0 1 4.9-3.34c1.92-.8 4.03-1.19 6.34-1.19 2.32 0 4.43.4 6.34 1.19 1.92.8 3.56 1.9 4.93 3.34a14.87 14.87 0 0 1 3.17 5.1 18.1 18.1 0 0 1 1.12 6.5zm-4.38 0c0-1.94-.26-3.68-.8-5.22a10.91 10.91 0 0 0-2.24-3.89 9.68 9.68 0 0 0-3.52-2.46 11.95 11.95 0 0 0-4.62-.86c-1.68 0-3.21.28-4.6.86a9.88 9.88 0 0 0-3.54 2.46 10.91 10.91 0 0 0-2.24 3.9c-.53 1.53-.8 3.27-.8 5.2 0 1.94.27 3.68.8 5.22a11.17 11.17 0 0 0 2.24 3.9 10.01 10.01 0 0 0 3.55 2.44c1.38.56 2.9.83 4.6.83s3.24-.27 4.61-.83a9.8 9.8 0 0 0 3.52-2.44 11.17 11.17 0 0 0 2.25-3.9c.53-1.54.8-3.28.8-5.21zm26.22-6.54V48H60.5c-.56 0-.9-.27-1.05-.81l-.31-2.4a12.45 12.45 0 0 1-3.26 2.6c-1.2.64-2.58.96-4.13.96-1.22 0-2.3-.2-3.24-.6a6.52 6.52 0 0 1-2.33-1.7 7.37 7.37 0 0 1-1.43-2.67c-.3-1.04-.46-2.2-.46-3.45V25.7h3.91v14.22c0 1.68.38 2.99 1.15 3.91.77.93 1.96 1.39 3.54 1.39 1.16 0 2.24-.27 3.23-.82a10.42 10.42 0 0 0 2.8-2.28V25.7h3.91zm8.61 4.47a9.94 9.94 0 0 1 2.6-3.56 5.64 5.64 0 0 1 3.76-1.3c.47 0 .92.05 1.34.15.44.1.83.27 1.17.49l-.3 2.92c-.09.37-.3.55-.66.55-.2 0-.5-.04-.9-.13a6.21 6.21 0 0 0-3.24.18 4.23 4.23 0 0 0-1.47.92c-.42.4-.81.9-1.17 1.5-.33.58-.64 1.26-.92 2.02V48H67.7V25.71h2.25c.42 0 .72.08.88.25.16.16.27.44.33.83l.26 3.39zm61.16-13.7L122.75 48h-3.82l-7.99-24.05a21.95 21.95 0 0 1-.42-1.58 38.36 38.36 0 0 1-.44 1.58L102.05 48h-3.83L88.4 16.47h3.54c.38 0 .7.1.95.29.26.2.43.43.5.73l6.52 21.9.28 1.28.29 1.46.3-1.46.38-1.27 7.41-21.91c.1-.25.26-.48.51-.69.27-.22.58-.33.95-.33h1.23c.38 0 .69.1.92.29a1.77 1.77 0 0 1 .53.73l7.4 21.9a28.4 28.4 0 0 1 .68 2.62 29.52 29.52 0 0 1 .52-2.61l6.54-21.91a1.31 1.31 0 0 1 .48-.7c.27-.21.58-.32.95-.32h3.32zm9.35 8.88c1.63 0 3.1.27 4.4.82a9.43 9.43 0 0 1 5.46 5.94c.5 1.4.74 2.98.74 4.73 0 1.76-.25 3.34-.74 4.75a9.43 9.43 0 0 1-5.46 5.92c-1.3.52-2.77.79-4.4.79-1.64 0-3.12-.27-4.44-.8a9.42 9.42 0 0 1-3.35-2.3c-.92-1-1.63-2.2-2.13-3.61-.49-1.41-.73-3-.73-4.75s.24-3.33.73-4.73c.5-1.43 1.2-2.64 2.13-3.63a9.4 9.4 0 0 1 3.35-2.31c1.32-.55 2.8-.82 4.44-.82zm0 19.89c2.2 0 3.84-.73 4.93-2.2 1.08-1.48 1.63-3.54 1.63-6.18 0-2.66-.55-4.72-1.63-6.2-1.09-1.49-2.73-2.23-4.93-2.23-1.12 0-2.09.2-2.93.57a5.71 5.71 0 0 0-2.06 1.65 7.5 7.5 0 0 0-1.24 2.67c-.26 1.04-.4 2.22-.4 3.54 0 2.64.55 4.7 1.64 6.18 1.1 1.47 2.76 2.2 4.99 2.2zm17.97-15.07a9.94 9.94 0 0 1 2.6-3.56 5.64 5.64 0 0 1 3.76-1.3c.47 0 .91.05 1.34.15.44.1.83.27 1.16.49l-.28 2.92c-.09.37-.31.55-.66.55-.2 0-.5-.04-.9-.13a6.2 6.2 0 0 0-3.24.18 4.23 4.23 0 0 0-1.47.92c-.43.4-.82.9-1.17 1.5a13.1 13.1 0 0 0-.92 2.02V48h-3.94V25.71h2.24c.43 0 .72.08.88.25.17.16.28.44.33.83l.27 3.39zm15.04-14.59V48h-3.92V15.6h3.92zm19.55 15.43a6.22 6.22 0 0 0-2.38-2.05 6.7 6.7 0 0 0-2.86-.6c-2.07 0-3.66.75-4.77 2.23-1.12 1.48-1.68 3.6-1.68 6.33 0 1.46.13 2.7.38 3.74a7.29 7.29 0 0 0 1.1 2.56 4.35 4.35 0 0 0 1.78 1.45c.7.3 1.5.46 2.4.46 1.29 0 2.41-.3 3.36-.88a9.6 9.6 0 0 0 2.67-2.49V31.02zm3.91-15.43V48h-2.33c-.56 0-.9-.27-1.06-.81l-.35-2.71a12.13 12.13 0 0 1-3.25 2.77 8.28 8.28 0 0 1-4.23 1.06 7.31 7.31 0 0 1-6.14-2.9c-.73-.96-1.3-2.15-1.69-3.57a18.35 18.35 0 0 1 .07-9.48 11.29 11.29 0 0 1 1.89-3.7 8.7 8.7 0 0 1 7.06-3.34 7.96 7.96 0 0 1 6.12 2.62V15.59h3.91zM46.61 70.71V93H42.7V70.71h3.91zm.84-7c0 .39-.08.75-.24 1.09a2.81 2.81 0 0 1-1.52 1.47 2.67 2.67 0 0 1-2.16 0 2.9 2.9 0 0 1-1.45-1.47 2.67 2.67 0 0 1 0-2.16c.15-.35.35-.65.6-.9.25-.27.53-.47.85-.62a2.67 2.67 0 0 1 2.16 0c.35.15.65.35.9.62.27.25.47.55.62.9.16.34.24.7.24 1.08zm7.97 10.24c.49-.54 1-1.04 1.54-1.48a9.85 9.85 0 0 1 3.66-1.84 8.96 8.96 0 0 1 5.43.35c.94.4 1.72.97 2.33 1.71a7.36 7.36 0 0 1 1.43 2.67c.32 1.04.49 2.19.49 3.45V93h-3.94V78.81c0-1.69-.4-3-1.17-3.92-.76-.93-1.93-1.4-3.5-1.4a6.6 6.6 0 0 0-3.25.83c-1 .56-1.92 1.31-2.77 2.27V93h-3.94V70.71h2.35c.56 0 .9.28 1.04.82l.3 2.42zm57.7 3.3c0 2.36-.37 4.5-1.11 6.44a14.3 14.3 0 0 1-3.17 4.98 14.1 14.1 0 0 1-4.93 3.2c-1.9.76-4.02 1.13-6.33 1.13H85.8V61.47h11.77c2.31 0 4.42.39 6.33 1.15a13.8 13.8 0 0 1 8.1 8.18 17.75 17.75 0 0 1 1.12 6.45zm-4.37 0c0-1.94-.26-3.67-.8-5.2a10.94 10.94 0 0 0-2.23-3.87 9.57 9.57 0 0 0-3.53-2.42 12.23 12.23 0 0 0-4.61-.83h-7.5v24.62h7.5c1.7 0 3.24-.28 4.61-.84a9.7 9.7 0 0 0 3.53-2.4 10.94 10.94 0 0 0 2.24-3.87c.53-1.53.8-3.26.8-5.2zm19.8 5.72c-1.8.06-3.34.2-4.62.44-1.26.22-2.3.51-3.1.88-.8.36-1.37.8-1.74 1.3-.35.5-.53 1.05-.53 1.67 0 .58.1 1.1.3 1.52a3 3 0 0 0 .76 1.05c.34.27.73.46 1.17.6a6.13 6.13 0 0 0 1.45.17 7.28 7.28 0 0 0 3.5-.81 11.95 11.95 0 0 0 2.82-2.2v-4.62zm-12.65-9.11a12.73 12.73 0 0 1 3.98-2.66c1.43-.59 3-.88 4.73-.88 1.25 0 2.36.2 3.33.61a6.81 6.81 0 0 1 3.94 4.38c.33 1.04.5 2.19.5 3.43V93h-1.74a1.8 1.8 0 0 1-.88-.18c-.2-.13-.36-.38-.48-.74l-.44-2.12-1.72 1.46a9.48 9.48 0 0 1-3.74 1.7c-.69.15-1.46.23-2.3.23-.87 0-1.69-.12-2.45-.35a5.34 5.34 0 0 1-3.34-2.93 6.64 6.64 0 0 1-.49-2.64c0-.88.25-1.72.73-2.53a6.33 6.33 0 0 1 2.35-2.17c1.09-.63 2.5-1.15 4.25-1.54 1.75-.41 3.89-.65 6.42-.7v-1.75c0-1.73-.37-3.03-1.12-3.91-.75-.9-1.84-1.34-3.28-1.34-.97 0-1.78.12-2.44.37-.64.23-1.2.5-1.7.81l-1.23.82c-.33.23-.67.35-1 .35-.27 0-.5-.07-.69-.2a2.1 2.1 0 0 1-.48-.53l-.7-1.25zm27.67 19.5c-1.76 0-3.12-.5-4.07-1.48-.94-.98-1.41-2.4-1.41-4.25V74h-2.68a.9.9 0 0 1-.6-.2c-.16-.14-.24-.36-.24-.66v-1.56l3.65-.46.9-6.89a.9.9 0 0 1 .29-.52.88.88 0 0 1 .62-.22H142v7.67h6.44V74H142v13.38c0 .94.22 1.63.68 2.09.45.45 1.04.68 1.76.68a3.21 3.21 0 0 0 1.85-.53l.55-.35c.16-.12.3-.18.41-.18.2 0 .4.13.55.38l1.15 1.87a7.45 7.45 0 0 1-2.44 1.5 8.53 8.53 0 0 1-2.95.52zm19.68-10.4c-1.8.07-3.34.21-4.62.45-1.26.22-2.3.51-3.1.88-.8.36-1.37.8-1.74 1.3-.35.5-.53 1.05-.53 1.67 0 .58.1 1.1.3 1.52a2.9 2.9 0 0 0 .76 1.05c.34.27.73.46 1.17.6a6.13 6.13 0 0 0 1.45.17 7.3 7.3 0 0 0 3.5-.81 12.04 12.04 0 0 0 2.82-2.2v-4.62zm-12.65-9.1a12.72 12.72 0 0 1 3.99-2.66c1.42-.59 3-.88 4.72-.88 1.25 0 2.36.2 3.33.61a6.81 6.81 0 0 1 3.94 4.38c.33 1.04.5 2.19.5 3.43V93h-1.74a1.8 1.8 0 0 1-.88-.18c-.2-.13-.36-.38-.48-.74l-.44-2.12-1.72 1.46a9.48 9.48 0 0 1-3.74 1.7c-.69.15-1.46.23-2.3.23-.87 0-1.69-.12-2.45-.35a5.33 5.33 0 0 1-3.34-2.93 6.62 6.62 0 0 1-.49-2.64c0-.88.25-1.72.73-2.53a6.33 6.33 0 0 1 2.35-2.17c1.09-.63 2.5-1.15 4.25-1.54a31.2 31.2 0 0 1 6.42-.7v-1.75c0-1.73-.37-3.03-1.12-3.91-.75-.9-1.84-1.34-3.28-1.34-.97 0-1.78.12-2.44.37-.64.23-1.2.5-1.7.81l-1.22.82c-.34.23-.68.35-1.02.35-.26 0-.49-.07-.68-.2a1.88 1.88 0 0 1-.48-.53l-.7-1.25zM40.98 32.25c0 2.36-.38 4.53-1.12 6.51a14.26 14.26 0 0 1-8.1 8.4c-1.9.78-4.02 1.17-6.34 1.17a16.6 16.6 0 0 1-6.33-1.17 14.31 14.31 0 0 1-8.08-8.4 18.29 18.29 0 0 1-1.12-6.51c0-2.36.38-4.53 1.12-6.5.75-1.97 1.8-3.67 3.17-5.1a14.32 14.32 0 0 1 4.9-3.34c1.92-.8 4.03-1.19 6.34-1.19 2.32 0 4.43.4 6.34 1.19 1.92.8 3.56 1.9 4.93 3.34a14.87 14.87 0 0 1 3.17 5.1 18.1 18.1 0 0 1 1.12 6.5zm-4.38 0c0-1.94-.26-3.68-.8-5.22a10.91 10.91 0 0 0-2.24-3.89 9.68 9.68 0 0 0-3.52-2.46 11.95 11.95 0 0 0-4.62-.86c-1.68 0-3.21.28-4.6.86a9.88 9.88 0 0 0-3.54 2.46 10.91 10.91 0 0 0-2.24 3.9c-.53 1.53-.8 3.27-.8 5.2 0 1.94.27 3.68.8 5.22a11.17 11.17 0 0 0 2.24 3.9 10.01 10.01 0 0 0 3.55 2.44c1.38.56 2.9.83 4.6.83s3.24-.27 4.61-.83a9.8 9.8 0 0 0 3.52-2.44 11.17 11.17 0 0 0 2.25-3.9c.53-1.54.8-3.28.8-5.21zm26.22-6.54V48H60.5c-.56 0-.9-.27-1.05-.81l-.31-2.4a12.45 12.45 0 0 1-3.26 2.6c-1.2.64-2.58.96-4.13.96-1.22 0-2.3-.2-3.24-.6a6.52 6.52 0 0 1-2.33-1.7 7.37 7.37 0 0 1-1.43-2.67c-.3-1.04-.46-2.2-.46-3.45V25.7h3.91v14.22c0 1.68.38 2.99 1.15 3.91.77.93 1.96 1.39 3.54 1.39 1.16 0 2.24-.27 3.23-.82a10.42 10.42 0 0 0 2.8-2.28V25.7h3.91zm8.61 4.47a9.94 9.94 0 0 1 2.6-3.56 5.64 5.64 0 0 1 3.76-1.3c.47 0 .92.05 1.34.15.44.1.83.27 1.17.49l-.3 2.92c-.09.37-.3.55-.66.55-.2 0-.5-.04-.9-.13a6.21 6.21 0 0 0-3.24.18 4.23 4.23 0 0 0-1.47.92c-.42.4-.81.9-1.17 1.5-.33.58-.64 1.26-.92 2.02V48H67.7V25.71h2.25c.42 0 .72.08.88.25.16.16.27.44.33.83l.26 3.39zm61.16-13.7L122.75 48h-3.82l-7.99-24.05a21.95 21.95 0 0 1-.42-1.58 38.36 38.36 0 0 1-.44 1.58L102.05 48h-3.83L88.4 16.47h3.54c.38 0 .7.1.95.29.26.2.43.43.5.73l6.52 21.9.28 1.28.29 1.46.3-1.46.38-1.27 7.41-21.91c.1-.25.26-.48.51-.69.27-.22.58-.33.95-.33h1.23c.38 0 .69.1.92.29a1.77 1.77 0 0 1 .53.73l7.4 21.9a28.4 28.4 0 0 1 .68 2.62 29.52 29.52 0 0 1 .52-2.61l6.54-21.91a1.31 1.31 0 0 1 .48-.7c.27-.21.58-.32.95-.32h3.32zm9.35 8.88c1.63 0 3.1.27 4.4.82a9.43 9.43 0 0 1 5.46 5.94c.5 1.4.74 2.98.74 4.73 0 1.76-.25 3.34-.74 4.75a9.43 9.43 0 0 1-5.46 5.92c-1.3.52-2.77.79-4.4.79-1.64 0-3.12-.27-4.44-.8a9.42 9.42 0 0 1-3.35-2.3c-.92-1-1.63-2.2-2.13-3.61-.49-1.41-.73-3-.73-4.75s.24-3.33.73-4.73c.5-1.43 1.2-2.64 2.13-3.63a9.4 9.4 0 0 1 3.35-2.31c1.32-.55 2.8-.82 4.44-.82zm0 19.89c2.2 0 3.84-.73 4.93-2.2 1.08-1.48 1.63-3.54 1.63-6.18 0-2.66-.55-4.72-1.63-6.2-1.09-1.49-2.73-2.23-4.93-2.23-1.12 0-2.09.2-2.93.57a5.71 5.71 0 0 0-2.06 1.65 7.5 7.5 0 0 0-1.24 2.67c-.26 1.04-.4 2.22-.4 3.54 0 2.64.55 4.7 1.64 6.18 1.1 1.47 2.76 2.2 4.99 2.2zm17.97-15.07a9.94 9.94 0 0 1 2.6-3.56 5.64 5.64 0 0 1 3.76-1.3c.47 0 .91.05 1.34.15.44.1.83.27 1.16.49l-.28 2.92c-.09.37-.31.55-.66.55-.2 0-.5-.04-.9-.13a6.2 6.2 0 0 0-3.24.18 4.23 4.23 0 0 0-1.47.92c-.43.4-.82.9-1.17 1.5a13.1 13.1 0 0 0-.92 2.02V48h-3.94V25.71h2.24c.43 0 .72.08.88.25.17.16.28.44.33.83l.27 3.39zm15.04-14.59V48h-3.92V15.6h3.92zm19.55 15.43a6.22 6.22 0 0 0-2.38-2.05 6.7 6.7 0 0 0-2.86-.6c-2.07 0-3.66.75-4.77 2.23-1.12 1.48-1.68 3.6-1.68 6.33 0 1.46.13 2.7.38 3.74a7.29 7.29 0 0 0 1.1 2.56 4.35 4.35 0 0 0 1.78 1.45c.7.3 1.5.46 2.4.46 1.29 0 2.41-.3 3.36-.88a9.6 9.6 0 0 0 2.67-2.49V31.02zm3.91-15.43V48h-2.33c-.56 0-.9-.27-1.06-.81l-.35-2.71a12.13 12.13 0 0 1-3.25 2.77 8.28 8.28 0 0 1-4.23 1.06 7.31 7.31 0 0 1-6.14-2.9c-.73-.96-1.3-2.15-1.69-3.57a18.35 18.35 0 0 1 .07-9.48 11.29 11.29 0 0 1 1.89-3.7 8.7 8.7 0 0 1 7.06-3.34 7.96 7.96 0 0 1 6.12 2.62V15.59h3.91zM46.61 70.71V93H42.7V70.71h3.91zm.84-7c0 .39-.08.75-.24 1.09a2.81 2.81 0 0 1-1.52 1.47 2.67 2.67 0 0 1-2.16 0 2.9 2.9 0 0 1-1.45-1.47 2.67 2.67 0 0 1 0-2.16c.15-.35.35-.65.6-.9.25-.27.53-.47.85-.62a2.67 2.67 0 0 1 2.16 0c.35.15.65.35.9.62.27.25.47.55.62.9.16.34.24.7.24 1.08zm7.97 10.24c.49-.54 1-1.04 1.54-1.48a9.85 9.85 0 0 1 3.66-1.84 8.96 8.96 0 0 1 5.43.35c.94.4 1.72.97 2.33 1.71a7.36 7.36 0 0 1 1.43 2.67c.32 1.04.49 2.19.49 3.45V93h-3.94V78.81c0-1.69-.4-3-1.17-3.92-.76-.93-1.93-1.4-3.5-1.4a6.6 6.6 0 0 0-3.25.83c-1 .56-1.92 1.31-2.77 2.27V93h-3.94V70.71h2.35c.56 0 .9.28 1.04.82l.3 2.42zm57.7 3.3c0 2.36-.37 4.5-1.11 6.44a14.3 14.3 0 0 1-3.17 4.98 14.1 14.1 0 0 1-4.93 3.2c-1.9.76-4.02 1.13-6.33 1.13H85.8V61.47h11.77c2.31 0 4.42.39 6.33 1.15a13.8 13.8 0 0 1 8.1 8.18 17.75 17.75 0 0 1 1.12 6.45zm-4.37 0c0-1.94-.26-3.67-.8-5.2a10.94 10.94 0 0 0-2.23-3.87 9.57 9.57 0 0 0-3.53-2.42 12.23 12.23 0 0 0-4.61-.83h-7.5v24.62h7.5c1.7 0 3.24-.28 4.61-.84a9.7 9.7 0 0 0 3.53-2.4 10.94 10.94 0 0 0 2.24-3.87c.53-1.53.8-3.26.8-5.2zm19.8 5.72c-1.8.06-3.34.2-4.62.44-1.26.22-2.3.51-3.1.88-.8.36-1.37.8-1.74 1.3-.35.5-.53 1.05-.53 1.67 0 .58.1 1.1.3 1.52a3 3 0 0 0 .76 1.05c.34.27.73.46 1.17.6a6.13 6.13 0 0 0 1.45.17 7.28 7.28 0 0 0 3.5-.81 11.95 11.95 0 0 0 2.82-2.2v-4.62zm-12.65-9.11a12.73 12.73 0 0 1 3.98-2.66c1.43-.59 3-.88 4.73-.88 1.25 0 2.36.2 3.33.61a6.81 6.81 0 0 1 3.94 4.38c.33 1.04.5 2.19.5 3.43V93h-1.74a1.8 1.8 0 0 1-.88-.18c-.2-.13-.36-.38-.48-.74l-.44-2.12-1.72 1.46a9.48 9.48 0 0 1-3.74 1.7c-.69.15-1.46.23-2.3.23-.87 0-1.69-.12-2.45-.35a5.34 5.34 0 0 1-3.34-2.93 6.64 6.64 0 0 1-.49-2.64c0-.88.25-1.72.73-2.53a6.33 6.33 0 0 1 2.35-2.17c1.09-.63 2.5-1.15 4.25-1.54 1.75-.41 3.89-.65 6.42-.7v-1.75c0-1.73-.37-3.03-1.12-3.91-.75-.9-1.84-1.34-3.28-1.34-.97 0-1.78.12-2.44.37-.64.23-1.2.5-1.7.81l-1.23.82c-.33.23-.67.35-1 .35-.27 0-.5-.07-.69-.2a2.1 2.1 0 0 1-.48-.53l-.7-1.25zm27.67 19.5c-1.76 0-3.12-.5-4.07-1.48-.94-.98-1.41-2.4-1.41-4.25V74h-2.68a.9.9 0 0 1-.6-.2c-.16-.14-.24-.36-.24-.66v-1.56l3.65-.46.9-6.89a.9.9 0 0 1 .29-.52.88.88 0 0 1 .62-.22H142v7.67h6.44V74H142v13.38c0 .94.22 1.63.68 2.09.45.45 1.04.68 1.76.68a3.21 3.21 0 0 0 1.85-.53l.55-.35c.16-.12.3-.18.41-.18.2 0 .4.13.55.38l1.15 1.87a7.45 7.45 0 0 1-2.44 1.5 8.53 8.53 0 0 1-2.95.52zm19.68-10.4c-1.8.07-3.34.21-4.62.45-1.26.22-2.3.51-3.1.88-.8.36-1.37.8-1.74 1.3-.35.5-.53 1.05-.53 1.67 0 .58.1 1.1.3 1.52a2.9 2.9 0 0 0 .76 1.05c.34.27.73.46 1.17.6a6.13 6.13 0 0 0 1.45.17 7.3 7.3 0 0 0 3.5-.81 12.04 12.04 0 0 0 2.82-2.2v-4.62zm-12.65-9.1a12.72 12.72 0 0 1 3.99-2.66c1.42-.59 3-.88 4.72-.88 1.25 0 2.36.2 3.33.61a6.81 6.81 0 0 1 3.94 4.38c.33 1.04.5 2.19.5 3.43V93h-1.74a1.8 1.8 0 0 1-.88-.18c-.2-.13-.36-.38-.48-.74l-.44-2.12-1.72 1.46a9.48 9.48 0 0 1-3.74 1.7c-.69.15-1.46.23-2.3.23-.87 0-1.69-.12-2.45-.35a5.33 5.33 0 0 1-3.34-2.93 6.62 6.62 0 0 1-.49-2.64c0-.88.25-1.72.73-2.53a6.33 6.33 0 0 1 2.35-2.17c1.09-.63 2.5-1.15 4.25-1.54a31.2 31.2 0 0 1 6.42-.7v-1.75c0-1.73-.37-3.03-1.12-3.91-.75-.9-1.84-1.34-3.28-1.34-.97 0-1.78.12-2.44.37-.64.23-1.2.5-1.7.81l-1.22.82c-.34.23-.68.35-1.02.35-.26 0-.49-.07-.68-.2a1.88 1.88 0 0 1-.48-.53l-.7-1.25z" fill="#fff"/><path fill="#D42B21" d="M0 106.79h210V120H0z"/></g><defs><clipPath id="a"><path fill="#fff" d="M0 0h210v120H0z"/></clipPath></defs></svg></g><a href="https://ourworldindata.org/grapher/excess-mortality-p-scores-average-baseline" style="font-family:&quot;Playfair Display&quot;,Georgia,&quot;Times New Roman&quot;,serif" target="_blank" rel="noopener"><text font-size="21.6" x="15" y="33.8" fill="#555"><tspan x="15" y="33.79">Excess mortality: Deaths from all causes compared to average over</tspan><tspan x="15" y="55.39">previous years</tspan></text></a><text x="15" y="76.2" style="font-size:14.4px;line-height:1.2" fill="#666"><tspan x="15" y="76.2">The percentage difference between the reported number of weekly or monthly deaths in 2020–2022 and the average number of</tspan><tspan x="15" y="93.4">deaths in the same period over the years 2015–2019. The reported number might not count all deaths that occurred due to</tspan><tspan x="15" y="110.7">incomplete coverage and delays in reporting.</tspan></text></g><g class="LineChart"><defs><clipPath id="b"><path d="M51.63 120.04h840v406.38h-840z"/></clipPath></defs><path fill="transparent" d="M15 130.04h820v386.38H15z"/><g class="DualAxisView"><g class="HorizontalAxis"><path stroke="#999" d="M61.6 495.22v5M729.1 495.22v5M206.7 495.22v5M341 495.22v5M475.3 495.22v5"/><text x="61.63" y="516.42" fill="#666" text-anchor="start" font-size="16.2">Jan 5, 2020</text><text x="729.13" y="516.42" fill="#666" text-anchor="end" font-size="16.2">Sep 25, 2022</text><text x="206.7" y="516.42" fill="#666" text-anchor="middle" font-size="16.2">Aug 8, 2020</text><text x="341" y="516.42" fill="#666" text-anchor="middle" font-size="16.2">Feb 24, 2021</text><text x="475.3" y="516.42" fill="#666" text-anchor="middle" font-size="16.2">Sep 12, 2021</text></g><g class="VerticalAxis" text-anchor="end" fill="#666" font-size="16.2"><text x="56.63" y="477.9" dy=".32em">-50%</text><text x="56.63" y="389.3" dy=".32em">0%</text><text x="56.63" y="300.8" dy=".32em">50%</text><text x="56.63" y="212.2" dy=".32em">100%</text></g><g class="AxisGridLines horizontalLines"><path stroke="#ddd" stroke-dasharray="3,2" d="M61.63 477.9h667.5"/><path stroke="#999" d="M61.63 389.3h667.5"/><path stroke="#ddd" stroke-dasharray="3,2" d="M61.63 300.8h667.5M61.63 212.2h667.5"/></g></g><g clip-path="url(#b)"><g class="LineLabels" style="cursor:default"><g class="legendMark"><g class="indicator"><path d="M733.13 369.3h18v-13.03h9" stroke="#999" stroke-width=".5" fill="none"/></g><text font-size="13.5" font-weight="400" x="764.1" y="361.3" fill="#c15065"><tspan x="764.13" y="361.26">Colombia</tspan></text></g><g class="legendMark"><g class="indicator"><path d="M733.13 369.8h18v1.97h9" stroke="#999" stroke-width=".5" fill="none"/></g><text font-size="13.5" font-weight="400" x="764.1" y="376.8" fill="#be5915"><tspan x="764.13" y="376.76">Kazakhstan</tspan></text></g><g class="legendMark"><g class="indicator"><path d="M733.13 376.2h9v11.07h18" stroke="#999" stroke-width=".5" fill="none"/></g><text font-size="13.5" font-weight="400" x="764.1" y="392.3" fill="#2c8465"><tspan x="764.13" y="392.26">Guatemala</tspan></text></g></g><g class="Lines"><g><path stroke-linecap="round" stroke-linejoin="round" stroke="#ddd" d="m79.1 394 19.5-10.7 20.8 45.7 20.1 66.2 20.8-157.8 20.2-16.6 20.8-186.2 20.8 130.6 20.2 71.2 20.8 29.5 20.1-5.7 20.9-11 20.8 35.9 18.8-7.7 20.8-12.4 20.1-12.2 20.9-12.9 20.1 14.5 20.8-43.9 20.8-155.2 20.2 75.1 20.8 79 20.1-7 20.9 33 20.8 38.3 18.8-40.4 20.8 55 20.1 24.5 20.9-18.2 20.1-4.4 20.8 13.4 20.8-33.8" fill="none" stroke-width="1"/></g><g><path stroke-linecap="round" stroke-linejoin="round" stroke="#ddd" d="m61.6 372.6 4.7 12.8 4.7-1.3 4.7-.4 4.7-5.8 4.7 5.9 4.7 5.4 4.7 6.8 4.7-9.9 4.7 3.1 4.7 11.3 4.7 10.5 4.7 9.9 4.7 1.4 4.7 3.2 4.7-3.7 4.7-4.5 4.7.5 4.7-5.9 4.7-.8 4.7-11.1 4.7-15.4 4.7-23.4 4.7-13.5 4.7-10.8 4.8-27.9 4.7-27.2 4.7-40.8 4.7 19.9 4.7 9.6 4.7 2.1 4.7 30.8 4.7 6.7 4.7 17.4 4.7-9 4.7 18.3 4.7 8.6 4.7 4.6 4.7.3 4.7 19 4.7-16.7 4.7 8.6 4.7 2 4.7-5.5 4.7-4.1 4.7 2.4 4.7-6.1 4.7-2.2 4.7 12.8 4.7-5.5 4.7.8 4.7 6.6 4.7-16.2 4.7 10.2 4.7.8 4.7 1.1 4.7-.7 4.7-.5 4.7 6.9 4.7 11.7 4.7-5.7 4.7-12.3 4.7 10.4 4.7-3.6 4.7-17.7 4.7 4.5 4.7-12.8 4.7-20.7 4.7 7.4 4.7 9.4 4.7-2.8 4.7-.5 4.7-1.4 4.7 1.2 4.7-19.1 4.7 14.6 4.7-2.5 4.7 4.6 4.7-20.6 4.7-9 4.7-11.5 4.7-14.7 4.7-4.8 4.7-23.7 4.7-6.6 4.7-54.9 4.7-15.8 4.7-30.4 4.7-6.7 4.7 18.9 4.7 58.3 4.7 24.2 4.7 46.8 4.7 20.4 4.7 30 4.7 12.2 4.7 4.1 4.7 15.4h4.7l4.7 8.3 4.7-13.8 4.7 9.6 4.7-1 4.7-3.7 4.7-14.9 4.7-6.6 4.7-1.9 4.7-9.9 4.7 9.1 4.7-22.1 4.7 4.3 4.7-1.1 4.7 14.7 4.7-1 4.7 14.9 4.7 8.8 4.7 12.1 4.7 1.4 4.7 9.4 4.7-1.5 4.7 4.3 4.7 15.6 4.7-14.5 4.7.8 4.7 6.9 4.7-3.9 4.7-14.8 4.7 22.6 4.7-5 4.7-8.5 4.7-8.4 4.7-2.2 4.7-8 4.7 11.3 4.7 4.6" fill="none" stroke-width="1"/></g><g><path stroke-linecap="round" stroke-linejoin="round" stroke="#ddd" d="m61.6 379.4 4.7-10.1 4.7 5.1h4.7l4.7.9 4.7-7 4.7-1.2h4.7l4.7 8.6 4.7 1.8 4.7 5.2 4.7-4.4 4.7 7.8 4.7 4.5 4.7-3.1 4.7-4.2 4.7 1 4.7 4.9 4.7-5.9 4.7 1.1 4.7-6.3 4.7-1.4 4.7-14 4.7-9.3 4.7-15.2 4.8-11 4.7-6.8 4.7-20.8 4.7-29.4 4.7-24.5 4.7-12.1 4.7 14.3 4.7 6.5 4.7 15.8 4.7 15.6 4.7 9.1 4.7 5.5 4.7 9.3 4.7-3.3 4.7 9.2 4.7-5.2 4.7-1 4.7-10 4.7 16.3 4.7-6.2 4.7 5.9 4.7-2.8 4.7.9 4.7 10 4.7-16.8 4.7-.2 4.7-10.3 4.7-24 4.7-5.6 4.7-33.3 4.7-.1 4.7 22.8 4.7 18.9 4.7 25.3 4.7 15.1 4.7 14.2 4.7 2.3 4.7 12.7 4.7-9.7 4.7-17.8 4.7-21.6 4.7-31.9 4.7-53.4 4.7-14.4 4.7 1.1 4.7.6 4.7-.7 4.7 9.1 4.7-13.1 4.7-18.6 4.7-7.9 4.7-17.2 4.7 2.5 4.7 11.4 4.7 24.3 4.7 30.4 4.7 37.4 4.7 16.8 4.7 34 4.7 24.4 4.7 6.6 4.7 8.4 4.7 10.9 4.7 1.3 4.7 1.1 4.7-6.4 4.7 3.2 4.7-3.3 4.7 4.8 4.7 2 4.7-5.3 4.7 2.2 4.7-5.9 4.7.6 4.7 1.9 4.7-6.7 4.7 2.1 4.7 4.7 4.7-13.8 4.7 5.6 4.7-16 4.7-37.6 4.7-31 4.7-24.7 4.7 14 4.7 30.7 4.7 30 4.7 27.4 4.7 12.8 4.7 7.3 4.7 5.7 4.7-2.4 4.7 4 4.7-2.6 4.7 4.7 4.7-8.6 4.7 2.8 4.7-7 4.7 3.4 4.7 7.5 4.7-3.5 4.7-5.1 4.7.6 4.7-2.5 4.7.9 4.7-16.5 4.7-4.1 4.7-1.3 4.7 16.4 4.7-7.9 4.7 8.7 4.7 4.8 4.7 6.8 4.7-7.9 4.7-.6 4.7 3.5 4.7 8.7 4.7 3.7" fill="none" stroke-width="1"/></g><g><path fill="none" stroke-linecap="butt" stroke-linejoin="round" stroke="#fff" stroke-width="2.5" d="m79.1 394 19.5-10.7 20.8 45.7 20.1 66.2 20.8-157.8 20.2-16.6 20.8-186.2 20.8 130.6 20.2 71.2 20.8 29.5 20.1-5.7 20.9-11 20.8 35.9 18.8-7.7 20.8-12.4 20.1-12.2 20.9-12.9 20.1 14.5 20.8-43.9 20.8-155.2 20.2 75.1 20.8 79 20.1-7 20.9 33 20.8 38.3 18.8-40.4 20.8 55 20.1 24.5 20.9-18.2 20.1-4.4 20.8 13.4 20.8-33.8"/><path stroke-linejoin="round" stroke-width="1.5" stroke="#BE5915" fill="none" stroke-linecap="butt" d="m79.1 394 19.5-10.7 20.8 45.7 20.1 66.2 20.8-157.8 20.2-16.6 20.8-186.2 20.8 130.6 20.2 71.2 20.8 29.5 20.1-5.7 20.9-11 20.8 35.9 18.8-7.7 20.8-12.4 20.1-12.2 20.9-12.9 20.1 14.5 20.8-43.9 20.8-155.2 20.2 75.1 20.8 79 20.1-7 20.9 33 20.8 38.3 18.8-40.4 20.8 55 20.1 24.5 20.9-18.2 20.1-4.4 20.8 13.4 20.8-33.8"/><g fill="#BE5915"><circle cx="79.1" cy="394" r="1.8"/><circle cx="98.6" cy="383.3" r="1.8"/><circle cx="119.4" cy="429" r="1.8"/><circle cx="139.5" cy="495.2" r="1.8"/><circle cx="160.3" cy="337.4" r="1.8"/><circle cx="180.5" cy="320.8" r="1.8"/><circle cx="201.3" cy="134.6" r="1.8"/><circle cx="222.1" cy="265.2" r="1.8"/><circle cx="242.3" cy="336.4" r="1.8"/><circle cx="263.1" cy="365.9" r="1.8"/><circle cx="283.2" cy="360.2" r="1.8"/><circle cx="304.1" cy="349.2" r="1.8"/><circle cx="324.9" cy="385.1" r="1.8"/><circle cx="343.7" cy="377.4" r="1.8"/><circle cx="364.5" cy="365" r="1.8"/><circle cx="384.6" cy="352.8" r="1.8"/><circle cx="405.5" cy="339.9" r="1.8"/><circle cx="425.6" cy="354.4" r="1.8"/><circle cx="446.4" cy="310.5" r="1.8"/><circle cx="467.2" cy="155.3" r="1.8"/><circle cx="487.4" cy="230.4" r="1.8"/><circle cx="508.2" cy="309.4" r="1.8"/><circle cx="528.3" cy="302.4" r="1.8"/><circle cx="549.2" cy="335.4" r="1.8"/><circle cx="570" cy="373.7" r="1.8"/><circle cx="588.8" cy="333.3" r="1.8"/><circle cx="609.6" cy="388.3" r="1.8"/><circle cx="629.7" cy="412.8" r="1.8"/><circle cx="650.6" cy="394.6" r="1.8"/><circle cx="670.7" cy="390.2" r="1.8"/><circle cx="691.5" cy="403.6" r="1.8"/><circle cx="712.3" cy="369.8" r="1.8"/></g></g><g><path fill="none" stroke-linecap="butt" stroke-linejoin="round" stroke="#fff" stroke-width="2.5" d="m61.6 372.6 4.7 12.8 4.7-1.3 4.7-.4 4.7-5.8 4.7 5.9 4.7 5.4 4.7 6.8 4.7-9.9 4.7 3.1 4.7 11.3 4.7 10.5 4.7 9.9 4.7 1.4 4.7 3.2 4.7-3.7 4.7-4.5 4.7.5 4.7-5.9 4.7-.8 4.7-11.1 4.7-15.4 4.7-23.4 4.7-13.5 4.7-10.8 4.8-27.9 4.7-27.2 4.7-40.8 4.7 19.9 4.7 9.6 4.7 2.1 4.7 30.8 4.7 6.7 4.7 17.4 4.7-9 4.7 18.3 4.7 8.6 4.7 4.6 4.7.3 4.7 19 4.7-16.7 4.7 8.6 4.7 2 4.7-5.5 4.7-4.1 4.7 2.4 4.7-6.1 4.7-2.2 4.7 12.8 4.7-5.5 4.7.8 4.7 6.6 4.7-16.2 4.7 10.2 4.7.8 4.7 1.1 4.7-.7 4.7-.5 4.7 6.9 4.7 11.7 4.7-5.7 4.7-12.3 4.7 10.4 4.7-3.6 4.7-17.7 4.7 4.5 4.7-12.8 4.7-20.7 4.7 7.4 4.7 9.4 4.7-2.8 4.7-.5 4.7-1.4 4.7 1.2 4.7-19.1 4.7 14.6 4.7-2.5 4.7 4.6 4.7-20.6 4.7-9 4.7-11.5 4.7-14.7 4.7-4.8 4.7-23.7 4.7-6.6 4.7-54.9 4.7-15.8 4.7-30.4 4.7-6.7 4.7 18.9 4.7 58.3 4.7 24.2 4.7 46.8 4.7 20.4 4.7 30 4.7 12.2 4.7 4.1 4.7 15.4h4.7l4.7 8.3 4.7-13.8 4.7 9.6 4.7-1 4.7-3.7 4.7-14.9 4.7-6.6 4.7-1.9 4.7-9.9 4.7 9.1 4.7-22.1 4.7 4.3 4.7-1.1 4.7 14.7 4.7-1 4.7 14.9 4.7 8.8 4.7 12.1 4.7 1.4 4.7 9.4 4.7-1.5 4.7 4.3 4.7 15.6 4.7-14.5 4.7.8 4.7 6.9 4.7-3.9 4.7-14.8 4.7 22.6 4.7-5 4.7-8.5 4.7-8.4 4.7-2.2 4.7-8 4.7 11.3 4.7 4.6"/><path stroke-linejoin="round" stroke-width="1.5" stroke="#2C8465" fill="none" stroke-linecap="butt" d="m61.6 372.6 4.7 12.8 4.7-1.3 4.7-.4 4.7-5.8 4.7 5.9 4.7 5.4 4.7 6.8 4.7-9.9 4.7 3.1 4.7 11.3 4.7 10.5 4.7 9.9 4.7 1.4 4.7 3.2 4.7-3.7 4.7-4.5 4.7.5 4.7-5.9 4.7-.8 4.7-11.1 4.7-15.4 4.7-23.4 4.7-13.5 4.7-10.8 4.8-27.9 4.7-27.2 4.7-40.8 4.7 19.9 4.7 9.6 4.7 2.1 4.7 30.8 4.7 6.7 4.7 17.4 4.7-9 4.7 18.3 4.7 8.6 4.7 4.6 4.7.3 4.7 19 4.7-16.7 4.7 8.6 4.7 2 4.7-5.5 4.7-4.1 4.7 2.4 4.7-6.1 4.7-2.2 4.7 12.8 4.7-5.5 4.7.8 4.7 6.6 4.7-16.2 4.7 10.2 4.7.8 4.7 1.1 4.7-.7 4.7-.5 4.7 6.9 4.7 11.7 4.7-5.7 4.7-12.3 4.7 10.4 4.7-3.6 4.7-17.7 4.7 4.5 4.7-12.8 4.7-20.7 4.7 7.4 4.7 9.4 4.7-2.8 4.7-.5 4.7-1.4 4.7 1.2 4.7-19.1 4.7 14.6 4.7-2.5 4.7 4.6 4.7-20.6 4.7-9 4.7-11.5 4.7-14.7 4.7-4.8 4.7-23.7 4.7-6.6 4.7-54.9 4.7-15.8 4.7-30.4 4.7-6.7 4.7 18.9 4.7 58.3 4.7 24.2 4.7 46.8 4.7 20.4 4.7 30 4.7 12.2 4.7 4.1 4.7 15.4h4.7l4.7 8.3 4.7-13.8 4.7 9.6 4.7-1 4.7-3.7 4.7-14.9 4.7-6.6 4.7-1.9 4.7-9.9 4.7 9.1 4.7-22.1 4.7 4.3 4.7-1.1 4.7 14.7 4.7-1 4.7 14.9 4.7 8.8 4.7 12.1 4.7 1.4 4.7 9.4 4.7-1.5 4.7 4.3 4.7 15.6 4.7-14.5 4.7.8 4.7 6.9 4.7-3.9 4.7-14.8 4.7 22.6 4.7-5 4.7-8.5 4.7-8.4 4.7-2.2 4.7-8 4.7 11.3 4.7 4.6"/><g fill="#2C8465"><circle cx="61.6" cy="372.6" r="1.8"/><circle cx="66.3" cy="385.4" r="1.8"/><circle cx="71" cy="384.1" r="1.8"/><circle cx="75.7" cy="383.7" r="1.8"/><circle cx="80.4" cy="377.9" r="1.8"/><circle cx="85.1" cy="383.8" r="1.8"/><circle cx="89.8" cy="389.2" r="1.8"/><circle cx="94.5" cy="396" r="1.8"/><circle cx="99.2" cy="386.1" r="1.8"/><circle cx="103.9" cy="389.2" r="1.8"/><circle cx="108.6" cy="400.5" r="1.8"/><circle cx="113.3" cy="411" r="1.8"/><circle cx="118" cy="420.9" r="1.8"/><circle cx="122.7" cy="422.3" r="1.8"/><circle cx="127.4" cy="425.5" r="1.8"/><circle cx="132.1" cy="421.8" r="1.8"/><circle cx="136.8" cy="417.3" r="1.8"/><circle cx="141.5" cy="417.8" r="1.8"/><circle cx="146.2" cy="411.9" r="1.8"/><circle cx="150.9" cy="411.1" r="1.8"/><circle cx="155.6" cy="400" r="1.8"/><circle cx="160.3" cy="384.6" r="1.8"/><circle cx="165" cy="361.2" r="1.8"/><circle cx="169.7" cy="347.7" r="1.8"/><circle cx="174.4" cy="336.9" r="1.8"/><circle cx="179.2" cy="309" r="1.8"/><circle cx="183.9" cy="281.8" r="1.8"/><circle cx="188.6" cy="241" r="1.8"/><circle cx="193.3" cy="260.9" r="1.8"/><circle cx="198" cy="270.5" r="1.8"/><circle cx="202.7" cy="272.6" r="1.8"/><circle cx="207.4" cy="303.4" r="1.8"/><circle cx="212.1" cy="310.1" r="1.8"/><circle cx="216.8" cy="327.5" r="1.8"/><circle cx="221.5" cy="318.5" r="1.8"/><circle cx="226.2" cy="336.8" r="1.8"/><circle cx="230.9" cy="345.4" r="1.8"/><circle cx="235.6" cy="350" r="1.8"/><circle cx="240.3" cy="350.3" r="1.8"/><circle cx="245" cy="369.3" r="1.8"/><circle cx="249.7" cy="352.6" r="1.8"/><circle cx="254.4" cy="361.2" r="1.8"/><circle cx="259.1" cy="363.2" r="1.8"/><circle cx="263.8" cy="357.7" r="1.8"/><circle cx="268.5" cy="353.6" r="1.8"/><circle cx="273.2" cy="356" r="1.8"/><circle cx="277.9" cy="349.9" r="1.8"/><circle cx="282.6" cy="347.7" r="1.8"/><circle cx="287.3" cy="360.5" r="1.8"/><circle cx="292" cy="355" r="1.8"/><circle cx="296.7" cy="355.8" r="1.8"/><circle cx="301.4" cy="362.4" r="1.8"/><circle cx="306.1" cy="346.2" r="1.8"/><circle cx="310.8" cy="356.4" r="1.8"/><circle cx="315.5" cy="357.2" r="1.8"/><circle cx="320.2" cy="358.3" r="1.8"/><circle cx="324.9" cy="357.6" r="1.8"/><circle cx="329.6" cy="357.1" r="1.8"/><circle cx="334.3" cy="364" r="1.8"/><circle cx="339" cy="375.7" r="1.8"/><circle cx="343.7" cy="370" r="1.8"/><circle cx="348.4" cy="357.7" r="1.8"/><circle cx="353.1" cy="368.1" r="1.8"/><circle cx="357.8" cy="364.5" r="1.8"/><circle cx="362.5" cy="346.8" r="1.8"/><circle cx="367.2" cy="351.3" r="1.8"/><circle cx="371.9" cy="338.5" r="1.8"/><circle cx="376.6" cy="317.8" r="1.8"/><circle cx="381.3" cy="325.2" r="1.8"/><circle cx="386" cy="334.6" r="1.8"/><circle cx="390.7" cy="331.8" r="1.8"/><circle cx="395.4" cy="331.3" r="1.8"/><circle cx="400.1" cy="329.9" r="1.8"/><circle cx="404.8" cy="331.1" r="1.8"/><circle cx="409.5" cy="312" r="1.8"/><circle cx="414.2" cy="326.6" r="1.8"/><circle cx="418.9" cy="324.1" r="1.8"/><circle cx="423.6" cy="328.7" r="1.8"/><circle cx="428.3" cy="308.1" r="1.8"/><circle cx="433" cy="299.1" r="1.8"/><circle cx="437.7" cy="287.6" r="1.8"/><circle cx="442.4" cy="272.9" r="1.8"/><circle cx="447.1" cy="268.1" r="1.8"/><circle cx="451.8" cy="244.4" r="1.8"/><circle cx="456.5" cy="237.8" r="1.8"/><circle cx="461.2" cy="182.9" r="1.8"/><circle cx="465.9" cy="167.1" r="1.8"/><circle cx="470.6" cy="136.7" r="1.8"/><circle cx="475.3" cy="130" r="1.8"/><circle cx="480" cy="148.9" r="1.8"/><circle cx="484.7" cy="207.2" r="1.8"/><circle cx="489.4" cy="231.4" r="1.8"/><circle cx="494.1" cy="278.2" r="1.8"/><circle cx="498.8" cy="298.6" r="1.8"/><circle cx="503.5" cy="328.6" r="1.8"/><circle cx="508.2" cy="340.8" r="1.8"/><circle cx="512.9" cy="344.9" r="1.8"/><circle cx="517.6" cy="360.3" r="1.8"/><circle cx="522.3" cy="360.3" r="1.8"/><circle cx="527" cy="368.6" r="1.8"/><circle cx="531.7" cy="354.8" r="1.8"/><circle cx="536.4" cy="364.4" r="1.8"/><circle cx="541.1" cy="363.4" r="1.8"/><circle cx="545.8" cy="359.7" r="1.8"/><circle cx="550.5" cy="344.8" r="1.8"/><circle cx="555.2" cy="338.2" r="1.8"/><circle cx="559.9" cy="336.3" r="1.8"/><circle cx="564.6" cy="326.4" r="1.8"/><circle cx="569.3" cy="335.5" r="1.8"/><circle cx="574" cy="313.4" r="1.8"/><circle cx="578.7" cy="317.7" r="1.8"/><circle cx="583.4" cy="316.6" r="1.8"/><circle cx="588.1" cy="331.3" r="1.8"/><circle cx="592.8" cy="330.3" r="1.8"/><circle cx="597.5" cy="345.2" r="1.8"/><circle cx="602.2" cy="354" r="1.8"/><circle cx="606.9" cy="366.1" r="1.8"/><circle cx="611.6" cy="367.5" r="1.8"/><circle cx="616.3" cy="376.9" r="1.8"/><circle cx="621" cy="375.4" r="1.8"/><circle cx="625.7" cy="379.7" r="1.8"/><circle cx="630.4" cy="395.3" r="1.8"/><circle cx="635.1" cy="380.8" r="1.8"/><circle cx="639.8" cy="381.6" r="1.8"/><circle cx="644.5" cy="388.5" r="1.8"/><circle cx="649.2" cy="384.6" r="1.8"/><circle cx="653.9" cy="369.8" r="1.8"/><circle cx="658.6" cy="392.4" r="1.8"/><circle cx="663.3" cy="387.4" r="1.8"/><circle cx="668" cy="378.9" r="1.8"/><circle cx="672.7" cy="370.5" r="1.8"/><circle cx="677.4" cy="368.3" r="1.8"/><circle cx="682.1" cy="360.3" r="1.8"/><circle cx="686.8" cy="371.6" r="1.8"/><circle cx="691.5" cy="376.2" r="1.8"/></g></g><g><path fill="none" stroke-linecap="butt" stroke-linejoin="round" stroke="#fff" stroke-width="2.5" d="m61.6 379.4 4.7-10.1 4.7 5.1h4.7l4.7.9 4.7-7 4.7-1.2h4.7l4.7 8.6 4.7 1.8 4.7 5.2 4.7-4.4 4.7 7.8 4.7 4.5 4.7-3.1 4.7-4.2 4.7 1 4.7 4.9 4.7-5.9 4.7 1.1 4.7-6.3 4.7-1.4 4.7-14 4.7-9.3 4.7-15.2 4.8-11 4.7-6.8 4.7-20.8 4.7-29.4 4.7-24.5 4.7-12.1 4.7 14.3 4.7 6.5 4.7 15.8 4.7 15.6 4.7 9.1 4.7 5.5 4.7 9.3 4.7-3.3 4.7 9.2 4.7-5.2 4.7-1 4.7-10 4.7 16.3 4.7-6.2 4.7 5.9 4.7-2.8 4.7.9 4.7 10 4.7-16.8 4.7-.2 4.7-10.3 4.7-24 4.7-5.6 4.7-33.3 4.7-.1 4.7 22.8 4.7 18.9 4.7 25.3 4.7 15.1 4.7 14.2 4.7 2.3 4.7 12.7 4.7-9.7 4.7-17.8 4.7-21.6 4.7-31.9 4.7-53.4 4.7-14.4 4.7 1.1 4.7.6 4.7-.7 4.7 9.1 4.7-13.1 4.7-18.6 4.7-7.9 4.7-17.2 4.7 2.5 4.7 11.4 4.7 24.3 4.7 30.4 4.7 37.4 4.7 16.8 4.7 34 4.7 24.4 4.7 6.6 4.7 8.4 4.7 10.9 4.7 1.3 4.7 1.1 4.7-6.4 4.7 3.2 4.7-3.3 4.7 4.8 4.7 2 4.7-5.3 4.7 2.2 4.7-5.9 4.7.6 4.7 1.9 4.7-6.7 4.7 2.1 4.7 4.7 4.7-13.8 4.7 5.6 4.7-16 4.7-37.6 4.7-31 4.7-24.7 4.7 14 4.7 30.7 4.7 30 4.7 27.4 4.7 12.8 4.7 7.3 4.7 5.7 4.7-2.4 4.7 4 4.7-2.6 4.7 4.7 4.7-8.6 4.7 2.8 4.7-7 4.7 3.4 4.7 7.5 4.7-3.5 4.7-5.1 4.7.6 4.7-2.5 4.7.9 4.7-16.5 4.7-4.1 4.7-1.3 4.7 16.4 4.7-7.9 4.7 8.7 4.7 4.8 4.7 6.8 4.7-7.9 4.7-.6 4.7 3.5 4.7 8.7 4.7 3.7"/><path stroke-linejoin="round" stroke-width="1.5" stroke="#C15065" fill="none" stroke-linecap="butt" d="m61.6 379.4 4.7-10.1 4.7 5.1h4.7l4.7.9 4.7-7 4.7-1.2h4.7l4.7 8.6 4.7 1.8 4.7 5.2 4.7-4.4 4.7 7.8 4.7 4.5 4.7-3.1 4.7-4.2 4.7 1 4.7 4.9 4.7-5.9 4.7 1.1 4.7-6.3 4.7-1.4 4.7-14 4.7-9.3 4.7-15.2 4.8-11 4.7-6.8 4.7-20.8 4.7-29.4 4.7-24.5 4.7-12.1 4.7 14.3 4.7 6.5 4.7 15.8 4.7 15.6 4.7 9.1 4.7 5.5 4.7 9.3 4.7-3.3 4.7 9.2 4.7-5.2 4.7-1 4.7-10 4.7 16.3 4.7-6.2 4.7 5.9 4.7-2.8 4.7.9 4.7 10 4.7-16.8 4.7-.2 4.7-10.3 4.7-24 4.7-5.6 4.7-33.3 4.7-.1 4.7 22.8 4.7 18.9 4.7 25.3 4.7 15.1 4.7 14.2 4.7 2.3 4.7 12.7 4.7-9.7 4.7-17.8 4.7-21.6 4.7-31.9 4.7-53.4 4.7-14.4 4.7 1.1 4.7.6 4.7-.7 4.7 9.1 4.7-13.1 4.7-18.6 4.7-7.9 4.7-17.2 4.7 2.5 4.7 11.4 4.7 24.3 4.7 30.4 4.7 37.4 4.7 16.8 4.7 34 4.7 24.4 4.7 6.6 4.7 8.4 4.7 10.9 4.7 1.3 4.7 1.1 4.7-6.4 4.7 3.2 4.7-3.3 4.7 4.8 4.7 2 4.7-5.3 4.7 2.2 4.7-5.9 4.7.6 4.7 1.9 4.7-6.7 4.7 2.1 4.7 4.7 4.7-13.8 4.7 5.6 4.7-16 4.7-37.6 4.7-31 4.7-24.7 4.7 14 4.7 30.7 4.7 30 4.7 27.4 4.7 12.8 4.7 7.3 4.7 5.7 4.7-2.4 4.7 4 4.7-2.6 4.7 4.7 4.7-8.6 4.7 2.8 4.7-7 4.7 3.4 4.7 7.5 4.7-3.5 4.7-5.1 4.7.6 4.7-2.5 4.7.9 4.7-16.5 4.7-4.1 4.7-1.3 4.7 16.4 4.7-7.9 4.7 8.7 4.7 4.8 4.7 6.8 4.7-7.9 4.7-.6 4.7 3.5 4.7 8.7 4.7 3.7"/><g fill="#C15065"><circle cx="61.6" cy="379.4" r="1.8"/><circle cx="66.3" cy="369.3" r="1.8"/><circle cx="71" cy="374.4" r="1.8"/><circle cx="75.7" cy="374.4" r="1.8"/><circle cx="80.4" cy="375.3" r="1.8"/><circle cx="85.1" cy="368.3" r="1.8"/><circle cx="89.8" cy="367.1" r="1.8"/><circle cx="94.5" cy="367.1" r="1.8"/><circle cx="99.2" cy="375.7" r="1.8"/><circle cx="103.9" cy="377.5" r="1.8"/><circle cx="108.6" cy="382.7" r="1.8"/><circle cx="113.3" cy="378.3" r="1.8"/><circle cx="118" cy="386.1" r="1.8"/><circle cx="122.7" cy="390.6" r="1.8"/><circle cx="127.4" cy="387.5" r="1.8"/><circle cx="132.1" cy="383.3" r="1.8"/><circle cx="136.8" cy="384.3" r="1.8"/><circle cx="141.5" cy="389.2" r="1.8"/><circle cx="146.2" cy="383.3" r="1.8"/><circle cx="150.9" cy="384.4" r="1.8"/><circle cx="155.6" cy="378.1" r="1.8"/><circle cx="160.3" cy="376.7" r="1.8"/><circle cx="165" cy="362.7" r="1.8"/><circle cx="169.7" cy="353.4" r="1.8"/><circle cx="174.4" cy="338.2" r="1.8"/><circle cx="179.2" cy="327.2" r="1.8"/><circle cx="183.9" cy="320.4" r="1.8"/><circle cx="188.6" cy="299.6" r="1.8"/><circle cx="193.3" cy="270.2" r="1.8"/><circle cx="198" cy="245.7" r="1.8"/><circle cx="202.7" cy="233.6" r="1.8"/><circle cx="207.4" cy="247.9" r="1.8"/><circle cx="212.1" cy="254.4" r="1.8"/><circle cx="216.8" cy="270.2" r="1.8"/><circle cx="221.5" cy="285.8" r="1.8"/><circle cx="226.2" cy="294.9" r="1.8"/><circle cx="230.9" cy="300.4" r="1.8"/><circle cx="235.6" cy="309.7" r="1.8"/><circle cx="240.3" cy="306.4" r="1.8"/><circle cx="245" cy="315.6" r="1.8"/><circle cx="249.7" cy="310.4" r="1.8"/><circle cx="254.4" cy="309.4" r="1.8"/><circle cx="259.1" cy="299.4" r="1.8"/><circle cx="263.8" cy="315.7" r="1.8"/><circle cx="268.5" cy="309.5" r="1.8"/><circle cx="273.2" cy="315.4" r="1.8"/><circle cx="277.9" cy="312.6" r="1.8"/><circle cx="282.6" cy="313.5" r="1.8"/><circle cx="287.3" cy="323.5" r="1.8"/><circle cx="292" cy="306.7" r="1.8"/><circle cx="296.7" cy="306.5" r="1.8"/><circle cx="301.4" cy="296.2" r="1.8"/><circle cx="306.1" cy="272.2" r="1.8"/><circle cx="310.8" cy="266.6" r="1.8"/><circle cx="315.5" cy="233.3" r="1.8"/><circle cx="320.2" cy="233.2" r="1.8"/><circle cx="324.9" cy="256" r="1.8"/><circle cx="329.6" cy="274.9" r="1.8"/><circle cx="334.3" cy="300.2" r="1.8"/><circle cx="339" cy="315.3" r="1.8"/><circle cx="343.7" cy="329.5" r="1.8"/><circle cx="348.4" cy="331.8" r="1.8"/><circle cx="353.1" cy="344.5" r="1.8"/><circle cx="357.8" cy="334.8" r="1.8"/><circle cx="362.5" cy="317" r="1.8"/><circle cx="367.2" cy="295.4" r="1.8"/><circle cx="371.9" cy="263.5" r="1.8"/><circle cx="376.6" cy="210.1" r="1.8"/><circle cx="381.3" cy="195.7" r="1.8"/><circle cx="386" cy="196.8" r="1.8"/><circle cx="390.7" cy="197.4" r="1.8"/><circle cx="395.4" cy="196.7" r="1.8"/><circle cx="400.1" cy="205.8" r="1.8"/><circle cx="404.8" cy="192.7" r="1.8"/><circle cx="409.5" cy="174.1" r="1.8"/><circle cx="414.2" cy="166.2" r="1.8"/><circle cx="418.9" cy="149" r="1.8"/><circle cx="423.6" cy="151.5" r="1.8"/><circle cx="428.3" cy="162.9" r="1.8"/><circle cx="433" cy="187.2" r="1.8"/><circle cx="437.7" cy="217.6" r="1.8"/><circle cx="442.4" cy="255" r="1.8"/><circle cx="447.1" cy="271.8" r="1.8"/><circle cx="451.8" cy="305.8" r="1.8"/><circle cx="456.5" cy="330.2" r="1.8"/><circle cx="461.2" cy="336.8" r="1.8"/><circle cx="465.9" cy="345.2" r="1.8"/><circle cx="470.6" cy="356.1" r="1.8"/><circle cx="475.3" cy="357.4" r="1.8"/><circle cx="480" cy="358.5" r="1.8"/><circle cx="484.7" cy="352.1" r="1.8"/><circle cx="489.4" cy="355.3" r="1.8"/><circle cx="494.1" cy="352" r="1.8"/><circle cx="498.8" cy="356.8" r="1.8"/><circle cx="503.5" cy="358.8" r="1.8"/><circle cx="508.2" cy="353.5" r="1.8"/><circle cx="512.9" cy="355.7" r="1.8"/><circle cx="517.6" cy="349.8" r="1.8"/><circle cx="522.3" cy="350.4" r="1.8"/><circle cx="527" cy="352.3" r="1.8"/><circle cx="531.7" cy="345.6" r="1.8"/><circle cx="536.4" cy="347.7" r="1.8"/><circle cx="541.1" cy="352.4" r="1.8"/><circle cx="545.8" cy="338.6" r="1.8"/><circle cx="550.5" cy="344.2" r="1.8"/><circle cx="555.2" cy="328.2" r="1.8"/><circle cx="559.9" cy="290.6" r="1.8"/><circle cx="564.6" cy="259.6" r="1.8"/><circle cx="569.3" cy="234.9" r="1.8"/><circle cx="574" cy="248.9" r="1.8"/><circle cx="578.7" cy="279.6" r="1.8"/><circle cx="583.4" cy="309.6" r="1.8"/><circle cx="588.1" cy="337" r="1.8"/><circle cx="592.8" cy="349.8" r="1.8"/><circle cx="597.5" cy="357.1" r="1.8"/><circle cx="602.2" cy="362.8" r="1.8"/><circle cx="606.9" cy="360.4" r="1.8"/><circle cx="611.6" cy="364.4" r="1.8"/><circle cx="616.3" cy="361.8" r="1.8"/><circle cx="621" cy="366.5" r="1.8"/><circle cx="625.7" cy="357.9" r="1.8"/><circle cx="630.4" cy="360.7" r="1.8"/><circle cx="635.1" cy="353.7" r="1.8"/><circle cx="639.8" cy="357.1" r="1.8"/><circle cx="644.5" cy="364.6" r="1.8"/><circle cx="649.2" cy="361.1" r="1.8"/><circle cx="653.9" cy="356" r="1.8"/><circle cx="658.6" cy="356.6" r="1.8"/><circle cx="663.3" cy="354.1" r="1.8"/><circle cx="668" cy="355" r="1.8"/><circle cx="672.7" cy="338.5" r="1.8"/><circle cx="677.4" cy="334.4" r="1.8"/><circle cx="682.1" cy="333.1" r="1.8"/><circle cx="686.8" cy="349.5" r="1.8"/><circle cx="691.5" cy="341.6" r="1.8"/><circle cx="696.2" cy="350.3" r="1.8"/><circle cx="700.9" cy="355.1" r="1.8"/><circle cx="705.6" cy="361.9" r="1.8"/><circle cx="710.3" cy="354" r="1.8"/><circle cx="715" cy="353.4" r="1.8"/><circle cx="719.7" cy="356.9" r="1.8"/><circle cx="724.4" cy="365.6" r="1.8"/><circle cx="729.1" cy="369.3" r="1.8"/></g></g></g></g></g><g class="SourcesFooter" style="fill:#777"><g style="fill:#777"><text font-size="12.6" x="15" y="553"><tspan x="15" y="553.01">Source: Human Mortality Database (2022), World Mortality Dataset (2022)</tspan></text></g><text x="15" y="568.9" style="font-size:12.6px;line-height:1.1"><tspan x="15" y="568.9">Note: Comparisons across countries are affected by differences in the completeness of death reporting. Details can be found at our Excess</tspan><tspan x="15" y="582.7">Mortality page.</tspan></text><text font-size="12.6" x="601.3" y="553"><tspan x="601.27" y="553.01"><a target="_blank" style="fill:#777" href="https://ourworldindata.org/coronavirus">OurWorldInData.org/coronavirus</a> • <a style="fill:#777" class="cclogo" href="http://creativecommons.org/licenses/by/4.0/deed.en_US" target="_blank">CC BY</a></tspan></text></g></svg>