<svg xmlns="http://www.w3.org/2000/svg" version="1.1" style="font-family:Lato,'Helvetica Neue',Helvetica,Arial,sans-serif;font-size:18px;background-color:#fff;text-rendering:geometricPrecision;-webkit-font-smoothing:antialiased" width="850" height="600" viewBox="0 0 850 600"><defs><pattern id="b" patternUnits="userSpaceOnUse" width="4" height="4" patternTransform="rotate(-45 2 2)"><path d="M-1 2h6" stroke="#ccc" stroke-width=".7"/></pattern></defs><g class="HeaderView"><g transform="matrix(.29 0 0 .29 774 15)"><svg className="owidLog" width="210" height="120" viewBox="0 0 210 120" fill="none" xmlns="http://www.w3.org/2000/svg"><g clip-path="url(#a)"><path d="M0 0h210v107.89H0V0z" fill="#002147"/><path d="M40.98 32.25c0 2.36-.38 4.53-1.12 6.51a14.26 14.26 0 0 1-8.1 8.4c-1.9.78-4.02 1.17-6.34 1.17a16.6 16.6 0 0 1-6.33-1.17 14.31 14.31 0 0 1-8.08-8.4 18.29 18.29 0 0 1-1.12-6.51c0-2.36.38-4.53 1.12-6.5.75-1.97 1.8-3.67 3.17-5.1a14.32 14.32 0 0 1 4.9-3.34c1.92-.8 4.03-1.19 6.34-1.19 2.32 0 4.43.4 6.34 1.19 1.92.8 3.56 1.9 4.93 3.34a14.87 14.87 0 0 1 3.17 5.1 18.1 18.1 0 0 1 1.12 6.5zm-4.38 0c0-1.94-.26-3.68-.8-5.22a10.91 10.91 0 0 0-2.24-3.89 9.68 9.68 0 0 0-3.52-2.46 11.95 11.95 0 0 0-4.62-.86c-1.68 0-3.21.28-4.6.86a9.88 9.88 0 0 0-3.54 2.46 10.91 10.91 0 0 0-2.24 3.9c-.53 1.53-.8 3.27-.8 5.2 0 1.94.27 3.68.8 5.22a11.17 11.17 0 0 0 2.24 3.9 10.01 10.01 0 0 0 3.55 2.44c1.38.56 2.9.83 4.6.83s3.24-.27 4.61-.83a9.8 9.8 0 0 0 3.52-2.44 11.17 11.17 0 0 0 2.25-3.9c.53-1.54.8-3.28.8-5.21zm26.22-6.54V48H60.5c-.56 0-.9-.27-1.05-.81l-.31-2.4a12.45 12.45 0 0 1-3.26 2.6c-1.2.64-2.58.96-4.13.96-1.22 0-2.3-.2-3.24-.6a6.52 6.52 0 0 1-2.33-1.7 7.37 7.37 0 0 1-1.43-2.67c-.3-1.04-.46-2.2-.46-3.45V25.7h3.91v14.22c0 1.68.38 2.99 1.15 3.91.77.93 1.96 1.39 3.54 1.39 1.16 0 2.24-.27 3.23-.82a10.42 10.42 0 0 0 2.8-2.28V25.7h3.91zm8.61 4.47a9.94 9.94 0 0 1 2.6-3.56 5.64 5.64 0 0 1 3.76-1.3c.47 0 .92.05 1.34.15.44.1.83.27 1.17.49l-.3 2.92c-.09.37-.3.55-.66.55-.2 0-.5-.04-.9-.13a6.21 6.21 0 0 0-3.24.18 4.23 4.23 0 0 0-1.47.92c-.42.4-.81.9-1.17 1.5-.33.58-.64 1.26-.92 2.02V48H67.7V25.71h2.25c.42 0 .72.08.88.25.16.16.27.44.33.83l.26 3.39zm61.16-13.7L122.75 48h-3.82l-7.99-24.05a21.95 21.95 0 0 1-.42-1.58 38.36 38.36 0 0 1-.44 1.58L102.05 48h-3.83L88.4 16.47h3.54c.38 0 .7.1.95.29.26.2.43.43.5.73l6.52 21.9.28 1.28.29 1.46.3-1.46.38-1.27 7.41-21.91c.1-.25.26-.48.51-.69.27-.22.58-.33.95-.33h1.23c.38 0 .69.1.92.29a1.77 1.77 0 0 1 .53.73l7.4 21.9a28.4 28.4 0 0 1 .68 2.62 29.52 29.52 0 0 1 .52-2.61l6.54-21.91a1.31 1.31 0 0 1 .48-.7c.27-.21.58-.32.95-.32h3.32zm9.35 8.88c1.63 0 3.1.27 4.4.82a9.43 9.43 0 0 1 5.46 5.94c.5 1.4.74 2.98.74 4.73 0 1.76-.25 3.34-.74 4.75a9.43 9.43 0 0 1-5.46 5.92c-1.3.52-2.77.79-4.4.79-1.64 0-3.12-.27-4.44-.8a9.42 9.42 0 0 1-3.35-2.3c-.92-1-1.63-2.2-2.13-3.61-.49-1.41-.73-3-.73-4.75s.24-3.33.73-4.73c.5-1.43 1.2-2.64 2.13-3.63a9.4 9.4 0 0 1 3.35-2.31c1.32-.55 2.8-.82 4.44-.82zm0 19.89c2.2 0 3.84-.73 4.93-2.2 1.08-1.48 1.63-3.54 1.63-6.18 0-2.66-.55-4.72-1.63-6.2-1.09-1.49-2.73-2.23-4.93-2.23-1.12 0-2.09.2-2.93.57a5.71 5.71 0 0 0-2.06 1.65 7.5 7.5 0 0 0-1.24 2.67c-.26 1.04-.4 2.22-.4 3.54 0 2.64.55 4.7 1.64 6.18 1.1 1.47 2.76 2.2 4.99 2.2zm17.97-15.07a9.94 9.94 0 0 1 2.6-3.56 5.64 5.64 0 0 1 3.76-1.3c.47 0 .91.05 1.34.15.44.1.83.27 1.16.49l-.28 2.92c-.09.37-.31.55-.66.55-.2 0-.5-.04-.9-.13a6.2 6.2 0 0 0-3.24.18 4.23 4.23 0 0 0-1.47.92c-.43.4-.82.9-1.17 1.5a13.1 13.1 0 0 0-.92 2.02V48h-3.94V25.71h2.24c.43 0 .72.08.88.25.17.16.28.44.33.83l.27 3.39zm15.04-14.59V48h-3.92V15.6h3.92zm19.55 15.43a6.22 6.22 0 0 0-2.38-2.05 6.7 6.7 0 0 0-2.86-.6c-2.07 0-3.66.75-4.77 2.23-1.12 1.48-1.68 3.6-1.68 6.33 0 1.46.13 2.7.38 3.74a7.29 7.29 0 0 0 1.1 2.56 4.35 4.35 0 0 0 1.78 1.45c.7.3 1.5.46 2.4.46 1.29 0 2.41-.3 3.36-.88a9.6 9.6 0 0 0 2.67-2.49V31.02zm3.91-15.43V48h-2.33c-.56 0-.9-.27-1.06-.81l-.35-2.71a12.13 12.13 0 0 1-3.25 2.77 8.28 8.28 0 0 1-4.23 1.06 7.31 7.31 0 0 1-6.14-2.9c-.73-.96-1.3-2.15-1.69-3.57a18.35 18.35 0 0 1 .07-9.48 11.29 11.29 0 0 1 1.89-3.7 8.7 8.7 0 0 1 7.06-3.34 7.96 7.96 0 0 1 6.12 2.62V15.59h3.91zM46.61 70.71V93H42.7V70.71h3.91zm.84-7c0 .39-.08.75-.24 1.09a2.81 2.81 0 0 1-1.52 1.47 2.67 2.67 0 0 1-2.16 0 2.9 2.9 0 0 1-1.45-1.47 2.67 2.67 0 0 1 0-2.16c.15-.35.35-.65.6-.9.25-.27.53-.47.85-.62a2.67 2.67 0 0 1 2.16 0c.35.15.65.35.9.62.27.25.47.55.62.9.16.34.24.7.24 1.08zm7.97 10.24c.49-.54 1-1.04 1.54-1.48a9.85 9.85 0 0 1 3.66-1.84 8.96 8.96 0 0 1 5.43.35c.94.4 1.72.97 2.33 1.71a7.36 7.36 0 0 1 1.43 2.67c.32 1.04.49 2.19.49 3.45V93h-3.94V78.81c0-1.69-.4-3-1.17-3.92-.76-.93-1.93-1.4-3.5-1.4a6.6 6.6 0 0 0-3.25.83c-1 .56-1.92 1.31-2.77 2.27V93h-3.94V70.71h2.35c.56 0 .9.28 1.04.82l.3 2.42zm57.7 3.3c0 2.36-.37 4.5-1.11 6.44a14.3 14.3 0 0 1-3.17 4.98 14.1 14.1 0 0 1-4.93 3.2c-1.9.76-4.02 1.13-6.33 1.13H85.8V61.47h11.77c2.31 0 4.42.39 6.33 1.15a13.8 13.8 0 0 1 8.1 8.18 17.75 17.75 0 0 1 1.12 6.45zm-4.37 0c0-1.94-.26-3.67-.8-5.2a10.94 10.94 0 0 0-2.23-3.87 9.57 9.57 0 0 0-3.53-2.42 12.23 12.23 0 0 0-4.61-.83h-7.5v24.62h7.5c1.7 0 3.24-.28 4.61-.84a9.7 9.7 0 0 0 3.53-2.4 10.94 10.94 0 0 0 2.24-3.87c.53-1.53.8-3.26.8-5.2zm19.8 5.72c-1.8.06-3.34.2-4.62.44-1.26.22-2.3.51-3.1.88-.8.36-1.37.8-1.74 1.3-.35.5-.53 1.05-.53 1.67 0 .58.1 1.1.3 1.52a3 3 0 0 0 .76 1.05c.34.27.73.46 1.17.6a6.13 6.13 0 0 0 1.45.17 7.28 7.28 0 0 0 3.5-.81 11.95 11.95 0 0 0 2.82-2.2v-4.62zm-12.65-9.11a12.73 12.73 0 0 1 3.98-2.66c1.43-.59 3-.88 4.73-.88 1.25 0 2.36.2 3.33.61a6.81 6.81 0 0 1 3.94 4.38c.33 1.04.5 2.19.5 3.43V93h-1.74a1.8 1.8 0 0 1-.88-.18c-.2-.13-.36-.38-.48-.74l-.44-2.12-1.72 1.46a9.48 9.48 0 0 1-3.74 1.7c-.69.15-1.46.23-2.3.23-.87 0-1.69-.12-2.45-.35a5.34 5.34 0 0 1-3.34-2.93 6.64 6.64 0 0 1-.49-2.64c0-.88.25-1.72.73-2.53a6.33 6.33 0 0 1 2.35-2.17c1.09-.63 2.5-1.15 4.25-1.54 1.75-.41 3.89-.65 6.42-.7v-1.75c0-1.73-.37-3.03-1.12-3.91-.75-.9-1.84-1.34-3.28-1.34-.97 0-1.78.12-2.44.37-.64.23-1.2.5-1.7.81l-1.23.82c-.33.23-.67.35-1 .35-.27 0-.5-.07-.69-.2a2.1 2.1 0 0 1-.48-.53l-.7-1.25zm27.67 19.5c-1.76 0-3.12-.5-4.07-1.48-.94-.98-1.41-2.4-1.41-4.25V74h-2.68a.9.9 0 0 1-.6-.2c-.16-.14-.24-.36-.24-.66v-1.56l3.65-.46.9-6.89a.9.9 0 0 1 .29-.52.88.88 0 0 1 .62-.22H142v7.67h6.44V74H142v13.38c0 .94.22 1.63.68 2.09.45.45 1.04.68 1.76.68a3.21 3.21 0 0 0 1.85-.53l.55-.35c.16-.12.3-.18.41-.18.2 0 .4.13.55.38l1.15 1.87a7.45 7.45 0 0 1-2.44 1.5 8.53 8.53 0 0 1-2.95.52zm19.68-10.4c-1.8.07-3.34.21-4.62.45-1.26.22-2.3.51-3.1.88-.8.36-1.37.8-1.74 1.3-.35.5-.53 1.05-.53 1.67 0 .58.1 1.1.3 1.52a2.9 2.9 0 0 0 .76 1.05c.34.27.73.46 1.17.6a6.13 6.13 0 0 0 1.45.17 7.3 7.3 0 0 0 3.5-.81 12.04 12.04 0 0 0 2.82-2.2v-4.62zm-12.65-9.1a12.72 12.72 0 0 1 3.99-2.66c1.42-.59 3-.88 4.72-.88 1.25 0 2.36.2 3.33.61a6.81 6.81 0 0 1 3.94 4.38c.33 1.04.5 2.19.5 3.43V93h-1.74a1.8 1.8 0 0 1-.88-.18c-.2-.13-.36-.38-.48-.74l-.44-2.12-1.72 1.46a9.48 9.48 0 0 1-3.74 1.7c-.69.15-1.46.23-2.3.23-.87 0-1.69-.12-2.45-.35a5.33 5.33 0 0 1-3.34-2.93 6.62 6.62 0 0 1-.49-2.64c0-.88.25-1.72.73-2.53a6.33 6.33 0 0 1 2.35-2.17c1.09-.63 2.5-1.15 4.25-1.54a31.2 31.2 0 0 1 6.42-.7v-1.75c0-1.73-.37-3.03-1.12-3.91-.75-.9-1.84-1.34-3.28-1.34-.97 0-1.78.12-2.44.37-.64.23-1.2.5-1.7.81l-1.22.82c-.34.23-.68.35-1.02.35-.26 0-.49-.07-.68-.2a1.88 1.88 0 0 1-.48-.53l-.7-1.25zM40.98 32.25c0 2.36-.38 4.53-1.12 6.51a14.26 14.26 0 0 1-8.1 8.4c-1.9.78-4.02 1.17-6.34 1.17a16.6 16.6 0 0 1-6.33-1.17 14.31 14.31 0 0 1-8.08-8.4 18.29 18.29 0 0 1-1.12-6.51c0-2.36.38-4.53 1.12-6.5.75-1.97 1.8-3.67 3.17-5.1a14.32 14.32 0 0 1 4.9-3.34c1.92-.8 4.03-1.19 6.34-1.19 2.32 0 4.43.4 6.34 1.19 1.92.8 3.56 1.9 4.93 3.34a14.87 14.87 0 0 1 3.17 5.1 18.1 18.1 0 0 1 1.12 6.5zm-4.38 0c0-1.94-.26-3.68-.8-5.22a10.91 10.91 0 0 0-2.24-3.89 9.68 9.68 0 0 0-3.52-2.46 11.95 11.95 0 0 0-4.62-.86c-1.68 0-3.21.28-4.6.86a9.88 9.88 0 0 0-3.54 2.46 10.91 10.91 0 0 0-2.24 3.9c-.53 1.53-.8 3.27-.8 5.2 0 1.94.27 3.68.8 5.22a11.17 11.17 0 0 0 2.24 3.9 10.01 10.01 0 0 0 3.55 2.44c1.38.56 2.9.83 4.6.83s3.24-.27 4.61-.83a9.8 9.8 0 0 0 3.52-2.44 11.17 11.17 0 0 0 2.25-3.9c.53-1.54.8-3.28.8-5.21zm26.22-6.54V48H60.5c-.56 0-.9-.27-1.05-.81l-.31-2.4a12.45 12.45 0 0 1-3.26 2.6c-1.2.64-2.58.96-4.13.96-1.22 0-2.3-.2-3.24-.6a6.52 6.52 0 0 1-2.33-1.7 7.37 7.37 0 0 1-1.43-2.67c-.3-1.04-.46-2.2-.46-3.45V25.7h3.91v14.22c0 1.68.38 2.99 1.15 3.91.77.93 1.96 1.39 3.54 1.39 1.16 0 2.24-.27 3.23-.82a10.42 10.42 0 0 0 2.8-2.28V25.7h3.91zm8.61 4.47a9.94 9.94 0 0 1 2.6-3.56 5.64 5.64 0 0 1 3.76-1.3c.47 0 .92.05 1.34.15.44.1.83.27 1.17.49l-.3 2.92c-.09.37-.3.55-.66.55-.2 0-.5-.04-.9-.13a6.21 6.21 0 0 0-3.24.18 4.23 4.23 0 0 0-1.47.92c-.42.4-.81.9-1.17 1.5-.33.58-.64 1.26-.92 2.02V48H67.7V25.71h2.25c.42 0 .72.08.88.25.16.16.27.44.33.83l.26 3.39zm61.16-13.7L122.75 48h-3.82l-7.99-24.05a21.95 21.95 0 0 1-.42-1.58 38.36 38.36 0 0 1-.44 1.58L102.05 48h-3.83L88.4 16.47h3.54c.38 0 .7.1.95.29.26.2.43.43.5.73l6.52 21.9.28 1.28.29 1.46.3-1.46.38-1.27 7.41-21.91c.1-.25.26-.48.51-.69.27-.22.58-.33.95-.33h1.23c.38 0 .69.1.92.29a1.77 1.77 0 0 1 .53.73l7.4 21.9a28.4 28.4 0 0 1 .68 2.62 29.52 29.52 0 0 1 .52-2.61l6.54-21.91a1.31 1.31 0 0 1 .48-.7c.27-.21.58-.32.95-.32h3.32zm9.35 8.88c1.63 0 3.1.27 4.4.82a9.43 9.43 0 0 1 5.46 5.94c.5 1.4.74 2.98.74 4.73 0 1.76-.25 3.34-.74 4.75a9.43 9.43 0 0 1-5.46 5.92c-1.3.52-2.77.79-4.4.79-1.64 0-3.12-.27-4.44-.8a9.42 9.42 0 0 1-3.35-2.3c-.92-1-1.63-2.2-2.13-3.61-.49-1.41-.73-3-.73-4.75s.24-3.33.73-4.73c.5-1.43 1.2-2.64 2.13-3.63a9.4 9.4 0 0 1 3.35-2.31c1.32-.55 2.8-.82 4.44-.82zm0 19.89c2.2 0 3.84-.73 4.93-2.2 1.08-1.48 1.63-3.54 1.63-6.18 0-2.66-.55-4.72-1.63-6.2-1.09-1.49-2.73-2.23-4.93-2.23-1.12 0-2.09.2-2.93.57a5.71 5.71 0 0 0-2.06 1.65 7.5 7.5 0 0 0-1.24 2.67c-.26 1.04-.4 2.22-.4 3.54 0 2.64.55 4.7 1.64 6.18 1.1 1.47 2.76 2.2 4.99 2.2zm17.97-15.07a9.94 9.94 0 0 1 2.6-3.56 5.64 5.64 0 0 1 3.76-1.3c.47 0 .91.05 1.34.15.44.1.83.27 1.16.49l-.28 2.92c-.09.37-.31.55-.66.55-.2 0-.5-.04-.9-.13a6.2 6.2 0 0 0-3.24.18 4.23 4.23 0 0 0-1.47.92c-.43.4-.82.9-1.17 1.5a13.1 13.1 0 0 0-.92 2.02V48h-3.94V25.71h2.24c.43 0 .72.08.88.25.17.16.28.44.33.83l.27 3.39zm15.04-14.59V48h-3.92V15.6h3.92zm19.55 15.43a6.22 6.22 0 0 0-2.38-2.05 6.7 6.7 0 0 0-2.86-.6c-2.07 0-3.66.75-4.77 2.23-1.12 1.48-1.68 3.6-1.68 6.33 0 1.46.13 2.7.38 3.74a7.29 7.29 0 0 0 1.1 2.56 4.35 4.35 0 0 0 1.78 1.45c.7.3 1.5.46 2.4.46 1.29 0 2.41-.3 3.36-.88a9.6 9.6 0 0 0 2.67-2.49V31.02zm3.91-15.43V48h-2.33c-.56 0-.9-.27-1.06-.81l-.35-2.71a12.13 12.13 0 0 1-3.25 2.77 8.28 8.28 0 0 1-4.23 1.06 7.31 7.31 0 0 1-6.14-2.9c-.73-.96-1.3-2.15-1.69-3.57a18.35 18.35 0 0 1 .07-9.48 11.29 11.29 0 0 1 1.89-3.7 8.7 8.7 0 0 1 7.06-3.34 7.96 7.96 0 0 1 6.12 2.62V15.59h3.91zM46.61 70.71V93H42.7V70.71h3.91zm.84-7c0 .39-.08.75-.24 1.09a2.81 2.81 0 0 1-1.52 1.47 2.67 2.67 0 0 1-2.16 0 2.9 2.9 0 0 1-1.45-1.47 2.67 2.67 0 0 1 0-2.16c.15-.35.35-.65.6-.9.25-.27.53-.47.85-.62a2.67 2.67 0 0 1 2.16 0c.35.15.65.35.9.62.27.25.47.55.62.9.16.34.24.7.24 1.08zm7.97 10.24c.49-.54 1-1.04 1.54-1.48a9.85 9.85 0 0 1 3.66-1.84 8.96 8.96 0 0 1 5.43.35c.94.4 1.72.97 2.33 1.71a7.36 7.36 0 0 1 1.43 2.67c.32 1.04.49 2.19.49 3.45V93h-3.94V78.81c0-1.69-.4-3-1.17-3.92-.76-.93-1.93-1.4-3.5-1.4a6.6 6.6 0 0 0-3.25.83c-1 .56-1.92 1.31-2.77 2.27V93h-3.94V70.71h2.35c.56 0 .9.28 1.04.82l.3 2.42zm57.7 3.3c0 2.36-.37 4.5-1.11 6.44a14.3 14.3 0 0 1-3.17 4.98 14.1 14.1 0 0 1-4.93 3.2c-1.9.76-4.02 1.13-6.33 1.13H85.8V61.47h11.77c2.31 0 4.42.39 6.33 1.15a13.8 13.8 0 0 1 8.1 8.18 17.75 17.75 0 0 1 1.12 6.45zm-4.37 0c0-1.94-.26-3.67-.8-5.2a10.94 10.94 0 0 0-2.23-3.87 9.57 9.57 0 0 0-3.53-2.42 12.23 12.23 0 0 0-4.61-.83h-7.5v24.62h7.5c1.7 0 3.24-.28 4.61-.84a9.7 9.7 0 0 0 3.53-2.4 10.94 10.94 0 0 0 2.24-3.87c.53-1.53.8-3.26.8-5.2zm19.8 5.72c-1.8.06-3.34.2-4.62.44-1.26.22-2.3.51-3.1.88-.8.36-1.37.8-1.74 1.3-.35.5-.53 1.05-.53 1.67 0 .58.1 1.1.3 1.52a3 3 0 0 0 .76 1.05c.34.27.73.46 1.17.6a6.13 6.13 0 0 0 1.45.17 7.28 7.28 0 0 0 3.5-.81 11.95 11.95 0 0 0 2.82-2.2v-4.62zm-12.65-9.11a12.73 12.73 0 0 1 3.98-2.66c1.43-.59 3-.88 4.73-.88 1.25 0 2.36.2 3.33.61a6.81 6.81 0 0 1 3.94 4.38c.33 1.04.5 2.19.5 3.43V93h-1.74a1.8 1.8 0 0 1-.88-.18c-.2-.13-.36-.38-.48-.74l-.44-2.12-1.72 1.46a9.48 9.48 0 0 1-3.74 1.7c-.69.15-1.46.23-2.3.23-.87 0-1.69-.12-2.45-.35a5.34 5.34 0 0 1-3.34-2.93 6.64 6.64 0 0 1-.49-2.64c0-.88.25-1.72.73-2.53a6.33 6.33 0 0 1 2.35-2.17c1.09-.63 2.5-1.15 4.25-1.54 1.75-.41 3.89-.65 6.42-.7v-1.75c0-1.73-.37-3.03-1.12-3.91-.75-.9-1.84-1.34-3.28-1.34-.97 0-1.78.12-2.44.37-.64.23-1.2.5-1.7.81l-1.23.82c-.33.23-.67.35-1 .35-.27 0-.5-.07-.69-.2a2.1 2.1 0 0 1-.48-.53l-.7-1.25zm27.67 19.5c-1.76 0-3.12-.5-4.07-1.48-.94-.98-1.41-2.4-1.41-4.25V74h-2.68a.9.9 0 0 1-.6-.2c-.16-.14-.24-.36-.24-.66v-1.56l3.65-.46.9-6.89a.9.9 0 0 1 .29-.52.88.88 0 0 1 .62-.22H142v7.67h6.44V74H142v13.38c0 .94.22 1.63.68 2.09.45.45 1.04.68 1.76.68a3.21 3.21 0 0 0 1.85-.53l.55-.35c.16-.12.3-.18.41-.18.2 0 .4.13.55.38l1.15 1.87a7.45 7.45 0 0 1-2.44 1.5 8.53 8.53 0 0 1-2.95.52zm19.68-10.4c-1.8.07-3.34.21-4.62.45-1.26.22-2.3.51-3.1.88-.8.36-1.37.8-1.74 1.3-.35.5-.53 1.05-.53 1.67 0 .58.1 1.1.3 1.52a2.9 2.9 0 0 0 .76 1.05c.34.27.73.46 1.17.6a6.13 6.13 0 0 0 1.45.17 7.3 7.3 0 0 0 3.5-.81 12.04 12.04 0 0 0 2.82-2.2v-4.62zm-12.65-9.1a12.72 12.72 0 0 1 3.99-2.66c1.42-.59 3-.88 4.72-.88 1.25 0 2.36.2 3.33.61a6.81 6.81 0 0 1 3.94 4.38c.33 1.04.5 2.19.5 3.43V93h-1.74a1.8 1.8 0 0 1-.88-.18c-.2-.13-.36-.38-.48-.74l-.44-2.12-1.72 1.46a9.48 9.48 0 0 1-3.74 1.7c-.69.15-1.46.23-2.3.23-.87 0-1.69-.12-2.45-.35a5.33 5.33 0 0 1-3.34-2.93 6.62 6.62 0 0 1-.49-2.64c0-.88.25-1.72.73-2.53a6.33 6.33 0 0 1 2.35-2.17c1.09-.63 2.5-1.15 4.25-1.54a31.2 31.2 0 0 1 6.42-.7v-1.75c0-1.73-.37-3.03-1.12-3.91-.75-.9-1.84-1.34-3.28-1.34-.97 0-1.78.12-2.44.37-.64.23-1.2.5-1.7.81l-1.22.82c-.34.23-.68.35-1.02.35-.26 0-.49-.07-.68-.2a1.88 1.88 0 0 1-.48-.53l-.7-1.25zM40.98 32.25c0 2.36-.38 4.53-1.12 6.51a14.26 14.26 0 0 1-8.1 8.4c-1.9.78-4.02 1.17-6.34 1.17a16.6 16.6 0 0 1-6.33-1.17 14.31 14.31 0 0 1-8.08-8.4 18.29 18.29 0 0 1-1.12-6.51c0-2.36.38-4.53 1.12-6.5.75-1.97 1.8-3.67 3.17-5.1a14.32 14.32 0 0 1 4.9-3.34c1.92-.8 4.03-1.19 6.34-1.19 2.32 0 4.43.4 6.34 1.19 1.92.8 3.56 1.9 4.93 3.34a14.87 14.87 0 0 1 3.17 5.1 18.1 18.1 0 0 1 1.12 6.5zm-4.38 0c0-1.94-.26-3.68-.8-5.22a10.91 10.91 0 0 0-2.24-3.89 9.68 9.68 0 0 0-3.52-2.46 11.95 11.95 0 0 0-4.62-.86c-1.68 0-3.21.28-4.6.86a9.88 9.88 0 0 0-3.54 2.46 10.91 10.91 0 0 0-2.24 3.9c-.53 1.53-.8 3.27-.8 5.2 0 1.94.27 3.68.8 5.22a11.17 11.17 0 0 0 2.24 3.9 10.01 10.01 0 0 0 3.55 2.44c1.38.56 2.9.83 4.6.83s3.24-.27 4.61-.83a9.8 9.8 0 0 0 3.52-2.44 11.17 11.17 0 0 0 2.25-3.9c.53-1.54.8-3.28.8-5.21zm26.22-6.54V48H60.5c-.56 0-.9-.27-1.05-.81l-.31-2.4a12.45 12.45 0 0 1-3.26 2.6c-1.2.64-2.58.96-4.13.96-1.22 0-2.3-.2-3.24-.6a6.52 6.52 0 0 1-2.33-1.7 7.37 7.37 0 0 1-1.43-2.67c-.3-1.04-.46-2.2-.46-3.45V25.7h3.91v14.22c0 1.68.38 2.99 1.15 3.91.77.93 1.96 1.39 3.54 1.39 1.16 0 2.24-.27 3.23-.82a10.42 10.42 0 0 0 2.8-2.28V25.7h3.91zm8.61 4.47a9.94 9.94 0 0 1 2.6-3.56 5.64 5.64 0 0 1 3.76-1.3c.47 0 .92.05 1.34.15.44.1.83.27 1.17.49l-.3 2.92c-.09.37-.3.55-.66.55-.2 0-.5-.04-.9-.13a6.21 6.21 0 0 0-3.24.18 4.23 4.23 0 0 0-1.47.92c-.42.4-.81.9-1.17 1.5-.33.58-.64 1.26-.92 2.02V48H67.7V25.71h2.25c.42 0 .72.08.88.25.16.16.27.44.33.83l.26 3.39zm61.16-13.7L122.75 48h-3.82l-7.99-24.05a21.95 21.95 0 0 1-.42-1.58 38.36 38.36 0 0 1-.44 1.58L102.05 48h-3.83L88.4 16.47h3.54c.38 0 .7.1.95.29.26.2.43.43.5.73l6.52 21.9.28 1.28.29 1.46.3-1.46.38-1.27 7.41-21.91c.1-.25.26-.48.51-.69.27-.22.58-.33.95-.33h1.23c.38 0 .69.1.92.29a1.77 1.77 0 0 1 .53.73l7.4 21.9a28.4 28.4 0 0 1 .68 2.62 29.52 29.52 0 0 1 .52-2.61l6.54-21.91a1.31 1.31 0 0 1 .48-.7c.27-.21.58-.32.95-.32h3.32zm9.35 8.88c1.63 0 3.1.27 4.4.82a9.43 9.43 0 0 1 5.46 5.94c.5 1.4.74 2.98.74 4.73 0 1.76-.25 3.34-.74 4.75a9.43 9.43 0 0 1-5.46 5.92c-1.3.52-2.77.79-4.4.79-1.64 0-3.12-.27-4.44-.8a9.42 9.42 0 0 1-3.35-2.3c-.92-1-1.63-2.2-2.13-3.61-.49-1.41-.73-3-.73-4.75s.24-3.33.73-4.73c.5-1.43 1.2-2.64 2.13-3.63a9.4 9.4 0 0 1 3.35-2.31c1.32-.55 2.8-.82 4.44-.82zm0 19.89c2.2 0 3.84-.73 4.93-2.2 1.08-1.48 1.63-3.54 1.63-6.18 0-2.66-.55-4.72-1.63-6.2-1.09-1.49-2.73-2.23-4.93-2.23-1.12 0-2.09.2-2.93.57a5.71 5.71 0 0 0-2.06 1.65 7.5 7.5 0 0 0-1.24 2.67c-.26 1.04-.4 2.22-.4 3.54 0 2.64.55 4.7 1.64 6.18 1.1 1.47 2.76 2.2 4.99 2.2zm17.97-15.07a9.94 9.94 0 0 1 2.6-3.56 5.64 5.64 0 0 1 3.76-1.3c.47 0 .91.05 1.34.15.44.1.83.27 1.16.49l-.28 2.92c-.09.37-.31.55-.66.55-.2 0-.5-.04-.9-.13a6.2 6.2 0 0 0-3.24.18 4.23 4.23 0 0 0-1.47.92c-.43.4-.82.9-1.17 1.5a13.1 13.1 0 0 0-.92 2.02V48h-3.94V25.71h2.24c.43 0 .72.08.88.25.17.16.28.44.33.83l.27 3.39zm15.04-14.59V48h-3.92V15.6h3.92zm19.55 15.43a6.22 6.22 0 0 0-2.38-2.05 6.7 6.7 0 0 0-2.86-.6c-2.07 0-3.66.75-4.77 2.23-1.12 1.48-1.68 3.6-1.68 6.33 0 1.46.13 2.7.38 3.74a7.29 7.29 0 0 0 1.1 2.56 4.35 4.35 0 0 0 1.78 1.45c.7.3 1.5.46 2.4.46 1.29 0 2.41-.3 3.36-.88a9.6 9.6 0 0 0 2.67-2.49V31.02zm3.91-15.43V48h-2.33c-.56 0-.9-.27-1.06-.81l-.35-2.71a12.13 12.13 0 0 1-3.25 2.77 8.28 8.28 0 0 1-4.23 1.06 7.31 7.31 0 0 1-6.14-2.9c-.73-.96-1.3-2.15-1.69-3.57a18.35 18.35 0 0 1 .07-9.48 11.29 11.29 0 0 1 1.89-3.7 8.7 8.7 0 0 1 7.06-3.34 7.96 7.96 0 0 1 6.12 2.62V15.59h3.91zM46.61 70.71V93H42.7V70.71h3.91zm.84-7c0 .39-.08.75-.24 1.09a2.81 2.81 0 0 1-1.52 1.47 2.67 2.67 0 0 1-2.16 0 2.9 2.9 0 0 1-1.45-1.47 2.67 2.67 0 0 1 0-2.16c.15-.35.35-.65.6-.9.25-.27.53-.47.85-.62a2.67 2.67 0 0 1 2.16 0c.35.15.65.35.9.62.27.25.47.55.62.9.16.34.24.7.24 1.08zm7.97 10.24c.49-.54 1-1.04 1.54-1.48a9.85 9.85 0 0 1 3.66-1.84 8.96 8.96 0 0 1 5.43.35c.94.4 1.72.97 2.33 1.71a7.36 7.36 0 0 1 1.43 2.67c.32 1.04.49 2.19.49 3.45V93h-3.94V78.81c0-1.69-.4-3-1.17-3.92-.76-.93-1.93-1.4-3.5-1.4a6.6 6.6 0 0 0-3.25.83c-1 .56-1.92 1.31-2.77 2.27V93h-3.94V70.71h2.35c.56 0 .9.28 1.04.82l.3 2.42zm57.7 3.3c0 2.36-.37 4.5-1.11 6.44a14.3 14.3 0 0 1-3.17 4.98 14.1 14.1 0 0 1-4.93 3.2c-1.9.76-4.02 1.13-6.33 1.13H85.8V61.47h11.77c2.31 0 4.42.39 6.33 1.15a13.8 13.8 0 0 1 8.1 8.18 17.75 17.75 0 0 1 1.12 6.45zm-4.37 0c0-1.94-.26-3.67-.8-5.2a10.94 10.94 0 0 0-2.23-3.87 9.57 9.57 0 0 0-3.53-2.42 12.23 12.23 0 0 0-4.61-.83h-7.5v24.62h7.5c1.7 0 3.24-.28 4.61-.84a9.7 9.7 0 0 0 3.53-2.4 10.94 10.94 0 0 0 2.24-3.87c.53-1.53.8-3.26.8-5.2zm19.8 5.72c-1.8.06-3.34.2-4.62.44-1.26.22-2.3.51-3.1.88-.8.36-1.37.8-1.74 1.3-.35.5-.53 1.05-.53 1.67 0 .58.1 1.1.3 1.52a3 3 0 0 0 .76 1.05c.34.27.73.46 1.17.6a6.13 6.13 0 0 0 1.45.17 7.28 7.28 0 0 0 3.5-.81 11.95 11.95 0 0 0 2.82-2.2v-4.62zm-12.65-9.11a12.73 12.73 0 0 1 3.98-2.66c1.43-.59 3-.88 4.73-.88 1.25 0 2.36.2 3.33.61a6.81 6.81 0 0 1 3.94 4.38c.33 1.04.5 2.19.5 3.43V93h-1.74a1.8 1.8 0 0 1-.88-.18c-.2-.13-.36-.38-.48-.74l-.44-2.12-1.72 1.46a9.48 9.48 0 0 1-3.74 1.7c-.69.15-1.46.23-2.3.23-.87 0-1.69-.12-2.45-.35a5.34 5.34 0 0 1-3.34-2.93 6.64 6.64 0 0 1-.49-2.64c0-.88.25-1.72.73-2.53a6.33 6.33 0 0 1 2.35-2.17c1.09-.63 2.5-1.15 4.25-1.54 1.75-.41 3.89-.65 6.42-.7v-1.75c0-1.73-.37-3.03-1.12-3.91-.75-.9-1.84-1.34-3.28-1.34-.97 0-1.78.12-2.44.37-.64.23-1.2.5-1.7.81l-1.23.82c-.33.23-.67.35-1 .35-.27 0-.5-.07-.69-.2a2.1 2.1 0 0 1-.48-.53l-.7-1.25zm27.67 19.5c-1.76 0-3.12-.5-4.07-1.48-.94-.98-1.41-2.4-1.41-4.25V74h-2.68a.9.9 0 0 1-.6-.2c-.16-.14-.24-.36-.24-.66v-1.56l3.65-.46.9-6.89a.9.9 0 0 1 .29-.52.88.88 0 0 1 .62-.22H142v7.67h6.44V74H142v13.38c0 .94.22 1.63.68 2.09.45.45 1.04.68 1.76.68a3.21 3.21 0 0 0 1.85-.53l.55-.35c.16-.12.3-.18.41-.18.2 0 .4.13.55.38l1.15 1.87a7.45 7.45 0 0 1-2.44 1.5 8.53 8.53 0 0 1-2.95.52zm19.68-10.4c-1.8.07-3.34.21-4.62.45-1.26.22-2.3.51-3.1.88-.8.36-1.37.8-1.74 1.3-.35.5-.53 1.05-.53 1.67 0 .58.1 1.1.3 1.52a2.9 2.9 0 0 0 .76 1.05c.34.27.73.46 1.17.6a6.13 6.13 0 0 0 1.45.17 7.3 7.3 0 0 0 3.5-.81 12.04 12.04 0 0 0 2.82-2.2v-4.62zm-12.65-9.1a12.72 12.72 0 0 1 3.99-2.66c1.42-.59 3-.88 4.72-.88 1.25 0 2.36.2 3.33.61a6.81 6.81 0 0 1 3.94 4.38c.33 1.04.5 2.19.5 3.43V93h-1.74a1.8 1.8 0 0 1-.88-.18c-.2-.13-.36-.38-.48-.74l-.44-2.12-1.72 1.46a9.48 9.48 0 0 1-3.74 1.7c-.69.15-1.46.23-2.3.23-.87 0-1.69-.12-2.45-.35a5.33 5.33 0 0 1-3.34-2.93 6.62 6.62 0 0 1-.49-2.64c0-.88.25-1.72.73-2.53a6.33 6.33 0 0 1 2.35-2.17c1.09-.63 2.5-1.15 4.25-1.54a31.2 31.2 0 0 1 6.42-.7v-1.75c0-1.73-.37-3.03-1.12-3.91-.75-.9-1.84-1.34-3.28-1.34-.97 0-1.78.12-2.44.37-.64.23-1.2.5-1.7.81l-1.22.82c-.34.23-.68.35-1.02.35-.26 0-.49-.07-.68-.2a1.88 1.88 0 0 1-.48-.53l-.7-1.25z" fill="#fff"/><path fill="#D42B21" d="M0 106.79h210V120H0z"/></g><defs><clipPath id="a"><path fill="#fff" d="M0 0h210v120H0z"/></clipPath></defs></svg></g><a href="https://ourworldindata.org/grapher/share-living-on-less-than-190-marimekko" style="font-family:&quot;Playfair Display&quot;,Georgia,&quot;Times New Roman&quot;,serif" target="_blank" rel="noopener"><text font-size="25.2" x="15" y="36.9" fill="#555"><tspan x="15" y="36.92">Share of population living in extreme poverty, 2019</tspan></text></a><text x="15" y="58.2" style="font-size:14.4px;line-height:1.2" fill="#666"><tspan x="15" y="58.2">Extreme poverty is defined as living below the International Poverty Line of $1.90 per day. This data is adjusted for</tspan><tspan x="15" y="75.4">inflation and for differences in the cost of living between countries.</tspan></text></g><g class="MarimekkoChart"><g class="DualAxisView"><g class="HorizontalAxis"><text font-size="12.6" x="390.1" y="137.2"><tspan x="390.07" y="137.22">Population</tspan></text><path stroke="#999" d="M75.2 165.06v5M171.7 165.06v5M268.3 165.06v5M364.9 165.06v5M461.4 165.06v5M558 165.06v5M654.5 165.06v5M751.1 165.06v5"/><text x="75.16" y="158.86" fill="#666" text-anchor="start" font-size="16.2">0</text><text x="171.7" y="158.86" fill="#666" text-anchor="middle" font-size="16.2">1 billion</text><text x="268.3" y="158.86" fill="#666" text-anchor="middle" font-size="16.2">2 billion</text><text x="364.9" y="158.86" fill="#666" text-anchor="middle" font-size="16.2">3 billion</text><text x="461.4" y="158.86" fill="#666" text-anchor="middle" font-size="16.2">4 billion</text><text x="558" y="158.86" fill="#666" text-anchor="middle" font-size="16.2">5 billion</text><text x="654.5" y="158.86" fill="#666" text-anchor="middle" font-size="16.2">6 billion</text><text x="751.1" y="158.86" fill="#666" text-anchor="middle" font-size="16.2">7 billion</text></g><g class="VerticalAxis"><text font-size="12.6" x="-398.3" y="26" transform="rotate(-90)"><tspan x="-398.34" y="25.96">Share living on less than $1.90 per day</tspan></text><text x="70.16" y="451.6" dy=".32em" text-anchor="end" fill="#666" font-size="16.2">0%</text><text x="70.16" y="414.8" dy=".32em" text-anchor="end" fill="#666" font-size="16.2">10%</text><text x="70.16" y="378" dy=".32em" text-anchor="end" fill="#666" font-size="16.2">20%</text><text x="70.16" y="341.2" dy=".32em" text-anchor="end" fill="#666" font-size="16.2">30%</text><text x="70.16" y="304.4" dy=".32em" text-anchor="end" fill="#666" font-size="16.2">40%</text><text x="70.16" y="267.6" dy=".32em" text-anchor="end" fill="#666" font-size="16.2">50%</text><text x="70.16" y="230.8" dy=".32em" text-anchor="end" fill="#666" font-size="16.2">60%</text><text x="70.16" y="194" dy=".32em" text-anchor="end" fill="#666" font-size="16.2">70%</text></g><g class="AxisGridLines horizontalLines"><path stroke="#999" d="M75.16 451.6H825"/><path stroke="#ddd" stroke-dasharray="3,2" d="M75.16 414.8H825M75.16 378H825M75.16 341.2H825M75.16 304.4H825M75.16 267.6H825M75.16 230.8H825M75.16 194H825"/></g><g class="AxisGridLines verticalLines"><path stroke="#999" d="M75.2 451.56v-281.5"/><path stroke="#ddd" stroke-dasharray="3,2" d="M171.7 451.56v-281.5M268.3 451.56v-281.5M364.9 451.56v-281.5M461.4 451.56v-281.5M558 451.56v-281.5M654.5 451.56v-281.5M751.1 451.56v-281.5"/></g></g><g><g class="categoricalColorLegend"><g><path fill="#A2559C" opacity=".7" d="M15 94.76h13.5v13.5H15z"/>,<text x="33.5" y="101.51" dy=".32em" font-size="14.4">Africa</text></g><g><path fill="#38AABA" opacity=".7" d="M82.36 94.76h13.5v13.5h-13.5z"/>,<text x="100.86" y="101.51" dy=".32em" font-size="14.4">Antarctica</text></g><g><path fill="#00847E" opacity=".7" d="M177.09 94.76h13.5v13.5h-13.5z"/>,<text x="195.59" y="101.51" dy=".32em" font-size="14.4">Asia</text></g><g><path fill="#4C6A9C" opacity=".7" d="M235.67 94.76h13.5v13.5h-13.5z"/>,<text x="254.17" y="101.51" dy=".32em" font-size="14.4">Europe</text></g><g><path fill="#E56E5A" opacity=".7" d="M312.82 94.76h13.5v13.5h-13.5z"/>,<text x="331.32" y="101.51" dy=".32em" font-size="14.4">North America</text></g><g><path fill="#9A5129" opacity=".7" d="M435.48 94.76h13.5v13.5h-13.5z"/>,<text x="453.98" y="101.51" dy=".32em" font-size="14.4">Oceania</text></g><g><path fill="#883039" opacity=".7" d="M519.84 94.76h13.5v13.5h-13.5z"/>,<text x="538.34" y="101.51" dy=".32em" font-size="14.4">South America</text></g></g></g><path fill="url(#b)" opacity=".5" d="M742.9 425.6h74.4v26h-74.4z"/><g class="bar"><g><path transform="translate(75.2 170.1)" fill="#A2559C" fill-opacity=".7" stroke="#A2559C" stroke-width=".5" stroke-opacity="1" opacity="1" style="transition:translate 200ms ease" d="M0 0h1v281.5H0z"/></g></g><g class="bar"><g><path transform="translate(76.2 181)" fill="#A2559C" fill-opacity=".7" stroke="#A2559C" stroke-width=".5" stroke-opacity="1" opacity="1" style="transition:translate 200ms ease" d="M0 0h1.8v270.6H0z"/></g></g><g class="bar"><g><path transform="translate(78 199.1)" fill="#A2559C" fill-opacity=".7" stroke="#A2559C" stroke-width=".5" stroke-opacity="1" opacity="1" style="transition:translate 200ms ease" d="M0 0h1.5v252.5H0z"/></g></g><g class="bar"><g><path transform="translate(79.5 217.2)" fill="#A2559C" fill-opacity=".7" stroke="#A2559C" stroke-width=".5" stroke-opacity="1" opacity="1" style="transition:translate 200ms ease" d="M0 0h2.9v234.4H0z"/></g></g><g class="bar"><g><path transform="translate(82.4 235.4)" fill="#A2559C" fill-opacity=".7" stroke="#A2559C" stroke-width=".5" stroke-opacity="1" opacity="1" style="transition:translate 200ms ease" d="M0 0h1.7v216.2H0z"/></g></g><g class="bar"><g><path transform="translate(84.1 243.6)" fill="#A2559C" fill-opacity=".7" stroke="#A2559C" stroke-width=".5" stroke-opacity="1" opacity="1" style="transition:translate 200ms ease" d="M0 0h1.2v208H0z"/></g></g><g class="bar"><g><path transform="translate(85.3 267.9)" fill="#A2559C" fill-opacity=".7" stroke="#A2559C" stroke-width=".5" stroke-opacity="1" opacity="1" style="transition:translate 200ms ease" d="M0 0h3.1v183.7H0z"/></g></g><g class="bar"><g><path transform="translate(88.4 269.9)" fill="#A2559C" fill-opacity=".7" stroke="#A2559C" stroke-width=".5" stroke-opacity="1" opacity="1" style="transition:translate 200ms ease" d="M0 0h5.7v181.7H0z"/></g></g><g class="bar"><g><path transform="translate(94.1 288.1)" fill="#A2559C" fill-opacity=".7" stroke="#A2559C" stroke-width=".5" stroke-opacity="1" opacity="1" style="transition:translate 200ms ease" d="M0 0h.4v163.5H0z"/></g></g><g class="bar"><g><path transform="translate(94.5 293.4)" fill="#A2559C" fill-opacity=".7" stroke="#A2559C" stroke-width=".5" stroke-opacity="1" opacity="1" style="transition:translate 200ms ease" d="M0 0h.7v158.2H0z"/></g></g><g class="bar"><g><path transform="translate(95.2 299.4)" fill="#A2559C" fill-opacity=".7" stroke="#A2559C" stroke-width=".5" stroke-opacity="1" opacity="1" style="transition:translate 200ms ease" d="M0 0h2.2v152.2H0z"/></g></g><g class="bar"><g><path transform="translate(97.4 300.7)" fill="#A2559C" fill-opacity=".7" stroke="#A2559C" stroke-width=".5" stroke-opacity="1" opacity="1" style="transition:translate 200ms ease" d="M0 0h4.1v150.9H0z"/></g></g><g class="bar"><g><path transform="translate(101.5 306.1)" fill="#A2559C" fill-opacity=".7" stroke="#A2559C" stroke-width=".5" stroke-opacity="1" opacity="1" style="transition:translate 200ms ease" d="M0 0h1.4v145.5H0z"/></g></g><g class="bar"><g><path transform="translate(102.9 307.7)" fill="#A2559C" fill-opacity=".7" stroke="#A2559C" stroke-width=".5" stroke-opacity="1" opacity="1" style="transition:translate 200ms ease" d="M0 0h19.6v143.9H0z"/></g></g><g class="bar"><g><path transform="translate(122.5 315.1)" fill="#A2559C" fill-opacity=".7" stroke="#A2559C" stroke-width=".5" stroke-opacity="1" opacity="1" style="transition:translate 200ms ease" d="M0 0h4.9v136.5H0z"/></g></g><g class="bar"><g><path transform="translate(127.4 327.7)" fill="#A2559C" fill-opacity=".7" stroke="#A2559C" stroke-width=".5" stroke-opacity="1" opacity="1" style="transition:translate 200ms ease" d="M0 0h2v123.9H0z"/></g></g><g class="bar"><g><path transform="translate(129.4 329.4)" fill="#A2559C" fill-opacity=".7" stroke="#A2559C" stroke-width=".5" stroke-opacity="1" opacity="1" style="transition:translate 200ms ease" d="M0 0h1.5v122.2H0z"/></g></g><g class="bar"><g><path transform="translate(130.9 338.2)" fill="#A2559C" fill-opacity=".7" stroke="#A2559C" stroke-width=".5" stroke-opacity="1" opacity="1" style="transition:translate 200ms ease" d="M0 0h11v113.4H0z"/></g></g><g class="bar"><g><path transform="translate(141.9 344.2)" fill="#A2559C" fill-opacity=".7" stroke="#A2559C" stroke-width=".5" stroke-opacity="1" opacity="1" style="transition:translate 200ms ease" d="M0 0h.1v107.4H0z"/></g></g><g class="bar"><g><path transform="translate(142 351.4)" fill="#A2559C" fill-opacity=".7" stroke="#A2559C" stroke-width=".5" stroke-opacity="1" opacity="1" style="transition:translate 200ms ease" d="M0 0h.2v100.2H0z"/></g></g><g class="bar"><g><path transform="translate(142.2 356)" fill="#A2559C" fill-opacity=".7" stroke="#A2559C" stroke-width=".5" stroke-opacity="1" opacity="1" style="transition:translate 200ms ease" d="M0 0h2.5v95.6H0z"/></g></g><g class="bar"><g><path transform="translate(144.7 360.8)" fill="#A2559C" fill-opacity=".7" stroke="#A2559C" stroke-width=".5" stroke-opacity="1" opacity="1" style="transition:translate 200ms ease" d="M0 0h.2v90.8H0z"/></g></g><g class="bar"><g><path transform="translate(144.9 363)" fill="#A2559C" fill-opacity=".7" stroke="#A2559C" stroke-width=".5" stroke-opacity="1" opacity="1" style="transition:translate 200ms ease" d="M0 0h.8v88.6H0z"/></g></g><g class="bar"><g><path transform="translate(145.7 366.2)" fill="#A2559C" fill-opacity=".7" stroke="#A2559C" stroke-width=".5" stroke-opacity="1" opacity="1" style="transition:translate 200ms ease" d="M0 0h1.2v85.4H0z"/></g></g><g class="bar"><g><path transform="translate(146.9 370.8)" fill="#00847E" fill-opacity=".7" stroke="#00847E" stroke-width=".5" stroke-opacity="1" opacity="1" style="transition:translate 200ms ease" d="M0 0h.1v80.8H0z"/></g></g><g class="bar"><g><path transform="translate(147 381)" fill="#A2559C" fill-opacity=".7" stroke="#A2559C" stroke-width=".5" stroke-opacity="1" opacity="1" style="transition:translate 200ms ease" d="M0 0h1.1v70.6H0z"/></g></g><g class="bar"><g><path transform="translate(148.1 382.8)" fill="#A2559C" fill-opacity=".7" stroke="#A2559C" stroke-width=".5" stroke-opacity="1" opacity="1" style="transition:translate 200ms ease" d="M0 0h5.6v68.8H0z"/></g></g><g class="bar"><g><path transform="translate(153.7 384.3)" fill="#00847E" fill-opacity=".7" stroke="#00847E" stroke-width=".5" stroke-opacity="1" opacity="1" style="transition:translate 200ms ease" d="M0 0h3v67.3H0z"/></g></g><g class="bar"><g><path transform="translate(156.7 389)" fill="#A2559C" fill-opacity=".7" stroke="#A2559C" stroke-width=".5" stroke-opacity="1" opacity="1" style="transition:translate 200ms ease" d="M0 0h.1v62.6H0z"/></g></g><g class="bar"><g><path transform="translate(156.8 391.5)" fill="#A2559C" fill-opacity=".7" stroke="#A2559C" stroke-width=".5" stroke-opacity="1" opacity="1" style="transition:translate 200ms ease" d="M0 0h1.9v60.1H0z"/></g></g><g class="bar"><g><path transform="translate(158.7 397.2)" fill="#E56E5A" fill-opacity=".7" stroke="#E56E5A" stroke-width=".5" stroke-opacity="1" opacity="1" style="transition:translate 200ms ease" d="M0 0h.9v54.4H0z"/></g></g><g class="bar"><g><path transform="translate(159.6 398.2)" fill="#A2559C" fill-opacity=".7" stroke="#A2559C" stroke-width=".5" stroke-opacity="1" opacity="1" style="transition:translate 200ms ease" d="M0 0h.2v53.4H0z"/></g></g><g class="bar"><g><path transform="translate(159.8 398.8)" fill="#00847E" fill-opacity=".7" stroke="#00847E" stroke-width=".5" stroke-opacity="1" opacity="1" style="transition:translate 200ms ease" d="M0 0h15.9v52.8H0z"/></g></g><g class="bar"><g><path transform="translate(175.7 400.8)" fill="#A2559C" fill-opacity=".7" stroke="#A2559C" stroke-width=".5" stroke-opacity="1" opacity="1" style="transition:translate 200ms ease" d="M0 0h.2v50.8H0z"/></g></g><g class="bar"><g><path transform="translate(175.9 405)" fill="#A2559C" fill-opacity=".7" stroke="#A2559C" stroke-width=".5" stroke-opacity="1" opacity="1" style="transition:translate 200ms ease" d="M0 0h3v46.6H0z"/></g></g><g class="bar"><g><path transform="translate(178.9 406.8)" fill="#A2559C" fill-opacity=".7" stroke="#A2559C" stroke-width=".5" stroke-opacity="1" opacity="1" style="transition:translate 200ms ease" d="M0 0h4.1v44.8H0z"/></g></g><g class="bar"><g><path transform="translate(183 413.7)" fill="#A2559C" fill-opacity=".7" stroke="#A2559C" stroke-width=".5" stroke-opacity="1" opacity="1" style="transition:translate 200ms ease" d="M0 0h.2v37.9H0z"/></g></g><g class="bar"><g><path transform="translate(183.2 414.8)" fill="#00847E" fill-opacity=".7" stroke="#00847E" stroke-width=".5" stroke-opacity="1" opacity="1" style="transition:translate 200ms ease" d="M0 0h133.5v36.8H0z"/></g></g><g class="bar"><g><path transform="translate(316.7 414.8)" fill="#00847E" fill-opacity=".7" stroke="#00847E" stroke-width=".5" stroke-opacity="1" opacity="1" style="transition:translate 200ms ease" d="M0 0h.7v36.8H0z"/></g></g><g class="bar"><g><path transform="translate(317.4 417.8)" fill="#A2559C" fill-opacity=".7" stroke="#A2559C" stroke-width=".5" stroke-opacity="1" opacity="1" style="transition:translate 200ms ease" d="M0 0h2.5v33.8H0z"/></g></g><g class="bar"><g><path transform="translate(319.9 419.3)" fill="#E56E5A" fill-opacity=".7" stroke="#E56E5A" stroke-width=".5" stroke-opacity="1" opacity="1" style="transition:translate 200ms ease" d="M0 0h1.6v32.3H0z"/></g></g><g class="bar"><g><path transform="translate(321.5 423.6)" fill="#A2559C" fill-opacity=".7" stroke="#A2559C" stroke-width=".5" stroke-opacity="1" opacity="1" style="transition:translate 200ms ease" d="M0 0h1.5v28H0z"/></g></g><g class="bar"><g><path transform="translate(323 429.6)" fill="#A2559C" fill-opacity=".7" stroke="#A2559C" stroke-width=".5" stroke-opacity="1" opacity="1" style="transition:translate 200ms ease" d="M0 0h.4v22H0z"/></g></g><g class="bar"><g><path transform="translate(323.4 433.4)" fill="#883039" fill-opacity=".7" stroke="#883039" stroke-width=".5" stroke-opacity="1" opacity="1" style="transition:translate 200ms ease" d="M0 0h4.8v18.2H0z"/></g></g><g class="bar"><g><path transform="translate(328.2 433.7)" fill="#883039" fill-opacity=".7" stroke="#883039" stroke-width=".5" stroke-opacity="1" opacity="1" style="transition:translate 200ms ease" d="M0 0h20.4v17.9H0z"/></g></g><g class="bar"><g><path transform="translate(348.6 434.4)" fill="#00847E" fill-opacity=".7" stroke="#00847E" stroke-width=".5" stroke-opacity="1" opacity="1" style="transition:translate 200ms ease" d="M0 0h10.6v17.2H0z"/></g></g><g class="bar"><g><path transform="translate(359.2 436.4)" fill="#00847E" fill-opacity=".7" stroke="#00847E" stroke-width=".5" stroke-opacity="1" opacity="1" style="transition:translate 200ms ease" d="M0 0h.9v15.2H0z"/></g></g><g class="bar"><g><path transform="translate(360.1 437.6)" fill="#A2559C" fill-opacity=".7" stroke="#A2559C" stroke-width=".5" stroke-opacity="1" opacity="1" style="transition:translate 200ms ease" d="M0 0h10.2v14H0z"/></g></g><g class="bar"><g><path transform="translate(370.3 437.6)" fill="#00847E" fill-opacity=".7" stroke="#00847E" stroke-width=".5" stroke-opacity="1" opacity="1" style="transition:translate 200ms ease" d="M0 0h.3v14H0z"/></g></g><g class="bar"><g><path transform="translate(370.6 438.4)" fill="#00847E" fill-opacity=".7" stroke="#00847E" stroke-width=".5" stroke-opacity="1" opacity="1" style="transition:translate 200ms ease" d="M0 0h21.5v13.2H0z"/></g></g><g class="bar"><g><path transform="translate(392.1 438.4)" fill="#883039" fill-opacity=".7" stroke="#883039" stroke-width=".5" stroke-opacity="1" opacity="1" style="transition:translate 200ms ease" d="M0 0h1.6v13.2H0z"/></g></g><g class="bar"><g><path transform="translate(393.7 439)" fill="#E56E5A" fill-opacity=".7" stroke="#E56E5A" stroke-width=".5" stroke-opacity="1" opacity="1" style="transition:translate 200ms ease" d="M0 0h.6v12.6H0z"/></g></g><g class="bar"><g><path transform="translate(394.3 439.1)" fill="#4C6A9C" fill-opacity=".7" stroke="#4C6A9C" stroke-width=".5" stroke-opacity="1" opacity="1" style="transition:translate 200ms ease" d="M0 0h.2v12.5H0z"/></g></g><g class="bar"><g><path transform="translate(394.5 439.1)" fill="#A2559C" fill-opacity=".7" stroke="#A2559C" stroke-width=".5" stroke-opacity="1" opacity="1" style="transition:translate 200ms ease" d="M0 0h.2v12.5H0z"/></g></g><g class="bar"><g><path transform="translate(394.7 439.6)" fill="#883039" fill-opacity=".7" stroke="#883039" stroke-width=".5" stroke-opacity="1" opacity="1" style="transition:translate 200ms ease" d="M0 0h1.1v12H0z"/></g></g><g class="bar"><g><path transform="translate(395.8 440.1)" fill="#E56E5A" fill-opacity=".7" stroke="#E56E5A" stroke-width=".5" stroke-opacity="1" opacity="1" style="transition:translate 200ms ease" d="M0 0h12v11.5H0z"/></g></g><g class="bar"><g><path transform="translate(407.8 441.6)" fill="#00847E" fill-opacity=".7" stroke="#00847E" stroke-width=".5" stroke-opacity="1" opacity="1" style="transition:translate 200ms ease" d="M0 0h26v10H0z"/></g></g><g class="bar"><g><path transform="translate(433.8 443.3)" fill="#883039" fill-opacity=".7" stroke="#883039" stroke-width=".5" stroke-opacity="1" opacity="1" style="transition:translate 200ms ease" d="M0 0h3.1v8.3H0z"/></g></g><g class="bar"><g><path transform="translate(436.9 444)" fill="#4C6A9C" fill-opacity=".7" stroke="#4C6A9C" stroke-width=".5" stroke-opacity="1" opacity="1" style="transition:translate 200ms ease" d="M0 0h1.8v7.6H0z"/></g></g><g class="bar"><g><path transform="translate(438.7 444.8)" fill="#9A5129" fill-opacity=".7" stroke="#9A5129" stroke-width=".5" stroke-opacity="1" opacity="1" style="transition:translate 200ms ease" d="M0 0h.1v6.8H0z"/></g></g><g class="bar"><g><path transform="translate(438.8 444.9)" fill="#00847E" fill-opacity=".7" stroke="#00847E" stroke-width=".5" stroke-opacity="1" opacity="1" style="transition:translate 200ms ease" d="M0 0h9.2v6.7H0z"/></g></g><g class="bar"><g><path transform="translate(448 446.2)" fill="#4C6A9C" fill-opacity=".7" stroke="#4C6A9C" stroke-width=".5" stroke-opacity="1" opacity="1" style="transition:translate 200ms ease" d="M0 0h5.7v5.4H0z"/></g></g><g class="bar"><g><path transform="translate(453.7 446.5)" fill="#00847E" fill-opacity=".7" stroke="#00847E" stroke-width=".5" stroke-opacity="1" opacity="1" style="transition:translate 200ms ease" d="M0 0h5.1v5.1H0z"/></g></g><g class="bar"><g><path transform="translate(458.8 446.9)" fill="#E56E5A" fill-opacity=".7" stroke="#E56E5A" stroke-width=".5" stroke-opacity="1" opacity="1" style="transition:translate 200ms ease" d="M0 0h.6v4.7H0z"/></g></g><g class="bar"><g><path transform="translate(459.4 447.1)" fill="#E56E5A" fill-opacity=".7" stroke="#E56E5A" stroke-width=".5" stroke-opacity="1" opacity="1" style="transition:translate 200ms ease" d="M0 0h.4v4.5H0z"/></g></g><g class="bar"><g><path transform="translate(459.8 447.6)" fill="#00847E" fill-opacity=".7" stroke="#00847E" stroke-width=".5" stroke-opacity="1" opacity="1" style="transition:translate 200ms ease" d="M0 0h.2v4H0z"/></g></g><g class="bar"><g><path transform="translate(460 447.8)" fill="#E56E5A" fill-opacity=".7" stroke="#E56E5A" stroke-width=".5" stroke-opacity="1" opacity="1" style="transition:translate 200ms ease" d="M0 0h.5v3.8H0z"/></g></g><g class="bar"><g><path transform="translate(460.5 447.9)" fill="#E56E5A" fill-opacity=".7" stroke="#E56E5A" stroke-width=".5" stroke-opacity="1" opacity="1" style="transition:translate 200ms ease" d="M0 0h32.2v3.7H0z"/></g></g><g class="bar"><g><path transform="translate(492.7 448.1)" fill="#883039" fill-opacity=".7" stroke="#883039" stroke-width=".5" stroke-opacity="1" opacity="1" style="transition:translate 200ms ease" d="M0 0h.6v3.5H0z"/></g></g><g class="bar"><g><path transform="translate(493.3 448.1)" fill="#00847E" fill-opacity=".7" stroke="#00847E" stroke-width=".5" stroke-opacity="1" opacity="1" style="transition:translate 200ms ease" d="M0 0h2.1v3.5H0z"/></g></g><g class="bar"><g><path transform="translate(495.4 448.2)" fill="#4C6A9C" fill-opacity=".7" stroke="#4C6A9C" stroke-width=".5" stroke-opacity="1" opacity="1" style="transition:translate 200ms ease" d="M0 0h.6v3.4H0z"/></g></g><g class="bar"><g><path transform="translate(496 448.5)" fill="#00847E" fill-opacity=".7" stroke="#00847E" stroke-width=".5" stroke-opacity="1" opacity="1" style="transition:translate 200ms ease" d="M0 0h.4v3.1H0z"/></g></g><g class="bar"><g><path transform="translate(496.4 448.6)" fill="#4C6A9C" fill-opacity=".7" stroke="#4C6A9C" stroke-width=".5" stroke-opacity="1" opacity="1" style="transition:translate 200ms ease" d="M0 0h4.5v3H0z"/></g></g><g class="bar"><g><path transform="translate(500.9 448.9)" fill="#4C6A9C" fill-opacity=".7" stroke="#4C6A9C" stroke-width=".5" stroke-opacity="1" opacity="1" style="transition:translate 200ms ease" d="M0 0h1v2.7H0z"/></g></g><g class="bar"><g><path transform="translate(501.9 449.1)" fill="#883039" fill-opacity=".7" stroke="#883039" stroke-width=".5" stroke-opacity="1" opacity="1" style="transition:translate 200ms ease" d="M0 0h1.8v2.5H0z"/></g></g><g class="bar"><g><path transform="translate(503.7 449.2)" fill="#4C6A9C" fill-opacity=".7" stroke="#4C6A9C" stroke-width=".5" stroke-opacity="1" opacity="1" style="transition:translate 200ms ease" d="M0 0h.8v2.4H0z"/></g></g><g class="bar"><g><path transform="translate(504.5 449.4)" fill="#00847E" fill-opacity=".7" stroke="#00847E" stroke-width=".5" stroke-opacity="1" opacity="1" style="transition:translate 200ms ease" d="M0 0h8.3v2.2H0z"/></g></g><g class="bar"><g><path transform="translate(512.8 449.5)" fill="#E56E5A" fill-opacity=".7" stroke="#E56E5A" stroke-width=".5" stroke-opacity="1" opacity="1" style="transition:translate 200ms ease" d="M0 0h1v2.1H0z"/></g></g><g class="bar"><g><path transform="translate(513.8 449.5)" fill="#00847E" fill-opacity=".7" stroke="#00847E" stroke-width=".5" stroke-opacity="1" opacity="1" style="transition:translate 200ms ease" d="M0 0h.6v2.1H0z"/></g></g><g class="bar"><g><path transform="translate(514.4 449.5)" fill="#4C6A9C" fill-opacity=".7" stroke="#4C6A9C" stroke-width=".5" stroke-opacity="1" opacity="1" style="transition:translate 200ms ease" d="M0 0h.2v2.1H0z"/></g></g><g class="bar"><g><path transform="translate(514.6 449.7)" fill="#9A5129" fill-opacity=".7" stroke="#9A5129" stroke-width=".5" stroke-opacity="1" opacity="1" style="transition:translate 200ms ease" d="M0 0h2.4v1.9H0z"/></g></g><g class="bar"><g><path transform="translate(517 449.7)" fill="#00847E" fill-opacity=".7" stroke="#00847E" stroke-width=".5" stroke-opacity="1" opacity="1" style="transition:translate 200ms ease" d="M0 0h.3v1.9H0z"/></g></g><g class="bar"><g><path transform="translate(517.3 449.8)" fill="#4C6A9C" fill-opacity=".7" stroke="#4C6A9C" stroke-width=".5" stroke-opacity="1" opacity="1" style="transition:translate 200ms ease" d="M0 0h.1v1.8H0z"/></g></g><g class="bar"><g><path transform="translate(517.4 449.9)" fill="#4C6A9C" fill-opacity=".7" stroke="#4C6A9C" stroke-width=".5" stroke-opacity="1" opacity="1" style="transition:translate 200ms ease" d="M0 0h.1v1.7H0z"/></g></g><g class="bar"><g><path transform="translate(517.5 450.2)" fill="#00847E" fill-opacity=".7" stroke="#00847E" stroke-width=".5" stroke-opacity="1" opacity="1" style="transition:translate 200ms ease" d="M0 0h8v1.4H0z"/></g></g><g class="bar"><g><path transform="translate(525.5 450.5)" fill="#4C6A9C" fill-opacity=".7" stroke="#4C6A9C" stroke-width=".5" stroke-opacity="1" opacity="1" style="transition:translate 200ms ease" d="M0 0h6.4v1.1H0z"/></g></g><g class="bar"><g><path transform="translate(531.9 450.6)" fill="#4C6A9C" fill-opacity=".7" stroke="#4C6A9C" stroke-width=".5" stroke-opacity="1" opacity="1" style="transition:translate 200ms ease" d="M0 0h.9v1H0z"/></g></g><g class="bar"><g><path transform="translate(532.8 450.6)" fill="#4C6A9C" fill-opacity=".7" stroke="#4C6A9C" stroke-width=".5" stroke-opacity="1" opacity="1" style="transition:translate 200ms ease" d="M0 0h1v1H0z"/></g></g><g class="bar"><g><path transform="translate(533.8 450.6)" fill="#4C6A9C" fill-opacity=".7" stroke="#4C6A9C" stroke-width=".5" stroke-opacity="1" opacity="1" style="transition:translate 200ms ease" d="M0 0h.4v1H0z"/></g></g><g class="bar"><g><path transform="translate(534.2 450.6)" fill="#4C6A9C" fill-opacity=".7" stroke="#4C6A9C" stroke-width=".5" stroke-opacity="1" opacity="1" style="transition:translate 200ms ease" d="M0 0h.5v1H0z"/></g></g><g class="bar"><g><path transform="translate(534.7 450.6)" fill="#E56E5A" fill-opacity=".7" stroke="#E56E5A" stroke-width=".5" stroke-opacity="1" opacity="1" style="transition:translate 200ms ease" d="M0 0h3.6v1H0z"/></g></g><g class="bar"><g><path transform="translate(538.3 450.6)" fill="#A2559C" fill-opacity=".7" stroke="#A2559C" stroke-width=".5" stroke-opacity="1" opacity="1" style="transition:translate 200ms ease" d="M0 0h1.1v1H0z"/></g></g><g class="bar"><g><path transform="translate(539.4 450.6)" fill="#4C6A9C" fill-opacity=".7" stroke="#4C6A9C" stroke-width=".5" stroke-opacity="1" opacity="1" style="transition:translate 200ms ease" d="M0 0h.1v1H0z"/></g></g><g class="bar"><g><path transform="translate(539.5 450.6)" fill="#00847E" fill-opacity=".7" stroke="#00847E" stroke-width=".5" stroke-opacity="1" opacity="1" style="transition:translate 200ms ease" d="M0 0h.8v1H0z"/></g></g><g class="bar"><g><path transform="translate(540.3 450.6)" fill="#00847E" fill-opacity=".7" stroke="#00847E" stroke-width=".5" stroke-opacity="1" opacity="1" style="transition:translate 200ms ease" d="M0 0h5v1H0z"/></g></g><g class="bar"><g><path transform="translate(545.3 450.6)" fill="#A2559C" fill-opacity=".7" stroke="#A2559C" stroke-width=".5" stroke-opacity="1" opacity="1" style="transition:translate 200ms ease" d="M0 0h.1v1H0z"/></g></g><g class="bar"><g><path transform="translate(545.4 450.6)" fill="#4C6A9C" fill-opacity=".7" stroke="#4C6A9C" stroke-width=".5" stroke-opacity="1" opacity="1" style="transition:translate 200ms ease" d="M0 0h.5v1H0z"/></g></g><g class="bar"><g><path transform="translate(545.9 450.6)" fill="#4C6A9C" fill-opacity=".7" stroke="#4C6A9C" stroke-width=".5" stroke-opacity="1" opacity="1" style="transition:translate 200ms ease" d="M0 0h.1v1H0z"/></g></g><g class="bar"><g><path transform="translate(546 450.6)" fill="#4C6A9C" fill-opacity=".7" stroke="#4C6A9C" stroke-width=".5" stroke-opacity="1" opacity="1" style="transition:translate 200ms ease" d="M0 0h1v1H0z"/></g></g><g class="bar"><g><path transform="translate(547 450.6)" fill="#4C6A9C" fill-opacity=".7" stroke="#4C6A9C" stroke-width=".5" stroke-opacity="1" opacity="1" style="transition:translate 200ms ease" d="M0 0h.5v1H0z"/></g></g><g class="bar"><g><path transform="translate(547.5 450.6)" fill="#883039" fill-opacity=".7" stroke="#883039" stroke-width=".5" stroke-opacity="1" opacity="1" style="transition:translate 200ms ease" d="M0 0h.3v1H0z"/></g></g><g class="bar"><g><path transform="translate(547.8 450.6)" fill="#4C6A9C" fill-opacity=".7" stroke="#4C6A9C" stroke-width=".5" stroke-opacity="1" opacity="1" style="transition:translate 200ms ease" d="M0 0h1.6v1H0z"/></g></g><g class="bar"><g><path transform="translate(549.4 450.6)" fill="#00847E" fill-opacity=".7" stroke="#00847E" stroke-width=".5" stroke-opacity="1" opacity="1" style="transition:translate 200ms ease" d="M0 0h137.3v1H0z"/></g></g><g class="bar"><g><path transform="translate(686.7 450.6)" fill="#00847E" fill-opacity=".7" stroke="#00847E" stroke-width=".5" stroke-opacity="1" opacity="1" style="transition:translate 200ms ease" d="M0 0h6.8v1H0z"/></g></g><g class="bar"><g><path transform="translate(693.5 450.6)" fill="#4C6A9C" fill-opacity=".7" stroke="#4C6A9C" stroke-width=".5" stroke-opacity="1" opacity="1" style="transition:translate 200ms ease" d="M0 0h1.1v1H0z"/></g></g><g class="bar"><g><path transform="translate(694.6 450.6)" fill="#4C6A9C" fill-opacity=".7" stroke="#4C6A9C" stroke-width=".5" stroke-opacity="1" opacity="1" style="transition:translate 200ms ease" d="M0 0h.7v1H0z"/></g></g><g class="bar"><g><path transform="translate(695.3 450.6)" fill="#4C6A9C" fill-opacity=".7" stroke="#4C6A9C" stroke-width=".5" stroke-opacity="1" opacity="1" style="transition:translate 200ms ease" d="M0 0h.5v1H0z"/></g></g><g class="bar"><g><path transform="translate(695.8 450.6)" fill="#4C6A9C" fill-opacity=".7" stroke="#4C6A9C" stroke-width=".5" stroke-opacity="1" opacity="1" style="transition:translate 200ms ease" d="M0 0h14v1H0z"/></g></g><g class="bar"><g><path transform="translate(709.8 450.6)" fill="#4C6A9C" fill-opacity=".7" stroke="#4C6A9C" stroke-width=".5" stroke-opacity="1" opacity="1" style="transition:translate 200ms ease" d="M0 0h.8v1H0z"/></g></g><g class="bar"><g><path transform="translate(710.6 450.6)" fill="#4C6A9C" fill-opacity=".7" stroke="#4C6A9C" stroke-width=".5" stroke-opacity="1" opacity="1" style="transition:translate 200ms ease" d="M0 0h.3v1H0z"/></g></g><g class="bar"><g><path transform="translate(710.9 450.6)" fill="#4C6A9C" fill-opacity=".7" stroke="#4C6A9C" stroke-width=".5" stroke-opacity="1" opacity="1" style="transition:translate 200ms ease" d="M0 0h6.2v1H0z"/></g></g><g class="bar"><g><path transform="translate(717.1 450.6)" fill="#00847E" fill-opacity=".7" stroke="#00847E" stroke-width=".5" stroke-opacity="1" opacity="1" style="transition:translate 200ms ease" d="M0 0h3.1v1H0z"/></g></g><g class="bar"><g><path transform="translate(720.2 450.6)" fill="#00847E" fill-opacity=".7" stroke="#00847E" stroke-width=".5" stroke-opacity="1" opacity="1" style="transition:translate 200ms ease" d="M0 0h1.8v1H0z"/></g></g><g class="bar"><g><path transform="translate(722 450.6)" fill="#4C6A9C" fill-opacity=".7" stroke="#4C6A9C" stroke-width=".5" stroke-opacity="1" opacity="1" style="transition:translate 200ms ease" d="M0 0h.4v1H0z"/></g></g><g class="bar"><g><path transform="translate(722.4 450.6)" fill="#4C6A9C" fill-opacity=".7" stroke="#4C6A9C" stroke-width=".5" stroke-opacity="1" opacity="1" style="transition:translate 200ms ease" d="M0 0h4.2v1H0z"/></g></g><g class="bar"><g><path transform="translate(726.6 450.6)" fill="#00847E" fill-opacity=".7" stroke="#00847E" stroke-width=".5" stroke-opacity="1" opacity="1" style="transition:translate 200ms ease" d="M0 0h2.3v1H0z"/></g></g><g class="bar"><g><path transform="translate(728.9 450.6)" fill="#4C6A9C" fill-opacity=".7" stroke="#4C6A9C" stroke-width=".5" stroke-opacity="1" opacity="1" style="transition:translate 200ms ease" d="M0 0h.2v1H0z"/></g></g><g class="bar"><g><path transform="translate(729.1 450.6)" fill="#4C6A9C" fill-opacity=".7" stroke="#4C6A9C" stroke-width=".5" stroke-opacity="1" opacity="1" style="transition:translate 200ms ease" d="M0 0h3.7v1H0z"/></g></g><g class="bar"><g><path transform="translate(732.8 450.6)" fill="#4C6A9C" fill-opacity=".7" stroke="#4C6A9C" stroke-width=".5" stroke-opacity="1" opacity="1" style="transition:translate 200ms ease" d="M0 0h8v1H0z"/></g></g><g class="bar"><g><path transform="translate(740.8 450.6)" fill="#4C6A9C" fill-opacity=".7" stroke="#4C6A9C" stroke-width=".5" stroke-opacity="1" opacity="1" style="transition:translate 200ms ease" d="M0 0h1v1H0z"/></g></g><g class="bar"><g><path transform="translate(741.8 450.6)" fill="#4C6A9C" fill-opacity=".7" stroke="#4C6A9C" stroke-width=".5" stroke-opacity="1" opacity="1" style="transition:translate 200ms ease" d="M0 0h.9v1H0z"/></g></g><g class="bar"><g><path transform="translate(742.7 450.6)" fill="#4C6A9C" fill-opacity=".7" stroke="#4C6A9C" stroke-width=".5" stroke-opacity="1" opacity="1" style="transition:translate 200ms ease" d="M0 0h.2v1H0z"/></g></g><g class="bar"><g><path transform="translate(742.9 425.6)" fill="#555" fill-opacity=".7" stroke="#555" stroke-width=".5" stroke-opacity=".8" opacity=".2" style="transition:translate 200ms ease" d="M0 0h2.8v26H0z"/></g></g><g class="bar"><g><path transform="translate(745.7 425.6)" fill="#555" fill-opacity=".7" stroke="#555" stroke-width=".5" stroke-opacity=".8" opacity=".2" style="transition:translate 200ms ease" d="M0 0h3.1v26H0z"/></g></g><g class="bar"><g><path transform="translate(748.8 425.6)" fill="#555" fill-opacity=".7" stroke="#555" stroke-width=".5" stroke-opacity=".8" opacity=".2" style="transition:translate 200ms ease" d="M0 0h.9v26H0z"/></g></g><g class="bar"><g><path transform="translate(749.7 425.6)" fill="#555" fill-opacity=".7" stroke="#555" stroke-width=".5" stroke-opacity=".8" opacity=".2" style="transition:translate 200ms ease" d="M0 0h.6v26H0z"/></g></g><g class="bar"><g><path transform="translate(750.3 425.6)" fill="#555" fill-opacity=".7" stroke="#555" stroke-width=".5" stroke-opacity=".8" opacity=".2" style="transition:translate 200ms ease" d="M0 0h.1v26H0z"/></g></g><g class="bar"><g><path transform="translate(750.4 425.6)" fill="#555" fill-opacity=".7" stroke="#555" stroke-width=".5" stroke-opacity=".8" opacity=".2" style="transition:translate 200ms ease" d="M0 0h1.9v26H0z"/></g></g><g class="bar"><g><path transform="translate(752.3 425.6)" fill="#555" fill-opacity=".7" stroke="#555" stroke-width=".5" stroke-opacity=".8" opacity=".2" style="transition:translate 200ms ease" d="M0 0h.5v26H0z"/></g></g><g class="bar"><g><path transform="translate(752.8 425.6)" fill="#555" fill-opacity=".7" stroke="#555" stroke-width=".5" stroke-opacity=".8" opacity=".2" style="transition:translate 200ms ease" d="M0 0h3.4v26H0z"/></g></g><g class="bar"><g><path transform="translate(756.2 425.6)" fill="#555" fill-opacity=".7" stroke="#555" stroke-width=".5" stroke-opacity=".8" opacity=".2" style="transition:translate 200ms ease" d="M0 0h.1v26H0z"/></g></g><g class="bar"><g><path transform="translate(756.3 425.6)" fill="#555" fill-opacity=".7" stroke="#555" stroke-width=".5" stroke-opacity=".8" opacity=".2" style="transition:translate 200ms ease" d="M0 0h.2v26H0z"/></g></g><g class="bar"><g><path transform="translate(756.5 425.6)" fill="#555" fill-opacity=".7" stroke="#555" stroke-width=".5" stroke-opacity=".8" opacity=".2" style="transition:translate 200ms ease" d="M0 0h.3v26H0z"/></g></g><g class="bar"><g><path transform="translate(756.8 425.6)" fill="#555" fill-opacity=".7" stroke="#555" stroke-width=".5" stroke-opacity=".8" opacity=".2" style="transition:translate 200ms ease" d="M0 0h.9v26H0z"/></g></g><g class="bar"><g><path transform="translate(757.7 425.6)" fill="#555" fill-opacity=".7" stroke="#555" stroke-width=".5" stroke-opacity=".8" opacity=".2" style="transition:translate 200ms ease" d="M0 0h.4v26H0z"/></g></g><g class="bar"><g><path transform="translate(758.1 425.6)" fill="#555" fill-opacity=".7" stroke="#555" stroke-width=".5" stroke-opacity=".8" opacity=".2" style="transition:translate 200ms ease" d="M0 0h2.4v26H0z"/></g></g><g class="bar"><g><path transform="translate(760.5 425.6)" fill="#555" fill-opacity=".7" stroke="#555" stroke-width=".5" stroke-opacity=".8" opacity=".2" style="transition:translate 200ms ease" d="M0 0h.4v26H0z"/></g></g><g class="bar"><g><path transform="translate(760.9 425.6)" fill="#555" fill-opacity=".7" stroke="#555" stroke-width=".5" stroke-opacity=".8" opacity=".2" style="transition:translate 200ms ease" d="M0 0h2.7v26H0z"/></g></g><g class="bar"><g><path transform="translate(763.6 425.6)" fill="#555" fill-opacity=".7" stroke="#555" stroke-width=".5" stroke-opacity=".8" opacity=".2" style="transition:translate 200ms ease" d="M0 0h3.5v26H0z"/></g></g><g class="bar"><g><path transform="translate(767.1 425.6)" fill="#555" fill-opacity=".7" stroke="#555" stroke-width=".5" stroke-opacity=".8" opacity=".2" style="transition:translate 200ms ease" d="M0 0h2.6v26H0z"/></g></g><g class="bar"><g><path transform="translate(769.7 425.6)" fill="#555" fill-opacity=".7" stroke="#555" stroke-width=".5" stroke-opacity=".8" opacity=".2" style="transition:translate 200ms ease" d="M0 0h.6v26H0z"/></g></g><g class="bar"><g><path transform="translate(770.3 425.6)" fill="#555" fill-opacity=".7" stroke="#555" stroke-width=".5" stroke-opacity=".8" opacity=".2" style="transition:translate 200ms ease" d="M0 0h.5v26H0z"/></g></g><g class="bar"><g><path transform="translate(770.8 425.6)" fill="#555" fill-opacity=".7" stroke="#555" stroke-width=".5" stroke-opacity=".8" opacity=".2" style="transition:translate 200ms ease" d="M0 0h.4v26H0z"/></g></g><g class="bar"><g><path transform="translate(771.2 425.6)" fill="#555" fill-opacity=".7" stroke="#555" stroke-width=".5" stroke-opacity=".8" opacity=".2" style="transition:translate 200ms ease" d="M0 0h1v26H0z"/></g></g><g class="bar"><g><path transform="translate(772.2 425.6)" fill="#555" fill-opacity=".7" stroke="#555" stroke-width=".5" stroke-opacity=".8" opacity=".2" style="transition:translate 200ms ease" d="M0 0h12.1v26H0z"/></g></g><g class="bar"><g><path transform="translate(784.3 425.6)" fill="#555" fill-opacity=".7" stroke="#555" stroke-width=".5" stroke-opacity=".8" opacity=".2" style="transition:translate 200ms ease" d="M0 0h.2v26H0z"/></g></g><g class="bar"><g><path transform="translate(784.5 425.6)" fill="#555" fill-opacity=".7" stroke="#555" stroke-width=".5" stroke-opacity=".8" opacity=".2" style="transition:translate 200ms ease" d="M0 0h4v26H0z"/></g></g><g class="bar"><g><path transform="translate(788.5 425.6)" fill="#555" fill-opacity=".7" stroke="#555" stroke-width=".5" stroke-opacity=".8" opacity=".2" style="transition:translate 200ms ease" d="M0 0h.7v26H0z"/></g></g><g class="bar"><g><path transform="translate(789.2 425.6)" fill="#555" fill-opacity=".7" stroke="#555" stroke-width=".5" stroke-opacity=".8" opacity=".2" style="transition:translate 200ms ease" d="M0 0h1v26H0z"/></g></g><g class="bar"><g><path transform="translate(790.2 425.6)" fill="#555" fill-opacity=".7" stroke="#555" stroke-width=".5" stroke-opacity=".8" opacity=".2" style="transition:translate 200ms ease" d="M0 0h.3v26H0z"/></g></g><g class="bar"><g><path transform="translate(790.5 425.6)" fill="#555" fill-opacity=".7" stroke="#555" stroke-width=".5" stroke-opacity=".8" opacity=".2" style="transition:translate 200ms ease" d="M0 0h.1v26H0z"/></g></g><g class="bar"><g><path transform="translate(790.6 425.6)" fill="#555" fill-opacity=".7" stroke="#555" stroke-width=".5" stroke-opacity=".8" opacity=".2" style="transition:translate 200ms ease" d="M0 0h8.6v26H0z"/></g></g><g class="bar"><g><path transform="translate(799.2 425.6)" fill="#555" fill-opacity=".7" stroke="#555" stroke-width=".5" stroke-opacity=".8" opacity=".2" style="transition:translate 200ms ease" d="M0 0h1.1v26H0z"/></g></g><g class="bar"><g><path transform="translate(800.3 425.6)" fill="#555" fill-opacity=".7" stroke="#555" stroke-width=".5" stroke-opacity=".8" opacity=".2" style="transition:translate 200ms ease" d="M0 0h.5v26H0z"/></g></g><g class="bar"><g><path transform="translate(800.8 425.6)" fill="#555" fill-opacity=".7" stroke="#555" stroke-width=".5" stroke-opacity=".8" opacity=".2" style="transition:translate 200ms ease" d="M0 0h.5v26H0z"/></g></g><g class="bar"><g><path transform="translate(801.3 425.6)" fill="#555" fill-opacity=".7" stroke="#555" stroke-width=".5" stroke-opacity=".8" opacity=".2" style="transition:translate 200ms ease" d="M0 0h1.5v26H0z"/></g></g><g class="bar"><g><path transform="translate(802.8 425.6)" fill="#555" fill-opacity=".7" stroke="#555" stroke-width=".5" stroke-opacity=".8" opacity=".2" style="transition:translate 200ms ease" d="M0 0h1.1v26H0z"/></g></g><g class="bar"><g><path transform="translate(803.9 425.6)" fill="#555" fill-opacity=".7" stroke="#555" stroke-width=".5" stroke-opacity=".8" opacity=".2" style="transition:translate 200ms ease" d="M0 0h.3v26H0z"/></g></g><g class="bar"><g><path transform="translate(804.2 425.6)" fill="#555" fill-opacity=".7" stroke="#555" stroke-width=".5" stroke-opacity=".8" opacity=".2" style="transition:translate 200ms ease" d="M0 0h.1v26H0z"/></g></g><g class="bar"><g><path transform="translate(804.3 425.6)" fill="#555" fill-opacity=".7" stroke="#555" stroke-width=".5" stroke-opacity=".8" opacity=".2" style="transition:translate 200ms ease" d="M0 0h1v26H0z"/></g></g><g class="bar"><g><path transform="translate(805.3 425.6)" fill="#555" fill-opacity=".7" stroke="#555" stroke-width=".5" stroke-opacity=".8" opacity=".2" style="transition:translate 200ms ease" d="M0 0h4.3v26H0z"/></g></g><g class="bar"><g><path transform="translate(809.6 425.6)" fill="#555" fill-opacity=".7" stroke="#555" stroke-width=".5" stroke-opacity=".8" opacity=".2" style="transition:translate 200ms ease" d="M0 0h4.1v26H0z"/></g></g><g class="bar"><g><path transform="translate(813.7 425.6)" fill="#555" fill-opacity=".7" stroke="#555" stroke-width=".5" stroke-opacity=".8" opacity=".2" style="transition:translate 200ms ease" d="M0 0h3.6v26H0z"/></g></g><g class="bar-label"><g><text x="-73.33" y="0" width="73.33" height="12.6" font-weight="400" fill="#A2559C" transform="rotate(-45 613.16 146.92)" opacity="1" font-size=".7em" text-anchor="right" dominant-baseline="middle">South Sudan</text></g></g><g class="bar-label"><g><text x="-39.94" y="0" width="39.94" height="12.6" font-weight="400" fill="#A2559C" transform="rotate(-45 631.66 102.26)" opacity="1" font-size=".7em" text-anchor="right" dominant-baseline="middle">Nigeria</text></g></g><g class="bar-label"><g><text x="-45.74" y="0" width="45.74" height="12.6" font-weight="400" fill="#A2559C" transform="rotate(-45 648.16 62.41)" opacity="1" font-size=".7em" text-anchor="right" dominant-baseline="middle">Ethiopia</text></g></g><g class="bar-label"><g><text x="-27.47" y="0" width="27.47" height="12.6" font-weight="400" fill="#00847E" transform="rotate(-45 700.28 -63.42)" opacity="1" font-size=".7em" text-anchor="right" dominant-baseline="middle">India</text></g></g><g class="bar-label"><g><text x="-53.3" y="0" width="53.3" height="12.6" font-weight="400" fill="#883039" transform="rotate(-45 738.2 -154.98)" opacity="1" font-size=".7em" text-anchor="right" dominant-baseline="middle">Colombia</text></g></g><g class="bar-label"><g><text x="-31.5" y="0" width="31.5" height="12.6" font-weight="400" fill="#883039" transform="rotate(-45 754.71 -194.82)" opacity="1" font-size=".7em" text-anchor="right" dominant-baseline="middle">Brazil</text></g></g><g class="bar-label"><g><text x="-48.51" y="0" width="48.51" height="12.6" font-weight="400" fill="#00847E" transform="rotate(-45 771.22 -234.67)" opacity="1" font-size=".7em" text-anchor="right" dominant-baseline="middle">Pakistan</text></g></g><g class="bar-label"><g><text x="-54.94" y="0" width="54.94" height="12.6" font-weight="400" fill="#00847E" transform="rotate(-45 787.72 -274.51)" opacity="1" font-size=".7em" text-anchor="right" dominant-baseline="middle">Indonesia</text></g></g><g class="bar-label"><g><text x="-75.98" y="0" width="75.98" height="12.6" font-weight="400" fill="#E56E5A" transform="rotate(-45 813.6 -337)" opacity="1" font-size=".7em" text-anchor="right" dominant-baseline="middle">United States</text></g></g><g class="bar-label"><g><text x="-70.43" y="0" width="70.43" height="12.6" font-weight="400" fill="#00847E" transform="rotate(-45 846.7 -416.92)" opacity="1" font-size=".7em" text-anchor="right" dominant-baseline="middle">South Korea</text></g></g><g class="bar-label"><g><text x="-33.01" y="0" width="33.01" height="12.6" font-weight="400" fill="#00847E" transform="rotate(-45 884.33 -507.75)" opacity="1" font-size=".7em" text-anchor="right" dominant-baseline="middle">China</text></g></g><g class="bar-label"><g><text x="-38.68" y="0" width="38.68" height="12.6" font-weight="400" fill="#4C6A9C" transform="rotate(-45 936.4 -633.47)" opacity="1" font-size=".7em" text-anchor="right" dominant-baseline="middle">Ireland</text></g></g><g class="bar-label"><g><text x="-42.21" y="0" width="42.21" height="12.6" font-weight="400" fill="#4C6A9C" transform="rotate(-45 952.91 -673.32)" opacity="1" font-size=".7em" text-anchor="right" dominant-baseline="middle">Albania</text></g></g><g class="bar-label"><g><text x="-34.52" y="0" width="34.52" height="12.6" font-weight="400" fill="#00847E" transform="rotate(-45 969.42 -713.16)" opacity="1" font-size=".7em" text-anchor="right" dominant-baseline="middle">Japan</text></g></g><g class="indicator"><path d="M136.4 455.6v8.5h9.3v8.5" stroke="#bbb" stroke-width="1" fill="none"/></g><g class="indicator"><path d="M338.4 455.6v12.75h20.4v4.25" stroke="#bbb" stroke-width="1" fill="none"/></g><g class="indicator"><path d="M381.35 455.6v8.5h10.47v8.5" stroke="#bbb" stroke-width="1" fill="none"/></g><g class="indicator"><path d="M420.8 455.6v4.25h4.03v12.75" stroke="#bbb" stroke-width="1" fill="none"/></g><g class="indicator"><path d="M742.8 455.6v11.33h12.4v5.67" stroke="#bbb" stroke-width="1" fill="none"/></g><g class="indicator"><path d="M778.25 455.6v5.67h9.97v11.33" stroke="#bbb" stroke-width="1" fill="none"/></g><g class="indicator"><path d="M75.7 455.6v17" stroke="#bbb" stroke-width="1" fill="none"/></g><g class="indicator"><path d="M112.7 455.6v17" stroke="#bbb" stroke-width="1" fill="none"/></g><g class="indicator"><path d="M249.95 455.6v17" stroke="#bbb" stroke-width="1" fill="none"/></g><g class="indicator"><path d="M325.8 455.6v17" stroke="#bbb" stroke-width="1" fill="none"/></g><g class="indicator"><path d="M476.6 455.6v17" stroke="#bbb" stroke-width="1" fill="none"/></g><g class="indicator"><path d="M542.8 455.6v17" stroke="#bbb" stroke-width="1" fill="none"/></g><g class="indicator"><path d="M618.05 455.6v17" stroke="#bbb" stroke-width="1" fill="none"/></g><g class="indicator"><path d="M722.2 455.6v17" stroke="#bbb" stroke-width="1" fill="none"/></g><text x="0" transform="rotate(-90 588.97 -191.13)" y="0" width="74.4" height="26" font-weight="700" fill="#666" opacity="1" font-size=".8em" text-anchor="middle" dominant-baseline="middle" style="pointer-events:none">no data</text></g><g class="SourcesFooter" style="fill:#777"><g style="fill:#777"><text font-size="12.6" x="15" y="566.9"><tspan x="15" y="566.87">Source: World Bank PIP; Gapminder (v6); HYDE (v3.2); UN (2022)</tspan></text></g><text x="15" y="582.7" style="font-size:12.6px;line-height:1.1"><tspan x="15" y="582.7">Note: This data relates to household income or expenditure, measured in international-$ at 2011 prices.</tspan></text><text font-size="12.6" x="796.4" y="566.9"><tspan x="796.44" y="566.87"><a style="fill:#777" class="cclogo" href="http://creativecommons.org/licenses/by/4.0/deed.en_US" target="_blank">CC BY</a></tspan></text></g></svg>