<svg xmlns="http://www.w3.org/2000/svg" version="1.1" style="font-family:Lato,'Helvetica Neue',Helvetica,Arial,sans-serif;font-size:18px;background-color:#fff;text-rendering:geometricPrecision;-webkit-font-smoothing:antialiased" width="850" height="600" viewBox="0 0 850 600"><g class="HeaderView"><g transform="matrix(.29 0 0 .29 774 15)"><svg className="owidLog" width="210" height="120" viewBox="0 0 210 120" fill="none" xmlns="http://www.w3.org/2000/svg"><g clip-path="url(#a)"><path d="M0 0h210v107.89H0V0z" fill="#002147"/><path d="M40.98 32.25c0 2.36-.38 4.53-1.12 6.51a14.26 14.26 0 0 1-8.1 8.4c-1.9.78-4.02 1.17-6.34 1.17a16.6 16.6 0 0 1-6.33-1.17 14.31 14.31 0 0 1-8.08-8.4 18.29 18.29 0 0 1-1.12-6.51c0-2.36.38-4.53 1.12-6.5.75-1.97 1.8-3.67 3.17-5.1a14.32 14.32 0 0 1 4.9-3.34c1.92-.8 4.03-1.19 6.34-1.19 2.32 0 4.43.4 6.34 1.19 1.92.8 3.56 1.9 4.93 3.34a14.87 14.87 0 0 1 3.17 5.1 18.1 18.1 0 0 1 1.12 6.5zm-4.38 0c0-1.94-.26-3.68-.8-5.22a10.91 10.91 0 0 0-2.24-3.89 9.68 9.68 0 0 0-3.52-2.46 11.95 11.95 0 0 0-4.62-.86c-1.68 0-3.21.28-4.6.86a9.88 9.88 0 0 0-3.54 2.46 10.91 10.91 0 0 0-2.24 3.9c-.53 1.53-.8 3.27-.8 5.2 0 1.94.27 3.68.8 5.22a11.17 11.17 0 0 0 2.24 3.9 10.01 10.01 0 0 0 3.55 2.44c1.38.56 2.9.83 4.6.83s3.24-.27 4.61-.83a9.8 9.8 0 0 0 3.52-2.44 11.17 11.17 0 0 0 2.25-3.9c.53-1.54.8-3.28.8-5.21zm26.22-6.54V48H60.5c-.56 0-.9-.27-1.05-.81l-.31-2.4a12.45 12.45 0 0 1-3.26 2.6c-1.2.64-2.58.96-4.13.96-1.22 0-2.3-.2-3.24-.6a6.52 6.52 0 0 1-2.33-1.7 7.37 7.37 0 0 1-1.43-2.67c-.3-1.04-.46-2.2-.46-3.45V25.7h3.91v14.22c0 1.68.38 2.99 1.15 3.91.77.93 1.96 1.39 3.54 1.39 1.16 0 2.24-.27 3.23-.82a10.42 10.42 0 0 0 2.8-2.28V25.7h3.91zm8.61 4.47a9.94 9.94 0 0 1 2.6-3.56 5.64 5.64 0 0 1 3.76-1.3c.47 0 .92.05 1.34.15.44.1.83.27 1.17.49l-.3 2.92c-.09.37-.3.55-.66.55-.2 0-.5-.04-.9-.13a6.21 6.21 0 0 0-3.24.18 4.23 4.23 0 0 0-1.47.92c-.42.4-.81.9-1.17 1.5-.33.58-.64 1.26-.92 2.02V48H67.7V25.71h2.25c.42 0 .72.08.88.25.16.16.27.44.33.83l.26 3.39zm61.16-13.7L122.75 48h-3.82l-7.99-24.05a21.95 21.95 0 0 1-.42-1.58 38.36 38.36 0 0 1-.44 1.58L102.05 48h-3.83L88.4 16.47h3.54c.38 0 .7.1.95.29.26.2.43.43.5.73l6.52 21.9.28 1.28.29 1.46.3-1.46.38-1.27 7.41-21.91c.1-.25.26-.48.51-.69.27-.22.58-.33.95-.33h1.23c.38 0 .69.1.92.29a1.77 1.77 0 0 1 .53.73l7.4 21.9a28.4 28.4 0 0 1 .68 2.62 29.52 29.52 0 0 1 .52-2.61l6.54-21.91a1.31 1.31 0 0 1 .48-.7c.27-.21.58-.32.95-.32h3.32zm9.35 8.88c1.63 0 3.1.27 4.4.82a9.43 9.43 0 0 1 5.46 5.94c.5 1.4.74 2.98.74 4.73 0 1.76-.25 3.34-.74 4.75a9.43 9.43 0 0 1-5.46 5.92c-1.3.52-2.77.79-4.4.79-1.64 0-3.12-.27-4.44-.8a9.42 9.42 0 0 1-3.35-2.3c-.92-1-1.63-2.2-2.13-3.61-.49-1.41-.73-3-.73-4.75s.24-3.33.73-4.73c.5-1.43 1.2-2.64 2.13-3.63a9.4 9.4 0 0 1 3.35-2.31c1.32-.55 2.8-.82 4.44-.82zm0 19.89c2.2 0 3.84-.73 4.93-2.2 1.08-1.48 1.63-3.54 1.63-6.18 0-2.66-.55-4.72-1.63-6.2-1.09-1.49-2.73-2.23-4.93-2.23-1.12 0-2.09.2-2.93.57a5.71 5.71 0 0 0-2.06 1.65 7.5 7.5 0 0 0-1.24 2.67c-.26 1.04-.4 2.22-.4 3.54 0 2.64.55 4.7 1.64 6.18 1.1 1.47 2.76 2.2 4.99 2.2zm17.97-15.07a9.94 9.94 0 0 1 2.6-3.56 5.64 5.64 0 0 1 3.76-1.3c.47 0 .91.05 1.34.15.44.1.83.27 1.16.49l-.28 2.92c-.09.37-.31.55-.66.55-.2 0-.5-.04-.9-.13a6.2 6.2 0 0 0-3.24.18 4.23 4.23 0 0 0-1.47.92c-.43.4-.82.9-1.17 1.5a13.1 13.1 0 0 0-.92 2.02V48h-3.94V25.71h2.24c.43 0 .72.08.88.25.17.16.28.44.33.83l.27 3.39zm15.04-14.59V48h-3.92V15.6h3.92zm19.55 15.43a6.22 6.22 0 0 0-2.38-2.05 6.7 6.7 0 0 0-2.86-.6c-2.07 0-3.66.75-4.77 2.23-1.12 1.48-1.68 3.6-1.68 6.33 0 1.46.13 2.7.38 3.74a7.29 7.29 0 0 0 1.1 2.56 4.35 4.35 0 0 0 1.78 1.45c.7.3 1.5.46 2.4.46 1.29 0 2.41-.3 3.36-.88a9.6 9.6 0 0 0 2.67-2.49V31.02zm3.91-15.43V48h-2.33c-.56 0-.9-.27-1.06-.81l-.35-2.71a12.13 12.13 0 0 1-3.25 2.77 8.28 8.28 0 0 1-4.23 1.06 7.31 7.31 0 0 1-6.14-2.9c-.73-.96-1.3-2.15-1.69-3.57a18.35 18.35 0 0 1 .07-9.48 11.29 11.29 0 0 1 1.89-3.7 8.7 8.7 0 0 1 7.06-3.34 7.96 7.96 0 0 1 6.12 2.62V15.59h3.91zM46.61 70.71V93H42.7V70.71h3.91zm.84-7c0 .39-.08.75-.24 1.09a2.81 2.81 0 0 1-1.52 1.47 2.67 2.67 0 0 1-2.16 0 2.9 2.9 0 0 1-1.45-1.47 2.67 2.67 0 0 1 0-2.16c.15-.35.35-.65.6-.9.25-.27.53-.47.85-.62a2.67 2.67 0 0 1 2.16 0c.35.15.65.35.9.62.27.25.47.55.62.9.16.34.24.7.24 1.08zm7.97 10.24c.49-.54 1-1.04 1.54-1.48a9.85 9.85 0 0 1 3.66-1.84 8.96 8.96 0 0 1 5.43.35c.94.4 1.72.97 2.33 1.71a7.36 7.36 0 0 1 1.43 2.67c.32 1.04.49 2.19.49 3.45V93h-3.94V78.81c0-1.69-.4-3-1.17-3.92-.76-.93-1.93-1.4-3.5-1.4a6.6 6.6 0 0 0-3.25.83c-1 .56-1.92 1.31-2.77 2.27V93h-3.94V70.71h2.35c.56 0 .9.28 1.04.82l.3 2.42zm57.7 3.3c0 2.36-.37 4.5-1.11 6.44a14.3 14.3 0 0 1-3.17 4.98 14.1 14.1 0 0 1-4.93 3.2c-1.9.76-4.02 1.13-6.33 1.13H85.8V61.47h11.77c2.31 0 4.42.39 6.33 1.15a13.8 13.8 0 0 1 8.1 8.18 17.75 17.75 0 0 1 1.12 6.45zm-4.37 0c0-1.94-.26-3.67-.8-5.2a10.94 10.94 0 0 0-2.23-3.87 9.57 9.57 0 0 0-3.53-2.42 12.23 12.23 0 0 0-4.61-.83h-7.5v24.62h7.5c1.7 0 3.24-.28 4.61-.84a9.7 9.7 0 0 0 3.53-2.4 10.94 10.94 0 0 0 2.24-3.87c.53-1.53.8-3.26.8-5.2zm19.8 5.72c-1.8.06-3.34.2-4.62.44-1.26.22-2.3.51-3.1.88-.8.36-1.37.8-1.74 1.3-.35.5-.53 1.05-.53 1.67 0 .58.1 1.1.3 1.52a3 3 0 0 0 .76 1.05c.34.27.73.46 1.17.6a6.13 6.13 0 0 0 1.45.17 7.28 7.28 0 0 0 3.5-.81 11.95 11.95 0 0 0 2.82-2.2v-4.62zm-12.65-9.11a12.73 12.73 0 0 1 3.98-2.66c1.43-.59 3-.88 4.73-.88 1.25 0 2.36.2 3.33.61a6.81 6.81 0 0 1 3.94 4.38c.33 1.04.5 2.19.5 3.43V93h-1.74a1.8 1.8 0 0 1-.88-.18c-.2-.13-.36-.38-.48-.74l-.44-2.12-1.72 1.46a9.48 9.48 0 0 1-3.74 1.7c-.69.15-1.46.23-2.3.23-.87 0-1.69-.12-2.45-.35a5.34 5.34 0 0 1-3.34-2.93 6.64 6.64 0 0 1-.49-2.64c0-.88.25-1.72.73-2.53a6.33 6.33 0 0 1 2.35-2.17c1.09-.63 2.5-1.15 4.25-1.54 1.75-.41 3.89-.65 6.42-.7v-1.75c0-1.73-.37-3.03-1.12-3.91-.75-.9-1.84-1.34-3.28-1.34-.97 0-1.78.12-2.44.37-.64.23-1.2.5-1.7.81l-1.23.82c-.33.23-.67.35-1 .35-.27 0-.5-.07-.69-.2a2.1 2.1 0 0 1-.48-.53l-.7-1.25zm27.67 19.5c-1.76 0-3.12-.5-4.07-1.48-.94-.98-1.41-2.4-1.41-4.25V74h-2.68a.9.9 0 0 1-.6-.2c-.16-.14-.24-.36-.24-.66v-1.56l3.65-.46.9-6.89a.9.9 0 0 1 .29-.52.88.88 0 0 1 .62-.22H142v7.67h6.44V74H142v13.38c0 .94.22 1.63.68 2.09.45.45 1.04.68 1.76.68a3.21 3.21 0 0 0 1.85-.53l.55-.35c.16-.12.3-.18.41-.18.2 0 .4.13.55.38l1.15 1.87a7.45 7.45 0 0 1-2.44 1.5 8.53 8.53 0 0 1-2.95.52zm19.68-10.4c-1.8.07-3.34.21-4.62.45-1.26.22-2.3.51-3.1.88-.8.36-1.37.8-1.74 1.3-.35.5-.53 1.05-.53 1.67 0 .58.1 1.1.3 1.52a2.9 2.9 0 0 0 .76 1.05c.34.27.73.46 1.17.6a6.13 6.13 0 0 0 1.45.17 7.3 7.3 0 0 0 3.5-.81 12.04 12.04 0 0 0 2.82-2.2v-4.62zm-12.65-9.1a12.72 12.72 0 0 1 3.99-2.66c1.42-.59 3-.88 4.72-.88 1.25 0 2.36.2 3.33.61a6.81 6.81 0 0 1 3.94 4.38c.33 1.04.5 2.19.5 3.43V93h-1.74a1.8 1.8 0 0 1-.88-.18c-.2-.13-.36-.38-.48-.74l-.44-2.12-1.72 1.46a9.48 9.48 0 0 1-3.74 1.7c-.69.15-1.46.23-2.3.23-.87 0-1.69-.12-2.45-.35a5.33 5.33 0 0 1-3.34-2.93 6.62 6.62 0 0 1-.49-2.64c0-.88.25-1.72.73-2.53a6.33 6.33 0 0 1 2.35-2.17c1.09-.63 2.5-1.15 4.25-1.54a31.2 31.2 0 0 1 6.42-.7v-1.75c0-1.73-.37-3.03-1.12-3.91-.75-.9-1.84-1.34-3.28-1.34-.97 0-1.78.12-2.44.37-.64.23-1.2.5-1.7.81l-1.22.82c-.34.23-.68.35-1.02.35-.26 0-.49-.07-.68-.2a1.88 1.88 0 0 1-.48-.53l-.7-1.25zM40.98 32.25c0 2.36-.38 4.53-1.12 6.51a14.26 14.26 0 0 1-8.1 8.4c-1.9.78-4.02 1.17-6.34 1.17a16.6 16.6 0 0 1-6.33-1.17 14.31 14.31 0 0 1-8.08-8.4 18.29 18.29 0 0 1-1.12-6.51c0-2.36.38-4.53 1.12-6.5.75-1.97 1.8-3.67 3.17-5.1a14.32 14.32 0 0 1 4.9-3.34c1.92-.8 4.03-1.19 6.34-1.19 2.32 0 4.43.4 6.34 1.19 1.92.8 3.56 1.9 4.93 3.34a14.87 14.87 0 0 1 3.17 5.1 18.1 18.1 0 0 1 1.12 6.5zm-4.38 0c0-1.94-.26-3.68-.8-5.22a10.91 10.91 0 0 0-2.24-3.89 9.68 9.68 0 0 0-3.52-2.46 11.95 11.95 0 0 0-4.62-.86c-1.68 0-3.21.28-4.6.86a9.88 9.88 0 0 0-3.54 2.46 10.91 10.91 0 0 0-2.24 3.9c-.53 1.53-.8 3.27-.8 5.2 0 1.94.27 3.68.8 5.22a11.17 11.17 0 0 0 2.24 3.9 10.01 10.01 0 0 0 3.55 2.44c1.38.56 2.9.83 4.6.83s3.24-.27 4.61-.83a9.8 9.8 0 0 0 3.52-2.44 11.17 11.17 0 0 0 2.25-3.9c.53-1.54.8-3.28.8-5.21zm26.22-6.54V48H60.5c-.56 0-.9-.27-1.05-.81l-.31-2.4a12.45 12.45 0 0 1-3.26 2.6c-1.2.64-2.58.96-4.13.96-1.22 0-2.3-.2-3.24-.6a6.52 6.52 0 0 1-2.33-1.7 7.37 7.37 0 0 1-1.43-2.67c-.3-1.04-.46-2.2-.46-3.45V25.7h3.91v14.22c0 1.68.38 2.99 1.15 3.91.77.93 1.96 1.39 3.54 1.39 1.16 0 2.24-.27 3.23-.82a10.42 10.42 0 0 0 2.8-2.28V25.7h3.91zm8.61 4.47a9.94 9.94 0 0 1 2.6-3.56 5.64 5.64 0 0 1 3.76-1.3c.47 0 .92.05 1.34.15.44.1.83.27 1.17.49l-.3 2.92c-.09.37-.3.55-.66.55-.2 0-.5-.04-.9-.13a6.21 6.21 0 0 0-3.24.18 4.23 4.23 0 0 0-1.47.92c-.42.4-.81.9-1.17 1.5-.33.58-.64 1.26-.92 2.02V48H67.7V25.71h2.25c.42 0 .72.08.88.25.16.16.27.44.33.83l.26 3.39zm61.16-13.7L122.75 48h-3.82l-7.99-24.05a21.95 21.95 0 0 1-.42-1.58 38.36 38.36 0 0 1-.44 1.58L102.05 48h-3.83L88.4 16.47h3.54c.38 0 .7.1.95.29.26.2.43.43.5.73l6.52 21.9.28 1.28.29 1.46.3-1.46.38-1.27 7.41-21.91c.1-.25.26-.48.51-.69.27-.22.58-.33.95-.33h1.23c.38 0 .69.1.92.29a1.77 1.77 0 0 1 .53.73l7.4 21.9a28.4 28.4 0 0 1 .68 2.62 29.52 29.52 0 0 1 .52-2.61l6.54-21.91a1.31 1.31 0 0 1 .48-.7c.27-.21.58-.32.95-.32h3.32zm9.35 8.88c1.63 0 3.1.27 4.4.82a9.43 9.43 0 0 1 5.46 5.94c.5 1.4.74 2.98.74 4.73 0 1.76-.25 3.34-.74 4.75a9.43 9.43 0 0 1-5.46 5.92c-1.3.52-2.77.79-4.4.79-1.64 0-3.12-.27-4.44-.8a9.42 9.42 0 0 1-3.35-2.3c-.92-1-1.63-2.2-2.13-3.61-.49-1.41-.73-3-.73-4.75s.24-3.33.73-4.73c.5-1.43 1.2-2.64 2.13-3.63a9.4 9.4 0 0 1 3.35-2.31c1.32-.55 2.8-.82 4.44-.82zm0 19.89c2.2 0 3.84-.73 4.93-2.2 1.08-1.48 1.63-3.54 1.63-6.18 0-2.66-.55-4.72-1.63-6.2-1.09-1.49-2.73-2.23-4.93-2.23-1.12 0-2.09.2-2.93.57a5.71 5.71 0 0 0-2.06 1.65 7.5 7.5 0 0 0-1.24 2.67c-.26 1.04-.4 2.22-.4 3.54 0 2.64.55 4.7 1.64 6.18 1.1 1.47 2.76 2.2 4.99 2.2zm17.97-15.07a9.94 9.94 0 0 1 2.6-3.56 5.64 5.64 0 0 1 3.76-1.3c.47 0 .91.05 1.34.15.44.1.83.27 1.16.49l-.28 2.92c-.09.37-.31.55-.66.55-.2 0-.5-.04-.9-.13a6.2 6.2 0 0 0-3.24.18 4.23 4.23 0 0 0-1.47.92c-.43.4-.82.9-1.17 1.5a13.1 13.1 0 0 0-.92 2.02V48h-3.94V25.71h2.24c.43 0 .72.08.88.25.17.16.28.44.33.83l.27 3.39zm15.04-14.59V48h-3.92V15.6h3.92zm19.55 15.43a6.22 6.22 0 0 0-2.38-2.05 6.7 6.7 0 0 0-2.86-.6c-2.07 0-3.66.75-4.77 2.23-1.12 1.48-1.68 3.6-1.68 6.33 0 1.46.13 2.7.38 3.74a7.29 7.29 0 0 0 1.1 2.56 4.35 4.35 0 0 0 1.78 1.45c.7.3 1.5.46 2.4.46 1.29 0 2.41-.3 3.36-.88a9.6 9.6 0 0 0 2.67-2.49V31.02zm3.91-15.43V48h-2.33c-.56 0-.9-.27-1.06-.81l-.35-2.71a12.13 12.13 0 0 1-3.25 2.77 8.28 8.28 0 0 1-4.23 1.06 7.31 7.31 0 0 1-6.14-2.9c-.73-.96-1.3-2.15-1.69-3.57a18.35 18.35 0 0 1 .07-9.48 11.29 11.29 0 0 1 1.89-3.7 8.7 8.7 0 0 1 7.06-3.34 7.96 7.96 0 0 1 6.12 2.62V15.59h3.91zM46.61 70.71V93H42.7V70.71h3.91zm.84-7c0 .39-.08.75-.24 1.09a2.81 2.81 0 0 1-1.52 1.47 2.67 2.67 0 0 1-2.16 0 2.9 2.9 0 0 1-1.45-1.47 2.67 2.67 0 0 1 0-2.16c.15-.35.35-.65.6-.9.25-.27.53-.47.85-.62a2.67 2.67 0 0 1 2.16 0c.35.15.65.35.9.62.27.25.47.55.62.9.16.34.24.7.24 1.08zm7.97 10.24c.49-.54 1-1.04 1.54-1.48a9.85 9.85 0 0 1 3.66-1.84 8.96 8.96 0 0 1 5.43.35c.94.4 1.72.97 2.33 1.71a7.36 7.36 0 0 1 1.43 2.67c.32 1.04.49 2.19.49 3.45V93h-3.94V78.81c0-1.69-.4-3-1.17-3.92-.76-.93-1.93-1.4-3.5-1.4a6.6 6.6 0 0 0-3.25.83c-1 .56-1.92 1.31-2.77 2.27V93h-3.94V70.71h2.35c.56 0 .9.28 1.04.82l.3 2.42zm57.7 3.3c0 2.36-.37 4.5-1.11 6.44a14.3 14.3 0 0 1-3.17 4.98 14.1 14.1 0 0 1-4.93 3.2c-1.9.76-4.02 1.13-6.33 1.13H85.8V61.47h11.77c2.31 0 4.42.39 6.33 1.15a13.8 13.8 0 0 1 8.1 8.18 17.75 17.75 0 0 1 1.12 6.45zm-4.37 0c0-1.94-.26-3.67-.8-5.2a10.94 10.94 0 0 0-2.23-3.87 9.57 9.57 0 0 0-3.53-2.42 12.23 12.23 0 0 0-4.61-.83h-7.5v24.62h7.5c1.7 0 3.24-.28 4.61-.84a9.7 9.7 0 0 0 3.53-2.4 10.94 10.94 0 0 0 2.24-3.87c.53-1.53.8-3.26.8-5.2zm19.8 5.72c-1.8.06-3.34.2-4.62.44-1.26.22-2.3.51-3.1.88-.8.36-1.37.8-1.74 1.3-.35.5-.53 1.05-.53 1.67 0 .58.1 1.1.3 1.52a3 3 0 0 0 .76 1.05c.34.27.73.46 1.17.6a6.13 6.13 0 0 0 1.45.17 7.28 7.28 0 0 0 3.5-.81 11.95 11.95 0 0 0 2.82-2.2v-4.62zm-12.65-9.11a12.73 12.73 0 0 1 3.98-2.66c1.43-.59 3-.88 4.73-.88 1.25 0 2.36.2 3.33.61a6.81 6.81 0 0 1 3.94 4.38c.33 1.04.5 2.19.5 3.43V93h-1.74a1.8 1.8 0 0 1-.88-.18c-.2-.13-.36-.38-.48-.74l-.44-2.12-1.72 1.46a9.48 9.48 0 0 1-3.74 1.7c-.69.15-1.46.23-2.3.23-.87 0-1.69-.12-2.45-.35a5.34 5.34 0 0 1-3.34-2.93 6.64 6.64 0 0 1-.49-2.64c0-.88.25-1.72.73-2.53a6.33 6.33 0 0 1 2.35-2.17c1.09-.63 2.5-1.15 4.25-1.54 1.75-.41 3.89-.65 6.42-.7v-1.75c0-1.73-.37-3.03-1.12-3.91-.75-.9-1.84-1.34-3.28-1.34-.97 0-1.78.12-2.44.37-.64.23-1.2.5-1.7.81l-1.23.82c-.33.23-.67.35-1 .35-.27 0-.5-.07-.69-.2a2.1 2.1 0 0 1-.48-.53l-.7-1.25zm27.67 19.5c-1.76 0-3.12-.5-4.07-1.48-.94-.98-1.41-2.4-1.41-4.25V74h-2.68a.9.9 0 0 1-.6-.2c-.16-.14-.24-.36-.24-.66v-1.56l3.65-.46.9-6.89a.9.9 0 0 1 .29-.52.88.88 0 0 1 .62-.22H142v7.67h6.44V74H142v13.38c0 .94.22 1.63.68 2.09.45.45 1.04.68 1.76.68a3.21 3.21 0 0 0 1.85-.53l.55-.35c.16-.12.3-.18.41-.18.2 0 .4.13.55.38l1.15 1.87a7.45 7.45 0 0 1-2.44 1.5 8.53 8.53 0 0 1-2.95.52zm19.68-10.4c-1.8.07-3.34.21-4.62.45-1.26.22-2.3.51-3.1.88-.8.36-1.37.8-1.74 1.3-.35.5-.53 1.05-.53 1.67 0 .58.1 1.1.3 1.52a2.9 2.9 0 0 0 .76 1.05c.34.27.73.46 1.17.6a6.13 6.13 0 0 0 1.45.17 7.3 7.3 0 0 0 3.5-.81 12.04 12.04 0 0 0 2.82-2.2v-4.62zm-12.65-9.1a12.72 12.72 0 0 1 3.99-2.66c1.42-.59 3-.88 4.72-.88 1.25 0 2.36.2 3.33.61a6.81 6.81 0 0 1 3.94 4.38c.33 1.04.5 2.19.5 3.43V93h-1.74a1.8 1.8 0 0 1-.88-.18c-.2-.13-.36-.38-.48-.74l-.44-2.12-1.72 1.46a9.48 9.48 0 0 1-3.74 1.7c-.69.15-1.46.23-2.3.23-.87 0-1.69-.12-2.45-.35a5.33 5.33 0 0 1-3.34-2.93 6.62 6.62 0 0 1-.49-2.64c0-.88.25-1.72.73-2.53a6.33 6.33 0 0 1 2.35-2.17c1.09-.63 2.5-1.15 4.25-1.54a31.2 31.2 0 0 1 6.42-.7v-1.75c0-1.73-.37-3.03-1.12-3.91-.75-.9-1.84-1.34-3.28-1.34-.97 0-1.78.12-2.44.37-.64.23-1.2.5-1.7.81l-1.22.82c-.34.23-.68.35-1.02.35-.26 0-.49-.07-.68-.2a1.88 1.88 0 0 1-.48-.53l-.7-1.25zM40.98 32.25c0 2.36-.38 4.53-1.12 6.51a14.26 14.26 0 0 1-8.1 8.4c-1.9.78-4.02 1.17-6.34 1.17a16.6 16.6 0 0 1-6.33-1.17 14.31 14.31 0 0 1-8.08-8.4 18.29 18.29 0 0 1-1.12-6.51c0-2.36.38-4.53 1.12-6.5.75-1.97 1.8-3.67 3.17-5.1a14.32 14.32 0 0 1 4.9-3.34c1.92-.8 4.03-1.19 6.34-1.19 2.32 0 4.43.4 6.34 1.19 1.92.8 3.56 1.9 4.93 3.34a14.87 14.87 0 0 1 3.17 5.1 18.1 18.1 0 0 1 1.12 6.5zm-4.38 0c0-1.94-.26-3.68-.8-5.22a10.91 10.91 0 0 0-2.24-3.89 9.68 9.68 0 0 0-3.52-2.46 11.95 11.95 0 0 0-4.62-.86c-1.68 0-3.21.28-4.6.86a9.88 9.88 0 0 0-3.54 2.46 10.91 10.91 0 0 0-2.24 3.9c-.53 1.53-.8 3.27-.8 5.2 0 1.94.27 3.68.8 5.22a11.17 11.17 0 0 0 2.24 3.9 10.01 10.01 0 0 0 3.55 2.44c1.38.56 2.9.83 4.6.83s3.24-.27 4.61-.83a9.8 9.8 0 0 0 3.52-2.44 11.17 11.17 0 0 0 2.25-3.9c.53-1.54.8-3.28.8-5.21zm26.22-6.54V48H60.5c-.56 0-.9-.27-1.05-.81l-.31-2.4a12.45 12.45 0 0 1-3.26 2.6c-1.2.64-2.58.96-4.13.96-1.22 0-2.3-.2-3.24-.6a6.52 6.52 0 0 1-2.33-1.7 7.37 7.37 0 0 1-1.43-2.67c-.3-1.04-.46-2.2-.46-3.45V25.7h3.91v14.22c0 1.68.38 2.99 1.15 3.91.77.93 1.96 1.39 3.54 1.39 1.16 0 2.24-.27 3.23-.82a10.42 10.42 0 0 0 2.8-2.28V25.7h3.91zm8.61 4.47a9.94 9.94 0 0 1 2.6-3.56 5.64 5.64 0 0 1 3.76-1.3c.47 0 .92.05 1.34.15.44.1.83.27 1.17.49l-.3 2.92c-.09.37-.3.55-.66.55-.2 0-.5-.04-.9-.13a6.21 6.21 0 0 0-3.24.18 4.23 4.23 0 0 0-1.47.92c-.42.4-.81.9-1.17 1.5-.33.58-.64 1.26-.92 2.02V48H67.7V25.71h2.25c.42 0 .72.08.88.25.16.16.27.44.33.83l.26 3.39zm61.16-13.7L122.75 48h-3.82l-7.99-24.05a21.95 21.95 0 0 1-.42-1.58 38.36 38.36 0 0 1-.44 1.58L102.05 48h-3.83L88.4 16.47h3.54c.38 0 .7.1.95.29.26.2.43.43.5.73l6.52 21.9.28 1.28.29 1.46.3-1.46.38-1.27 7.41-21.91c.1-.25.26-.48.51-.69.27-.22.58-.33.95-.33h1.23c.38 0 .69.1.92.29a1.77 1.77 0 0 1 .53.73l7.4 21.9a28.4 28.4 0 0 1 .68 2.62 29.52 29.52 0 0 1 .52-2.61l6.54-21.91a1.31 1.31 0 0 1 .48-.7c.27-.21.58-.32.95-.32h3.32zm9.35 8.88c1.63 0 3.1.27 4.4.82a9.43 9.43 0 0 1 5.46 5.94c.5 1.4.74 2.98.74 4.73 0 1.76-.25 3.34-.74 4.75a9.43 9.43 0 0 1-5.46 5.92c-1.3.52-2.77.79-4.4.79-1.64 0-3.12-.27-4.44-.8a9.42 9.42 0 0 1-3.35-2.3c-.92-1-1.63-2.2-2.13-3.61-.49-1.41-.73-3-.73-4.75s.24-3.33.73-4.73c.5-1.43 1.2-2.64 2.13-3.63a9.4 9.4 0 0 1 3.35-2.31c1.32-.55 2.8-.82 4.44-.82zm0 19.89c2.2 0 3.84-.73 4.93-2.2 1.08-1.48 1.63-3.54 1.63-6.18 0-2.66-.55-4.72-1.63-6.2-1.09-1.49-2.73-2.23-4.93-2.23-1.12 0-2.09.2-2.93.57a5.71 5.71 0 0 0-2.06 1.65 7.5 7.5 0 0 0-1.24 2.67c-.26 1.04-.4 2.22-.4 3.54 0 2.64.55 4.7 1.64 6.18 1.1 1.47 2.76 2.2 4.99 2.2zm17.97-15.07a9.94 9.94 0 0 1 2.6-3.56 5.64 5.64 0 0 1 3.76-1.3c.47 0 .91.05 1.34.15.44.1.83.27 1.16.49l-.28 2.92c-.09.37-.31.55-.66.55-.2 0-.5-.04-.9-.13a6.2 6.2 0 0 0-3.24.18 4.23 4.23 0 0 0-1.47.92c-.43.4-.82.9-1.17 1.5a13.1 13.1 0 0 0-.92 2.02V48h-3.94V25.71h2.24c.43 0 .72.08.88.25.17.16.28.44.33.83l.27 3.39zm15.04-14.59V48h-3.92V15.6h3.92zm19.55 15.43a6.22 6.22 0 0 0-2.38-2.05 6.7 6.7 0 0 0-2.86-.6c-2.07 0-3.66.75-4.77 2.23-1.12 1.48-1.68 3.6-1.68 6.33 0 1.46.13 2.7.38 3.74a7.29 7.29 0 0 0 1.1 2.56 4.35 4.35 0 0 0 1.78 1.45c.7.3 1.5.46 2.4.46 1.29 0 2.41-.3 3.36-.88a9.6 9.6 0 0 0 2.67-2.49V31.02zm3.91-15.43V48h-2.33c-.56 0-.9-.27-1.06-.81l-.35-2.71a12.13 12.13 0 0 1-3.25 2.77 8.28 8.28 0 0 1-4.23 1.06 7.31 7.31 0 0 1-6.14-2.9c-.73-.96-1.3-2.15-1.69-3.57a18.35 18.35 0 0 1 .07-9.48 11.29 11.29 0 0 1 1.89-3.7 8.7 8.7 0 0 1 7.06-3.34 7.96 7.96 0 0 1 6.12 2.62V15.59h3.91zM46.61 70.71V93H42.7V70.71h3.91zm.84-7c0 .39-.08.75-.24 1.09a2.81 2.81 0 0 1-1.52 1.47 2.67 2.67 0 0 1-2.16 0 2.9 2.9 0 0 1-1.45-1.47 2.67 2.67 0 0 1 0-2.16c.15-.35.35-.65.6-.9.25-.27.53-.47.85-.62a2.67 2.67 0 0 1 2.16 0c.35.15.65.35.9.62.27.25.47.55.62.9.16.34.24.7.24 1.08zm7.97 10.24c.49-.54 1-1.04 1.54-1.48a9.85 9.85 0 0 1 3.66-1.84 8.96 8.96 0 0 1 5.43.35c.94.4 1.72.97 2.33 1.71a7.36 7.36 0 0 1 1.43 2.67c.32 1.04.49 2.19.49 3.45V93h-3.94V78.81c0-1.69-.4-3-1.17-3.92-.76-.93-1.93-1.4-3.5-1.4a6.6 6.6 0 0 0-3.25.83c-1 .56-1.92 1.31-2.77 2.27V93h-3.94V70.71h2.35c.56 0 .9.28 1.04.82l.3 2.42zm57.7 3.3c0 2.36-.37 4.5-1.11 6.44a14.3 14.3 0 0 1-3.17 4.98 14.1 14.1 0 0 1-4.93 3.2c-1.9.76-4.02 1.13-6.33 1.13H85.8V61.47h11.77c2.31 0 4.42.39 6.33 1.15a13.8 13.8 0 0 1 8.1 8.18 17.75 17.75 0 0 1 1.12 6.45zm-4.37 0c0-1.94-.26-3.67-.8-5.2a10.94 10.94 0 0 0-2.23-3.87 9.57 9.57 0 0 0-3.53-2.42 12.23 12.23 0 0 0-4.61-.83h-7.5v24.62h7.5c1.7 0 3.24-.28 4.61-.84a9.7 9.7 0 0 0 3.53-2.4 10.94 10.94 0 0 0 2.24-3.87c.53-1.53.8-3.26.8-5.2zm19.8 5.72c-1.8.06-3.34.2-4.62.44-1.26.22-2.3.51-3.1.88-.8.36-1.37.8-1.74 1.3-.35.5-.53 1.05-.53 1.67 0 .58.1 1.1.3 1.52a3 3 0 0 0 .76 1.05c.34.27.73.46 1.17.6a6.13 6.13 0 0 0 1.45.17 7.28 7.28 0 0 0 3.5-.81 11.95 11.95 0 0 0 2.82-2.2v-4.62zm-12.65-9.11a12.73 12.73 0 0 1 3.98-2.66c1.43-.59 3-.88 4.73-.88 1.25 0 2.36.2 3.33.61a6.81 6.81 0 0 1 3.94 4.38c.33 1.04.5 2.19.5 3.43V93h-1.74a1.8 1.8 0 0 1-.88-.18c-.2-.13-.36-.38-.48-.74l-.44-2.12-1.72 1.46a9.48 9.48 0 0 1-3.74 1.7c-.69.15-1.46.23-2.3.23-.87 0-1.69-.12-2.45-.35a5.34 5.34 0 0 1-3.34-2.93 6.64 6.64 0 0 1-.49-2.64c0-.88.25-1.72.73-2.53a6.33 6.33 0 0 1 2.35-2.17c1.09-.63 2.5-1.15 4.25-1.54 1.75-.41 3.89-.65 6.42-.7v-1.75c0-1.73-.37-3.03-1.12-3.91-.75-.9-1.84-1.34-3.28-1.34-.97 0-1.78.12-2.44.37-.64.23-1.2.5-1.7.81l-1.23.82c-.33.23-.67.35-1 .35-.27 0-.5-.07-.69-.2a2.1 2.1 0 0 1-.48-.53l-.7-1.25zm27.67 19.5c-1.76 0-3.12-.5-4.07-1.48-.94-.98-1.41-2.4-1.41-4.25V74h-2.68a.9.9 0 0 1-.6-.2c-.16-.14-.24-.36-.24-.66v-1.56l3.65-.46.9-6.89a.9.9 0 0 1 .29-.52.88.88 0 0 1 .62-.22H142v7.67h6.44V74H142v13.38c0 .94.22 1.63.68 2.09.45.45 1.04.68 1.76.68a3.21 3.21 0 0 0 1.85-.53l.55-.35c.16-.12.3-.18.41-.18.2 0 .4.13.55.38l1.15 1.87a7.45 7.45 0 0 1-2.44 1.5 8.53 8.53 0 0 1-2.95.52zm19.68-10.4c-1.8.07-3.34.21-4.62.45-1.26.22-2.3.51-3.1.88-.8.36-1.37.8-1.74 1.3-.35.5-.53 1.05-.53 1.67 0 .58.1 1.1.3 1.52a2.9 2.9 0 0 0 .76 1.05c.34.27.73.46 1.17.6a6.13 6.13 0 0 0 1.45.17 7.3 7.3 0 0 0 3.5-.81 12.04 12.04 0 0 0 2.82-2.2v-4.62zm-12.65-9.1a12.72 12.72 0 0 1 3.99-2.66c1.42-.59 3-.88 4.72-.88 1.25 0 2.36.2 3.33.61a6.81 6.81 0 0 1 3.94 4.38c.33 1.04.5 2.19.5 3.43V93h-1.74a1.8 1.8 0 0 1-.88-.18c-.2-.13-.36-.38-.48-.74l-.44-2.12-1.72 1.46a9.48 9.48 0 0 1-3.74 1.7c-.69.15-1.46.23-2.3.23-.87 0-1.69-.12-2.45-.35a5.33 5.33 0 0 1-3.34-2.93 6.62 6.62 0 0 1-.49-2.64c0-.88.25-1.72.73-2.53a6.33 6.33 0 0 1 2.35-2.17c1.09-.63 2.5-1.15 4.25-1.54a31.2 31.2 0 0 1 6.42-.7v-1.75c0-1.73-.37-3.03-1.12-3.91-.75-.9-1.84-1.34-3.28-1.34-.97 0-1.78.12-2.44.37-.64.23-1.2.5-1.7.81l-1.22.82c-.34.23-.68.35-1.02.35-.26 0-.49-.07-.68-.2a1.88 1.88 0 0 1-.48-.53l-.7-1.25z" fill="#fff"/><path fill="#D42B21" d="M0 106.79h210V120H0z"/></g><defs><clipPath id="a"><path fill="#fff" d="M0 0h210v120H0z"/></clipPath></defs></svg></g><a href="https://ourworldindata.org/grapher/covid-people-vaccinated-marimekko" style="font-family:&quot;Playfair Display&quot;,Georgia,&quot;Times New Roman&quot;,serif" target="_blank" rel="noopener"><text font-size="23.4" x="15" y="35.4" fill="#555"><tspan x="15" y="35.36">Share of people who received at least one dose of COVID-19 vaccine</tspan></text></a></g><g class="MarimekkoChart"><g class="DualAxisView"><g class="HorizontalAxis"><text font-size="12.6" x="325.7" y="108.5"><tspan x="325.69" y="108.46">Share of world population in 2021</tspan></text><path stroke="#999" d="M84.2 136.3v5M232.4 136.3v5M380.5 136.3v5M528.7 136.3v5M676.8 136.3v5M825 136.3v5"/><text x="84.23" y="130.1" fill="#666" text-anchor="start" font-size="16.2">0%</text><text x="232.4" y="130.1" fill="#666" text-anchor="middle" font-size="16.2">20%</text><text x="380.5" y="130.1" fill="#666" text-anchor="middle" font-size="16.2">40%</text><text x="528.7" y="130.1" fill="#666" text-anchor="middle" font-size="16.2">60%</text><text x="676.8" y="130.1" fill="#666" text-anchor="middle" font-size="16.2">80%</text><text x="825" y="130.1" fill="#666" text-anchor="end" font-size="16.2">100%</text></g><g class="VerticalAxis"><text font-size="12.6" x="-377.2" y="26" transform="rotate(-90)"><tspan x="-377.18" y="25.96">% of population with at least one dose</tspan></text><text x="79.23" y="443.5" dy=".32em" text-anchor="end" fill="#666" font-size="16.2">0%</text><text x="79.23" y="386.9" dy=".32em" text-anchor="end" fill="#666" font-size="16.2">20%</text><text x="79.23" y="330.2" dy=".32em" text-anchor="end" fill="#666" font-size="16.2">40%</text><text x="79.23" y="273.6" dy=".32em" text-anchor="end" fill="#666" font-size="16.2">60%</text><text x="79.23" y="216.9" dy=".32em" text-anchor="end" fill="#666" font-size="16.2">80%</text><text x="79.23" y="160.2" dy=".32em" text-anchor="end" fill="#666" font-size="16.2">100%</text></g><g class="AxisGridLines horizontalLines"><path stroke="#999" d="M84.23 443.5H825"/><path stroke="#ddd" stroke-dasharray="3,2" d="M84.23 386.9H825M84.23 330.2H825M84.23 273.6H825M84.23 216.9H825M84.23 160.2H825"/></g><g class="AxisGridLines verticalLines"><path stroke="#999" d="M84.2 443.54V141.3"/><path stroke="#ddd" stroke-dasharray="3,2" d="M232.4 443.54V141.3M380.5 443.54V141.3M528.7 443.54V141.3M676.8 443.54V141.3M825 443.54V141.3"/></g></g><g><g class="categoricalColorLegend"><g><path fill="#923E8B" opacity=".7" d="M15 66h13.5v13.5H15z"/>,<text x="33.5" y="72.75" dy=".32em" font-size="14.4">Africa</text></g><g><path fill="#2D8587" opacity=".7" d="M82.36 66h13.5v13.5h-13.5z"/>,<text x="100.86" y="72.75" dy=".32em" font-size="14.4">Asia</text></g><g><path fill="#4C5C78" opacity=".7" d="M140.94 66h13.5v13.5h-13.5z"/>,<text x="159.44" y="72.75" dy=".32em" font-size="14.4">Europe</text></g><g><path fill="#E04E4B" opacity=".7" d="M218.1 66h13.5v13.5h-13.5z"/>,<text x="236.6" y="72.75" dy=".32em" font-size="14.4">North America</text></g><g><path fill="#A8633C" opacity=".7" d="M340.76 66h13.5v13.5h-13.5z"/>,<text x="359.26" y="72.75" dy=".32em" font-size="14.4">Oceania</text></g><g><path fill="#932834" opacity=".7" d="M425.12 66h13.5v13.5h-13.5z"/>,<text x="443.62" y="72.75" dy=".32em" font-size="14.4">South America</text></g></g></g><g class="bar"><g><path transform="translate(84.2 141.3)" fill="#2D8587" fill-opacity=".7" stroke="#2D8587" stroke-width=".5" stroke-opacity="1" opacity="1" style="transition:translate 200ms ease" d="M0 0h1v302.2H0z"/></g></g><g class="bar"><g><path transform="translate(85.2 154.4)" fill="#2D8587" fill-opacity=".7" stroke="#2D8587" stroke-width=".5" stroke-opacity="1" opacity="1" style="transition:translate 200ms ease" d="M0 0h.3v289.1H0z"/></g></g><g class="bar"><g><path transform="translate(85.5 159.9)" fill="#2D8587" fill-opacity=".7" stroke="#2D8587" stroke-width=".5" stroke-opacity="1" opacity="1" style="transition:translate 200ms ease" d="M0 0h.1v283.6H0z"/></g></g><g class="bar"><g><path transform="translate(85.6 174.6)" fill="#E04E4B" fill-opacity=".7" stroke="#E04E4B" stroke-width=".5" stroke-opacity="1" opacity="1" style="transition:translate 200ms ease" d="M0 0h1.1v268.9H0z"/></g></g><g class="bar"><g><path transform="translate(86.7 175.4)" fill="#4C5C78" fill-opacity=".7" stroke="#4C5C78" stroke-width=".5" stroke-opacity="1" opacity="1" style="transition:translate 200ms ease" d="M0 0h1v268.1H0z"/></g></g><g class="bar"><g><path transform="translate(87.7 181.4)" fill="#932834" fill-opacity=".7" stroke="#932834" stroke-width=".5" stroke-opacity="1" opacity="1" style="transition:translate 200ms ease" d="M0 0h1.8v262.1H0z"/></g></g><g class="bar"><g><path transform="translate(89.5 182.6)" fill="#2D8587" fill-opacity=".7" stroke="#2D8587" stroke-width=".5" stroke-opacity="1" opacity="1" style="transition:translate 200ms ease" d="M0 0h.6v260.9H0z"/></g></g><g class="bar"><g><path transform="translate(90.1 185.4)" fill="#2D8587" fill-opacity=".7" stroke="#2D8587" stroke-width=".5" stroke-opacity="1" opacity="1" style="transition:translate 200ms ease" d="M0 0h1.7v258.1H0z"/></g></g><g class="bar"><g><path transform="translate(91.8 185.5)" fill="#2D8587" fill-opacity=".7" stroke="#2D8587" stroke-width=".5" stroke-opacity="1" opacity="1" style="transition:translate 200ms ease" d="M0 0h135.9v258H0z"/></g></g><g class="bar"><g><path transform="translate(227.7 185.6)" fill="#932834" fill-opacity=".7" stroke="#932834" stroke-width=".5" stroke-opacity="1" opacity="1" style="transition:translate 200ms ease" d="M0 0h4.3v257.9H0z"/></g></g><g class="bar"><g><path transform="translate(232 186.7)" fill="#4C5C78" fill-opacity=".7" stroke="#4C5C78" stroke-width=".5" stroke-opacity="1" opacity="1" style="transition:translate 200ms ease" d="M0 0h.1v256.8H0z"/></g></g><g class="bar"><g><path transform="translate(232.1 187.4)" fill="#2D8587" fill-opacity=".7" stroke="#2D8587" stroke-width=".5" stroke-opacity="1" opacity="1" style="transition:translate 200ms ease" d="M0 0h.8v256.1H0z"/></g></g><g class="bar"><g><path transform="translate(232.9 188.6)" fill="#2D8587" fill-opacity=".7" stroke="#2D8587" stroke-width=".5" stroke-opacity="1" opacity="1" style="transition:translate 200ms ease" d="M0 0h9.3v254.9H0z"/></g></g><g class="bar"><g><path transform="translate(242.2 188.9)" fill="#2D8587" fill-opacity=".7" stroke="#2D8587" stroke-width=".5" stroke-opacity="1" opacity="1" style="transition:translate 200ms ease" d="M0 0h.1v254.6H0z"/></g></g><g class="bar"><g><path transform="translate(242.3 190.1)" fill="#2D8587" fill-opacity=".7" stroke="#2D8587" stroke-width=".5" stroke-opacity="1" opacity="1" style="transition:translate 200ms ease" d="M0 0h2.3v253.4H0z"/></g></g><g class="bar"><g><path transform="translate(244.6 190.6)" fill="#2D8587" fill-opacity=".7" stroke="#2D8587" stroke-width=".5" stroke-opacity="1" opacity="1" style="transition:translate 200ms ease" d="M0 0h.1v252.9H0z"/></g></g><g class="bar"><g><path transform="translate(244.7 193.9)" fill="#932834" fill-opacity=".7" stroke="#932834" stroke-width=".5" stroke-opacity="1" opacity="1" style="transition:translate 200ms ease" d="M0 0h3.1v249.6H0z"/></g></g><g class="bar"><g><path transform="translate(247.8 195)" fill="#E04E4B" fill-opacity=".7" stroke="#E04E4B" stroke-width=".5" stroke-opacity="1" opacity="1" style="transition:translate 200ms ease" d="M0 0h.7v248.5H0z"/></g></g><g class="bar"><g><path transform="translate(248.5 195.5)" fill="#932834" fill-opacity=".7" stroke="#932834" stroke-width=".5" stroke-opacity="1" opacity="1" style="transition:translate 200ms ease" d="M0 0h.3v248H0z"/></g></g><g class="bar"><g><path transform="translate(248.8 197.1)" fill="#2D8587" fill-opacity=".7" stroke="#2D8587" stroke-width=".5" stroke-opacity="1" opacity="1" style="transition:translate 200ms ease" d="M0 0h4.8v246.4H0z"/></g></g><g class="bar"><g><path transform="translate(253.6 197.3)" fill="#4C5C78" fill-opacity=".7" stroke="#4C5C78" stroke-width=".5" stroke-opacity="1" opacity="1" style="transition:translate 200ms ease" d="M0 0h4.4v246.2H0z"/></g></g><g class="bar"><g><path transform="translate(258 198.4)" fill="#E04E4B" fill-opacity=".7" stroke="#E04E4B" stroke-width=".5" stroke-opacity="1" opacity="1" style="transition:translate 200ms ease" d="M0 0h.6v245.1H0z"/></g></g><g class="bar"><g><path transform="translate(258.6 198.7)" fill="#A8633C" fill-opacity=".7" stroke="#A8633C" stroke-width=".5" stroke-opacity="1" opacity="1" style="transition:translate 200ms ease" d="M0 0h2.5v244.8H0z"/></g></g><g class="bar"><g><path transform="translate(261.1 198.7)" fill="#932834" fill-opacity=".7" stroke="#932834" stroke-width=".5" stroke-opacity="1" opacity="1" style="transition:translate 200ms ease" d="M0 0h20.2v244.8H0z"/></g></g><g class="bar"><g><path transform="translate(281.3 200)" fill="#E04E4B" fill-opacity=".7" stroke="#E04E4B" stroke-width=".5" stroke-opacity="1" opacity="1" style="transition:translate 200ms ease" d="M0 0h3.6v243.5H0z"/></g></g><g class="bar"><g><path transform="translate(284.9 200.5)" fill="#4C5C78" fill-opacity=".7" stroke="#4C5C78" stroke-width=".5" stroke-opacity="1" opacity="1" style="transition:translate 200ms ease" d="M0 0h5.7v243H0z"/></g></g><g class="bar"><g><path transform="translate(290.6 201.2)" fill="#932834" fill-opacity=".7" stroke="#932834" stroke-width=".5" stroke-opacity="1" opacity="1" style="transition:translate 200ms ease" d="M0 0h1.7v242.3H0z"/></g></g><g class="bar"><g><path transform="translate(292.3 203.5)" fill="#2D8587" fill-opacity=".7" stroke="#2D8587" stroke-width=".5" stroke-opacity="1" opacity="1" style="transition:translate 200ms ease" d="M0 0h.2v240H0z"/></g></g><g class="bar"><g><path transform="translate(292.5 206.3)" fill="#A8633C" fill-opacity=".7" stroke="#A8633C" stroke-width=".5" stroke-opacity="1" opacity="1" style="transition:translate 200ms ease" d="M0 0h.5v237.2H0z"/></g></g><g class="bar"><g><path transform="translate(293 206.6)" fill="#2D8587" fill-opacity=".7" stroke="#2D8587" stroke-width=".5" stroke-opacity="1" opacity="1" style="transition:translate 200ms ease" d="M0 0h3.1v236.9H0z"/></g></g><g class="bar"><g><path transform="translate(296.1 207.2)" fill="#2D8587" fill-opacity=".7" stroke="#2D8587" stroke-width=".5" stroke-opacity="1" opacity="1" style="transition:translate 200ms ease" d="M0 0h11.9v236.3H0z"/></g></g><g class="bar"><g><path transform="translate(308 207.5)" fill="#2D8587" fill-opacity=".7" stroke="#2D8587" stroke-width=".5" stroke-opacity="1" opacity="1" style="transition:translate 200ms ease" d="M0 0h2.8v236H0z"/></g></g><g class="bar"><g><path transform="translate(310.8 209.4)" fill="#932834" fill-opacity=".7" stroke="#932834" stroke-width=".5" stroke-opacity="1" opacity="1" style="transition:translate 200ms ease" d="M0 0h4.8v234.1H0z"/></g></g><g class="bar"><g><path transform="translate(315.6 210.1)" fill="#4C5C78" fill-opacity=".7" stroke="#4C5C78" stroke-width=".5" stroke-opacity="1" opacity="1" style="transition:translate 200ms ease" d="M0 0h.6v233.4H0z"/></g></g><g class="bar"><g><path transform="translate(316.2 211)" fill="#4C5C78" fill-opacity=".7" stroke="#4C5C78" stroke-width=".5" stroke-opacity="1" opacity="1" style="transition:translate 200ms ease" d="M0 0h.5v232.5H0z"/></g></g><g class="bar"><g><path transform="translate(316.7 212.2)" fill="#4C5C78" fill-opacity=".7" stroke="#4C5C78" stroke-width=".5" stroke-opacity="1" opacity="1" style="transition:translate 200ms ease" d="M0 0h.6v231.3H0z"/></g></g><g class="bar"><g><path transform="translate(317.3 213.3)" fill="#923E8B" fill-opacity=".7" stroke="#923E8B" stroke-width=".5" stroke-opacity="1" opacity="1" style="transition:translate 200ms ease" d="M0 0h1.3v230.2H0z"/></g></g><g class="bar"><g><path transform="translate(318.6 214.3)" fill="#2D8587" fill-opacity=".7" stroke="#2D8587" stroke-width=".5" stroke-opacity="1" opacity="1" style="transition:translate 200ms ease" d="M0 0h.4v229.2H0z"/></g></g><g class="bar"><g><path transform="translate(319 214.4)" fill="#4C5C78" fill-opacity=".7" stroke="#4C5C78" stroke-width=".5" stroke-opacity="1" opacity="1" style="transition:translate 200ms ease" d="M0 0h6.2v229.1H0z"/></g></g><g class="bar"><g><path transform="translate(325.2 215.8)" fill="#4C5C78" fill-opacity=".7" stroke="#4C5C78" stroke-width=".5" stroke-opacity="1" opacity="1" style="transition:translate 200ms ease" d="M0 0h.6v227.7H0z"/></g></g><g class="bar"><g><path transform="translate(325.8 216.2)" fill="#E04E4B" fill-opacity=".7" stroke="#E04E4B" stroke-width=".5" stroke-opacity="1" opacity="1" style="transition:translate 200ms ease" d="M0 0h.5v227.3H0z"/></g></g><g class="bar"><g><path transform="translate(326.3 217.4)" fill="#4C5C78" fill-opacity=".7" stroke="#4C5C78" stroke-width=".5" stroke-opacity="1" opacity="1" style="transition:translate 200ms ease" d="M0 0h6.5v226.1H0z"/></g></g><g class="bar"><g><path transform="translate(332.8 217.8)" fill="#4C5C78" fill-opacity=".7" stroke="#4C5C78" stroke-width=".5" stroke-opacity="1" opacity="1" style="transition:translate 200ms ease" d="M0 0h1.1v225.7H0z"/></g></g><g class="bar"><g><path transform="translate(333.9 218.5)" fill="#2D8587" fill-opacity=".7" stroke="#2D8587" stroke-width=".5" stroke-opacity="1" opacity="1" style="transition:translate 200ms ease" d="M0 0h6.6v225H0z"/></g></g><g class="bar"><g><path transform="translate(340.5 219)" fill="#2D8587" fill-opacity=".7" stroke="#2D8587" stroke-width=".5" stroke-opacity="1" opacity="1" style="transition:translate 200ms ease" d="M0 0h.7v224.5H0z"/></g></g><g class="bar"><g><path transform="translate(341.2 220.3)" fill="#E04E4B" fill-opacity=".7" stroke="#E04E4B" stroke-width=".5" stroke-opacity="1" opacity="1" style="transition:translate 200ms ease" d="M0 0h31.4v223.2H0z"/></g></g><g class="bar"><g><path transform="translate(372.6 220.6)" fill="#923E8B" fill-opacity=".7" stroke="#923E8B" stroke-width=".5" stroke-opacity="1" opacity="1" style="transition:translate 200ms ease" d="M0 0h.2v222.9H0z"/></g></g><g class="bar"><g><path transform="translate(372.8 221)" fill="#2D8587" fill-opacity=".7" stroke="#2D8587" stroke-width=".5" stroke-opacity="1" opacity="1" style="transition:translate 200ms ease" d="M0 0h2v222.5H0z"/></g></g><g class="bar"><g><path transform="translate(374.8 223.6)" fill="#4C5C78" fill-opacity=".7" stroke="#4C5C78" stroke-width=".5" stroke-opacity="1" opacity="1" style="transition:translate 200ms ease" d="M0 0h8v219.9H0z"/></g></g><g class="bar"><g><path transform="translate(382.8 225)" fill="#4C5C78" fill-opacity=".7" stroke="#4C5C78" stroke-width=".5" stroke-opacity="1" opacity="1" style="transition:translate 200ms ease" d="M0 0h.8v218.5H0z"/></g></g><g class="bar"><g><path transform="translate(383.6 225.8)" fill="#2D8587" fill-opacity=".7" stroke="#2D8587" stroke-width=".5" stroke-opacity="1" opacity="1" style="transition:translate 200ms ease" d="M0 0h15.7v217.7H0z"/></g></g><g class="bar"><g><path transform="translate(399.3 226.5)" fill="#A8633C" fill-opacity=".7" stroke="#A8633C" stroke-width=".5" stroke-opacity="1" opacity="1" style="transition:translate 200ms ease" d="M0 0h.1v217H0z"/></g></g><g class="bar"><g><path transform="translate(399.4 226.7)" fill="#2D8587" fill-opacity=".7" stroke="#2D8587" stroke-width=".5" stroke-opacity="1" opacity="1" style="transition:translate 200ms ease" d="M0 0h.1v216.8H0z"/></g></g><g class="bar"><g><path transform="translate(399.5 228.6)" fill="#4C5C78" fill-opacity=".7" stroke="#4C5C78" stroke-width=".5" stroke-opacity="1" opacity="1" style="transition:translate 200ms ease" d="M0 0h1v214.9H0z"/></g></g><g class="bar"><g><path transform="translate(400.5 230.1)" fill="#4C5C78" fill-opacity=".7" stroke="#4C5C78" stroke-width=".5" stroke-opacity="1" opacity="1" style="transition:translate 200ms ease" d="M0 0h.1v213.4H0z"/></g></g><g class="bar"><g><path transform="translate(400.6 231.4)" fill="#4C5C78" fill-opacity=".7" stroke="#4C5C78" stroke-width=".5" stroke-opacity="1" opacity="1" style="transition:translate 200ms ease" d="M0 0h1v212.1H0z"/></g></g><g class="bar"><g><path transform="translate(401.6 232)" fill="#4C5C78" fill-opacity=".7" stroke="#4C5C78" stroke-width=".5" stroke-opacity="1" opacity="1" style="transition:translate 200ms ease" d="M0 0h.2v211.5H0z"/></g></g><g class="bar"><g><path transform="translate(401.8 233)" fill="#2D8587" fill-opacity=".7" stroke="#2D8587" stroke-width=".5" stroke-opacity="1" opacity="1" style="transition:translate 200ms ease" d="M0 0h3.4v210.5H0z"/></g></g><g class="bar"><g><path transform="translate(405.2 233.9)" fill="#4C5C78" fill-opacity=".7" stroke="#4C5C78" stroke-width=".5" stroke-opacity="1" opacity="1" style="transition:translate 200ms ease" d="M0 0h1.7v209.6H0z"/></g></g><g class="bar"><g><path transform="translate(406.9 233.9)" fill="#2D8587" fill-opacity=".7" stroke="#2D8587" stroke-width=".5" stroke-opacity="1" opacity="1" style="transition:translate 200ms ease" d="M0 0h26v209.6H0z"/></g></g><g class="bar"><g><path transform="translate(432.9 235.1)" fill="#2D8587" fill-opacity=".7" stroke="#2D8587" stroke-width=".5" stroke-opacity="1" opacity="1" style="transition:translate 200ms ease" d="M0 0h8v208.4H0z"/></g></g><g class="bar"><g><path transform="translate(440.9 235.8)" fill="#E04E4B" fill-opacity=".7" stroke="#E04E4B" stroke-width=".5" stroke-opacity="1" opacity="1" style="transition:translate 200ms ease" d="M0 0h.6v207.7H0z"/></g></g><g class="bar"><g><path transform="translate(441.5 237.1)" fill="#E04E4B" fill-opacity=".7" stroke="#E04E4B" stroke-width=".5" stroke-opacity="1" opacity="1" style="transition:translate 200ms ease" d="M0 0h12.3v206.4H0z"/></g></g><g class="bar"><g><path transform="translate(453.8 237.7)" fill="#2D8587" fill-opacity=".7" stroke="#2D8587" stroke-width=".5" stroke-opacity="1" opacity="1" style="transition:translate 200ms ease" d="M0 0h131.1v205.8H0z"/></g></g><g class="bar"><g><path transform="translate(584.9 238.1)" fill="#923E8B" fill-opacity=".7" stroke="#923E8B" stroke-width=".5" stroke-opacity="1" opacity="1" style="transition:translate 200ms ease" d="M0 0h1.1v205.4H0z"/></g></g><g class="bar"><g><path transform="translate(586 238.7)" fill="#2D8587" fill-opacity=".7" stroke="#2D8587" stroke-width=".5" stroke-opacity="1" opacity="1" style="transition:translate 200ms ease" d="M0 0h.6v204.8H0z"/></g></g><g class="bar"><g><path transform="translate(586.6 238.8)" fill="#2D8587" fill-opacity=".7" stroke="#2D8587" stroke-width=".5" stroke-opacity="1" opacity="1" style="transition:translate 200ms ease" d="M0 0h.8v204.7H0z"/></g></g><g class="bar"><g><path transform="translate(587.4 240)" fill="#4C5C78" fill-opacity=".7" stroke="#4C5C78" stroke-width=".5" stroke-opacity="1" opacity="1" style="transition:translate 200ms ease" d="M0 0h.2v203.5H0z"/></g></g><g class="bar"><g><path transform="translate(587.6 244.9)" fill="#4C5C78" fill-opacity=".7" stroke="#4C5C78" stroke-width=".5" stroke-opacity="1" opacity="1" style="transition:translate 200ms ease" d="M0 0h.3v198.6H0z"/></g></g><g class="bar"><g><path transform="translate(587.9 245)" fill="#4C5C78" fill-opacity=".7" stroke="#4C5C78" stroke-width=".5" stroke-opacity="1" opacity="1" style="transition:translate 200ms ease" d="M0 0h.8v198.5H0z"/></g></g><g class="bar"><g><path transform="translate(588.7 250.1)" fill="#2D8587" fill-opacity=".7" stroke="#2D8587" stroke-width=".5" stroke-opacity="1" opacity="1" style="transition:translate 200ms ease" d="M0 0h8v193.4H0z"/></g></g><g class="bar"><g><path transform="translate(596.7 251.2)" fill="#2D8587" fill-opacity=".7" stroke="#2D8587" stroke-width=".5" stroke-opacity="1" opacity="1" style="transition:translate 200ms ease" d="M0 0h.3v192.3H0z"/></g></g><g class="bar"><g><path transform="translate(597 252.7)" fill="#923E8B" fill-opacity=".7" stroke="#923E8B" stroke-width=".5" stroke-opacity="1" opacity="1" style="transition:translate 200ms ease" d="M0 0h3.5v190.8H0z"/></g></g><g class="bar"><g><path transform="translate(600.5 252.9)" fill="#2D8587" fill-opacity=".7" stroke="#2D8587" stroke-width=".5" stroke-opacity="1" opacity="1" style="transition:translate 200ms ease" d="M0 0h10.5v190.6H0z"/></g></g><g class="bar"><g><path transform="translate(611 253.1)" fill="#4C5C78" fill-opacity=".7" stroke="#4C5C78" stroke-width=".5" stroke-opacity="1" opacity="1" style="transition:translate 200ms ease" d="M0 0h.9v190.4H0z"/></g></g><g class="bar"><g><path transform="translate(611.9 255.7)" fill="#4C5C78" fill-opacity=".7" stroke="#4C5C78" stroke-width=".5" stroke-opacity="1" opacity="1" style="transition:translate 200ms ease" d="M0 0h1.1v187.8H0z"/></g></g><g class="bar"><g><path transform="translate(613 256.4)" fill="#4C5C78" fill-opacity=".7" stroke="#4C5C78" stroke-width=".5" stroke-opacity="1" opacity="1" style="transition:translate 200ms ease" d="M0 0h.9v187.1H0z"/></g></g><g class="bar"><g><path transform="translate(613.9 257.9)" fill="#923E8B" fill-opacity=".7" stroke="#923E8B" stroke-width=".5" stroke-opacity="1" opacity="1" style="transition:translate 200ms ease" d="M0 0h.3v185.6H0z"/></g></g><g class="bar"><g><path transform="translate(614.2 258.6)" fill="#E04E4B" fill-opacity=".7" stroke="#E04E4B" stroke-width=".5" stroke-opacity="1" opacity="1" style="transition:translate 200ms ease" d="M0 0h1.1v184.9H0z"/></g></g><g class="bar"><g><path transform="translate(615.3 259.2)" fill="#4C5C78" fill-opacity=".7" stroke="#4C5C78" stroke-width=".5" stroke-opacity="1" opacity="1" style="transition:translate 200ms ease" d="M0 0h.2v184.3H0z"/></g></g><g class="bar"><g><path transform="translate(615.5 260.4)" fill="#2D8587" fill-opacity=".7" stroke="#2D8587" stroke-width=".5" stroke-opacity="1" opacity="1" style="transition:translate 200ms ease" d="M0 0h5.2v183.1H0z"/></g></g><g class="bar"><g><path transform="translate(620.7 262.3)" fill="#2D8587" fill-opacity=".7" stroke="#2D8587" stroke-width=".5" stroke-opacity="1" opacity="1" style="transition:translate 200ms ease" d="M0 0h.2v181.2H0z"/></g></g><g class="bar"><g><path transform="translate(620.9 266.7)" fill="#E04E4B" fill-opacity=".7" stroke="#E04E4B" stroke-width=".5" stroke-opacity="1" opacity="1" style="transition:translate 200ms ease" d="M0 0h.1v176.8H0z"/></g></g><g class="bar"><g><path transform="translate(621 271)" fill="#E04E4B" fill-opacity=".7" stroke="#E04E4B" stroke-width=".5" stroke-opacity="1" opacity="1" style="transition:translate 200ms ease" d="M0 0h1v172.5H0z"/></g></g><g class="bar"><g><path transform="translate(622 272.1)" fill="#923E8B" fill-opacity=".7" stroke="#923E8B" stroke-width=".5" stroke-opacity="1" opacity="1" style="transition:translate 200ms ease" d="M0 0h.1v171.4H0z"/></g></g><g class="bar"><g><path transform="translate(622.1 272.3)" fill="#932834" fill-opacity=".7" stroke="#932834" stroke-width=".5" stroke-opacity="1" opacity="1" style="transition:translate 200ms ease" d="M0 0h1.1v171.2H0z"/></g></g><g class="bar"><g><path transform="translate(623.2 272.4)" fill="#932834" fill-opacity=".7" stroke="#932834" stroke-width=".5" stroke-opacity="1" opacity="1" style="transition:translate 200ms ease" d="M0 0h.1v171.1H0z"/></g></g><g class="bar"><g><path transform="translate(623.3 274)" fill="#2D8587" fill-opacity=".7" stroke="#2D8587" stroke-width=".5" stroke-opacity="1" opacity="1" style="transition:translate 200ms ease" d="M0 0h21.2v169.5H0z"/></g></g><g class="bar"><g><path transform="translate(644.5 274.3)" fill="#4C5C78" fill-opacity=".7" stroke="#4C5C78" stroke-width=".5" stroke-opacity="1" opacity="1" style="transition:translate 200ms ease" d="M0 0h.3v169.2H0z"/></g></g><g class="bar"><g><path transform="translate(644.8 275.3)" fill="#4C5C78" fill-opacity=".7" stroke="#4C5C78" stroke-width=".5" stroke-opacity="1" opacity="1" style="transition:translate 200ms ease" d="M0 0h3.6v168.2H0z"/></g></g><g class="bar"><g><path transform="translate(648.4 276.7)" fill="#932834" fill-opacity=".7" stroke="#932834" stroke-width=".5" stroke-opacity="1" opacity="1" style="transition:translate 200ms ease" d="M0 0h.7v166.8H0z"/></g></g><g class="bar"><g><path transform="translate(649.1 278.2)" fill="#2D8587" fill-opacity=".7" stroke="#2D8587" stroke-width=".5" stroke-opacity="1" opacity="1" style="transition:translate 200ms ease" d="M0 0h3.2v165.3H0z"/></g></g><g class="bar"><g><path transform="translate(652.3 281.9)" fill="#4C5C78" fill-opacity=".7" stroke="#4C5C78" stroke-width=".5" stroke-opacity="1" opacity="1" style="transition:translate 200ms ease" d="M0 0h.4v161.6H0z"/></g></g><g class="bar"><g><path transform="translate(652.7 282.2)" fill="#4C5C78" fill-opacity=".7" stroke="#4C5C78" stroke-width=".5" stroke-opacity="1" opacity="1" style="transition:translate 200ms ease" d="M0 0h13.7v161.3H0z"/></g></g><g class="bar"><g><path transform="translate(666.4 284.1)" fill="#2D8587" fill-opacity=".7" stroke="#2D8587" stroke-width=".5" stroke-opacity="1" opacity="1" style="transition:translate 200ms ease" d="M0 0h1.8v159.4H0z"/></g></g><g class="bar"><g><path transform="translate(668.2 291.8)" fill="#2D8587" fill-opacity=".7" stroke="#2D8587" stroke-width=".5" stroke-opacity="1" opacity="1" style="transition:translate 200ms ease" d="M0 0h.9v151.7H0z"/></g></g><g class="bar"><g><path transform="translate(669.1 296)" fill="#2D8587" fill-opacity=".7" stroke="#2D8587" stroke-width=".5" stroke-opacity="1" opacity="1" style="transition:translate 200ms ease" d="M0 0h1v147.5H0z"/></g></g><g class="bar"><g><path transform="translate(670.1 296.7)" fill="#4C5C78" fill-opacity=".7" stroke="#4C5C78" stroke-width=".5" stroke-opacity="1" opacity="1" style="transition:translate 200ms ease" d="M0 0h.6v146.8H0z"/></g></g><g class="bar"><g><path transform="translate(670.7 298.6)" fill="#923E8B" fill-opacity=".7" stroke="#923E8B" stroke-width=".5" stroke-opacity="1" opacity="1" style="transition:translate 200ms ease" d="M0 0h.1v144.9H0z"/></g></g><g class="bar"><g><path transform="translate(670.8 299.2)" fill="#923E8B" fill-opacity=".7" stroke="#923E8B" stroke-width=".5" stroke-opacity="1" opacity="1" style="transition:translate 200ms ease" d="M0 0h.6v144.3H0z"/></g></g><g class="bar"><g><path transform="translate(671.4 303.8)" fill="#E04E4B" fill-opacity=".7" stroke="#E04E4B" stroke-width=".5" stroke-opacity="1" opacity="1" style="transition:translate 200ms ease" d="M0 0h.2v139.7H0z"/></g></g><g class="bar"><g><path transform="translate(671.6 305.3)" fill="#4C5C78" fill-opacity=".7" stroke="#4C5C78" stroke-width=".5" stroke-opacity="1" opacity="1" style="transition:translate 200ms ease" d="M0 0h.8v138.2H0z"/></g></g><g class="bar"><g><path transform="translate(672.4 306.2)" fill="#2D8587" fill-opacity=".7" stroke="#2D8587" stroke-width=".5" stroke-opacity="1" opacity="1" style="transition:translate 200ms ease" d="M0 0h.7v137.3H0z"/></g></g><g class="bar"><g><path transform="translate(673.1 307.5)" fill="#E04E4B" fill-opacity=".7" stroke="#E04E4B" stroke-width=".5" stroke-opacity="1" opacity="1" style="transition:translate 200ms ease" d="M0 0h1.7v136H0z"/></g></g><g class="bar"><g><path transform="translate(674.8 309.4)" fill="#923E8B" fill-opacity=".7" stroke="#923E8B" stroke-width=".5" stroke-opacity="1" opacity="1" style="transition:translate 200ms ease" d="M0 0h9.8v134.1H0z"/></g></g><g class="bar"><g><path transform="translate(684.6 311.2)" fill="#923E8B" fill-opacity=".7" stroke="#923E8B" stroke-width=".5" stroke-opacity="1" opacity="1" style="transition:translate 200ms ease" d="M0 0h3.1v132.3H0z"/></g></g><g class="bar"><g><path transform="translate(687.7 311.5)" fill="#4C5C78" fill-opacity=".7" stroke="#4C5C78" stroke-width=".5" stroke-opacity="1" opacity="1" style="transition:translate 200ms ease" d="M0 0h.3v132H0z"/></g></g><g class="bar"><g><path transform="translate(688 311.6)" fill="#4C5C78" fill-opacity=".7" stroke="#4C5C78" stroke-width=".5" stroke-opacity="1" opacity="1" style="transition:translate 200ms ease" d="M0 0h.1v131.9H0z"/></g></g><g class="bar"><g><path transform="translate(688.1 319.8)" fill="#932834" fill-opacity=".7" stroke="#932834" stroke-width=".5" stroke-opacity="1" opacity="1" style="transition:translate 200ms ease" d="M0 0h.1v123.7H0z"/></g></g><g class="bar"><g><path transform="translate(688.2 319.9)" fill="#2D8587" fill-opacity=".7" stroke="#2D8587" stroke-width=".5" stroke-opacity="1" opacity="1" style="transition:translate 200ms ease" d="M0 0h.4v123.6H0z"/></g></g><g class="bar"><g><path transform="translate(688.6 321.2)" fill="#923E8B" fill-opacity=".7" stroke="#923E8B" stroke-width=".5" stroke-opacity="1" opacity="1" style="transition:translate 200ms ease" d="M0 0h.5v122.3H0z"/></g></g><g class="bar"><g><path transform="translate(689.1 321.2)" fill="#2D8587" fill-opacity=".7" stroke="#2D8587" stroke-width=".5" stroke-opacity="1" opacity="1" style="transition:translate 200ms ease" d="M0 0h1v122.3H0z"/></g></g><g class="bar"><g><path transform="translate(690.1 323.7)" fill="#4C5C78" fill-opacity=".7" stroke="#4C5C78" stroke-width=".5" stroke-opacity="1" opacity="1" style="transition:translate 200ms ease" d="M0 0h1.8v119.8H0z"/></g></g><g class="bar"><g><path transform="translate(691.9 324.8)" fill="#E04E4B" fill-opacity=".7" stroke="#E04E4B" stroke-width=".5" stroke-opacity="1" opacity="1" style="transition:translate 200ms ease" d="M0 0h.1v118.7H0z"/></g></g><g class="bar"><g><path transform="translate(692 325.5)" fill="#A8633C" fill-opacity=".7" stroke="#A8633C" stroke-width=".5" stroke-opacity="1" opacity="1" style="transition:translate 200ms ease" d="M0 0h.1v118H0z"/></g></g><g class="bar"><g><path transform="translate(692.1 328.5)" fill="#4C5C78" fill-opacity=".7" stroke="#4C5C78" stroke-width=".5" stroke-opacity="1" opacity="1" style="transition:translate 200ms ease" d="M0 0h.3v115H0z"/></g></g><g class="bar"><g><path transform="translate(692.4 328.8)" fill="#923E8B" fill-opacity=".7" stroke="#923E8B" stroke-width=".5" stroke-opacity="1" opacity="1" style="transition:translate 200ms ease" d="M0 0h.3v114.7H0z"/></g></g><g class="bar"><g><path transform="translate(692.7 328.9)" fill="#2D8587" fill-opacity=".7" stroke="#2D8587" stroke-width=".5" stroke-opacity="1" opacity="1" style="transition:translate 200ms ease" d="M0 0h.3v114.6H0z"/></g></g><g class="bar"><g><path transform="translate(693 330.6)" fill="#923E8B" fill-opacity=".7" stroke="#923E8B" stroke-width=".5" stroke-opacity="1" opacity="1" style="transition:translate 200ms ease" d="M0 0h1.4v112.9H0z"/></g></g><g class="bar"><g><path transform="translate(694.4 331.5)" fill="#923E8B" fill-opacity=".7" stroke="#923E8B" stroke-width=".5" stroke-opacity="1" opacity="1" style="transition:translate 200ms ease" d="M0 0h3.2v112H0z"/></g></g><g class="bar"><g><path transform="translate(697.6 331.8)" fill="#923E8B" fill-opacity=".7" stroke="#923E8B" stroke-width=".5" stroke-opacity="1" opacity="1" style="transition:translate 200ms ease" d="M0 0h4.5v111.7H0z"/></g></g><g class="bar"><g><path transform="translate(702.1 332.6)" fill="#2D8587" fill-opacity=".7" stroke="#2D8587" stroke-width=".5" stroke-opacity="1" opacity="1" style="transition:translate 200ms ease" d="M0 0h.6v110.9H0z"/></g></g><g class="bar"><g><path transform="translate(702.7 337.7)" fill="#923E8B" fill-opacity=".7" stroke="#923E8B" stroke-width=".5" stroke-opacity="1" opacity="1" style="transition:translate 200ms ease" d="M0 0h5.7v105.8H0z"/></g></g><g class="bar"><g><path transform="translate(708.4 338.3)" fill="#923E8B" fill-opacity=".7" stroke="#923E8B" stroke-width=".5" stroke-opacity="1" opacity="1" style="transition:translate 200ms ease" d="M0 0h11.1v105.2H0z"/></g></g><g class="bar"><g><path transform="translate(719.5 346)" fill="#923E8B" fill-opacity=".7" stroke="#923E8B" stroke-width=".5" stroke-opacity="1" opacity="1" style="transition:translate 200ms ease" d="M0 0h.1v97.5H0z"/></g></g><g class="bar"><g><path transform="translate(719.6 346.4)" fill="#923E8B" fill-opacity=".7" stroke="#923E8B" stroke-width=".5" stroke-opacity="1" opacity="1" style="transition:translate 200ms ease" d="M0 0h1.3v97.1H0z"/></g></g><g class="bar"><g><path transform="translate(720.9 347)" fill="#923E8B" fill-opacity=".7" stroke="#923E8B" stroke-width=".5" stroke-opacity="1" opacity="1" style="transition:translate 200ms ease" d="M0 0h.7v96.5H0z"/></g></g><g class="bar"><g><path transform="translate(721.6 347.9)" fill="#923E8B" fill-opacity=".7" stroke="#923E8B" stroke-width=".5" stroke-opacity="1" opacity="1" style="transition:translate 200ms ease" d="M0 0h3v95.6H0z"/></g></g><g class="bar"><g><path transform="translate(724.6 348.4)" fill="#923E8B" fill-opacity=".7" stroke="#923E8B" stroke-width=".5" stroke-opacity="1" opacity="1" style="transition:translate 200ms ease" d="M0 0h2.6v95.1H0z"/></g></g><g class="bar"><g><path transform="translate(727.2 354.5)" fill="#923E8B" fill-opacity=".7" stroke="#923E8B" stroke-width=".5" stroke-opacity="1" opacity="1" style="transition:translate 200ms ease" d="M0 0h.8v89H0z"/></g></g><g class="bar"><g><path transform="translate(728 357.4)" fill="#4C5C78" fill-opacity=".7" stroke="#4C5C78" stroke-width=".5" stroke-opacity="1" opacity="1" style="transition:translate 200ms ease" d="M0 0h.7v86.1H0z"/></g></g><g class="bar"><g><path transform="translate(728.7 361.1)" fill="#E04E4B" fill-opacity=".7" stroke="#E04E4B" stroke-width=".5" stroke-opacity="1" opacity="1" style="transition:translate 200ms ease" d="M0 0h.3v82.4H0z"/></g></g><g class="bar"><g><path transform="translate(729 370.7)" fill="#923E8B" fill-opacity=".7" stroke="#923E8B" stroke-width=".5" stroke-opacity="1" opacity="1" style="transition:translate 200ms ease" d="M0 0h.3v72.8H0z"/></g></g><g class="bar"><g><path transform="translate(729.3 372)" fill="#2D8587" fill-opacity=".7" stroke="#2D8587" stroke-width=".5" stroke-opacity="1" opacity="1" style="transition:translate 200ms ease" d="M0 0h3.9v71.5H0z"/></g></g><g class="bar"><g><path transform="translate(733.2 373.4)" fill="#923E8B" fill-opacity=".7" stroke="#923E8B" stroke-width=".5" stroke-opacity="1" opacity="1" style="transition:translate 200ms ease" d="M0 0h.8v70.1H0z"/></g></g><g class="bar"><g><path transform="translate(734 374.4)" fill="#923E8B" fill-opacity=".7" stroke="#923E8B" stroke-width=".5" stroke-opacity="1" opacity="1" style="transition:translate 200ms ease" d="M0 0h1.2v69.1H0z"/></g></g><g class="bar"><g><path transform="translate(735.2 375.1)" fill="#2D8587" fill-opacity=".7" stroke="#2D8587" stroke-width=".5" stroke-opacity="1" opacity="1" style="transition:translate 200ms ease" d="M0 0h.6v68.4H0z"/></g></g><g class="bar"><g><path transform="translate(735.8 375.9)" fill="#923E8B" fill-opacity=".7" stroke="#923E8B" stroke-width=".5" stroke-opacity="1" opacity="1" style="transition:translate 200ms ease" d="M0 0h.5v67.6H0z"/></g></g><g class="bar"><g><path transform="translate(736.3 376)" fill="#923E8B" fill-opacity=".7" stroke="#923E8B" stroke-width=".5" stroke-opacity="1" opacity="1" style="transition:translate 200ms ease" d="M0 0h5.2v67.5H0z"/></g></g><g class="bar"><g><path transform="translate(741.5 383.6)" fill="#923E8B" fill-opacity=".7" stroke="#923E8B" stroke-width=".5" stroke-opacity="1" opacity="1" style="transition:translate 200ms ease" d="M0 0h.3v59.9H0z"/></g></g><g class="bar"><g><path transform="translate(741.8 383.6)" fill="#923E8B" fill-opacity=".7" stroke="#923E8B" stroke-width=".5" stroke-opacity="1" opacity="1" style="transition:translate 200ms ease" d="M0 0h5.8v59.9H0z"/></g></g><g class="bar"><g><path transform="translate(747.6 389.5)" fill="#923E8B" fill-opacity=".7" stroke="#923E8B" stroke-width=".5" stroke-opacity="1" opacity="1" style="transition:translate 200ms ease" d="M0 0h.1v54H0z"/></g></g><g class="bar"><g><path transform="translate(747.7 390.9)" fill="#923E8B" fill-opacity=".7" stroke="#923E8B" stroke-width=".5" stroke-opacity="1" opacity="1" style="transition:translate 200ms ease" d="M0 0h4.3v52.6H0z"/></g></g><g class="bar"><g><path transform="translate(752 392)" fill="#2D8587" fill-opacity=".7" stroke="#2D8587" stroke-width=".5" stroke-opacity="1" opacity="1" style="transition:translate 200ms ease" d="M0 0h3.8v51.5H0z"/></g></g><g class="bar"><g><path transform="translate(755.8 395)" fill="#923E8B" fill-opacity=".7" stroke="#923E8B" stroke-width=".5" stroke-opacity="1" opacity="1" style="transition:translate 200ms ease" d="M0 0h19.9v48.5H0z"/></g></g><g class="bar"><g><path transform="translate(775.7 395.3)" fill="#923E8B" fill-opacity=".7" stroke="#923E8B" stroke-width=".5" stroke-opacity="1" opacity="1" style="transition:translate 200ms ease" d="M0 0h.3v48.2H0z"/></g></g><g class="bar"><g><path transform="translate(776 396.7)" fill="#923E8B" fill-opacity=".7" stroke="#923E8B" stroke-width=".5" stroke-opacity="1" opacity="1" style="transition:translate 200ms ease" d="M0 0h.2v46.8H0z"/></g></g><g class="bar"><g><path transform="translate(776.2 396.9)" fill="#923E8B" fill-opacity=".7" stroke="#923E8B" stroke-width=".5" stroke-opacity="1" opacity="1" style="transition:translate 200ms ease" d="M0 0h1.6v46.6H0z"/></g></g><g class="bar"><g><path transform="translate(777.8 402.3)" fill="#923E8B" fill-opacity=".7" stroke="#923E8B" stroke-width=".5" stroke-opacity="1" opacity="1" style="transition:translate 200ms ease" d="M0 0h4.3v41.2H0z"/></g></g><g class="bar"><g><path transform="translate(782.1 402.6)" fill="#923E8B" fill-opacity=".7" stroke="#923E8B" stroke-width=".5" stroke-opacity="1" opacity="1" style="transition:translate 200ms ease" d="M0 0h2.4v40.9H0z"/></g></g><g class="bar"><g><path transform="translate(784.5 404.9)" fill="#923E8B" fill-opacity=".7" stroke="#923E8B" stroke-width=".5" stroke-opacity="1" opacity="1" style="transition:translate 200ms ease" d="M0 0h1.7v38.6H0z"/></g></g><g class="bar"><g><path transform="translate(786.2 405.8)" fill="#2D8587" fill-opacity=".7" stroke="#2D8587" stroke-width=".5" stroke-opacity="1" opacity="1" style="transition:translate 200ms ease" d="M0 0h1.7v37.7H0z"/></g></g><g class="bar"><g><path transform="translate(787.9 406.1)" fill="#923E8B" fill-opacity=".7" stroke="#923E8B" stroke-width=".5" stroke-opacity="1" opacity="1" style="transition:translate 200ms ease" d="M0 0h.3v37.4H0z"/></g></g><g class="bar"><g><path transform="translate(788.2 406.3)" fill="#923E8B" fill-opacity=".7" stroke="#923E8B" stroke-width=".5" stroke-opacity="1" opacity="1" style="transition:translate 200ms ease" d="M0 0h1.1v37.2H0z"/></g></g><g class="bar"><g><path transform="translate(789.3 407)" fill="#923E8B" fill-opacity=".7" stroke="#923E8B" stroke-width=".5" stroke-opacity="1" opacity="1" style="transition:translate 200ms ease" d="M0 0h1.6v36.5H0z"/></g></g><g class="bar"><g><path transform="translate(790.9 409.8)" fill="#923E8B" fill-opacity=".7" stroke="#923E8B" stroke-width=".5" stroke-opacity="1" opacity="1" style="transition:translate 200ms ease" d="M0 0h.6v33.7H0z"/></g></g><g class="bar"><g><path transform="translate(791.5 410.8)" fill="#923E8B" fill-opacity=".7" stroke="#923E8B" stroke-width=".5" stroke-opacity="1" opacity="1" style="transition:translate 200ms ease" d="M0 0h2v32.7H0z"/></g></g><g class="bar"><g><path transform="translate(793.5 413.3)" fill="#923E8B" fill-opacity=".7" stroke="#923E8B" stroke-width=".5" stroke-opacity="1" opacity="1" style="transition:translate 200ms ease" d="M0 0h1.9v30.2H0z"/></g></g><g class="bar"><g><path transform="translate(795.4 417.9)" fill="#923E8B" fill-opacity=".7" stroke="#923E8B" stroke-width=".5" stroke-opacity="1" opacity="1" style="transition:translate 200ms ease" d="M0 0h2v25.6H0z"/></g></g><g class="bar"><g><path transform="translate(797.4 427.2)" fill="#923E8B" fill-opacity=".7" stroke="#923E8B" stroke-width=".5" stroke-opacity="1" opacity="1" style="transition:translate 200ms ease" d="M0 0h2.6v16.3H0z"/></g></g><g class="bar"><g><path transform="translate(800 430.4)" fill="#923E8B" fill-opacity=".7" stroke="#923E8B" stroke-width=".5" stroke-opacity="1" opacity="1" style="transition:translate 200ms ease" d="M0 0h2.7v13.1H0z"/></g></g><g class="bar"><g><path transform="translate(802.7 433.3)" fill="#923E8B" fill-opacity=".7" stroke="#923E8B" stroke-width=".5" stroke-opacity="1" opacity="1" style="transition:translate 200ms ease" d="M0 0h8.7v10.2H0z"/></g></g><g class="bar"><g><path transform="translate(811.4 433.8)" fill="#A8633C" fill-opacity=".7" stroke="#A8633C" stroke-width=".5" stroke-opacity="1" opacity="1" style="transition:translate 200ms ease" d="M0 0h.9v9.7H0z"/></g></g><g class="bar"><g><path transform="translate(812.3 437.4)" fill="#E04E4B" fill-opacity=".7" stroke="#E04E4B" stroke-width=".5" stroke-opacity="1" opacity="1" style="transition:translate 200ms ease" d="M0 0h1.1v6.1H0z"/></g></g><g class="bar"><g><path transform="translate(813.4 437.4)" fill="#2D8587" fill-opacity=".7" stroke="#2D8587" stroke-width=".5" stroke-opacity="1" opacity="1" style="transition:translate 200ms ease" d="M0 0h2.9v6.1H0z"/></g></g><g class="bar"><g><path transform="translate(816.3 442.5)" fill="#923E8B" fill-opacity=".7" stroke="#923E8B" stroke-width=".5" stroke-opacity="1" opacity="1" style="transition:translate 200ms ease" d="M0 0h1.2v1H0z"/></g></g><g class="bar-label"><g><text x="-40.07" y="0" width="40.07" height="12.6" font-weight="400" fill="#A8633C" transform="rotate(-45 608.13 131.4)" opacity="1" font-size=".7em" text-anchor="right" dominant-baseline="middle">Samoa</text></g></g><g class="bar-label"><g><text x="-70.43" y="0" width="70.43" height="12.6" font-weight="400" fill="#2D8587" transform="rotate(-45 691.13 -68.98)" opacity="1" font-size=".7em" text-anchor="right" dominant-baseline="middle">South Korea</text></g></g><g class="bar-label"><g><text x="-48.51" y="0" width="48.51" height="12.6" font-weight="400" fill="#2D8587" transform="rotate(-45 734.13 -172.79)" opacity="1" font-size=".7em" text-anchor="right" dominant-baseline="middle">Thailand</text></g></g><g class="bar-label"><g><text x="-51.91" y="0" width="51.91" height="12.6" font-weight="400" fill="#4C5C78" transform="rotate(-45 754.93 -223)" opacity="1" font-size=".7em" text-anchor="right" dominant-baseline="middle">Germany</text></g></g><g class="bar-label"><g><text x="-27.47" y="0" width="27.47" height="12.6" font-weight="400" fill="#2D8587" transform="rotate(-45 825.2 -392.66)" opacity="1" font-size=".7em" text-anchor="right" dominant-baseline="middle">India</text></g></g><g class="bar-label"><g><text x="-109.75" y="0" width="109.75" height="12.6" font-weight="400" fill="#A8633C" transform="rotate(-45 971.45 -745.74)" opacity="1" font-size=".7em" text-anchor="right" dominant-baseline="middle">Papua New Guinea</text></g></g><g class="indicator"><path d="M85.2 447.5v17" stroke="#bbb" stroke-width="1" fill="none"/></g><g class="indicator"><path d="M251.2 447.5v17" stroke="#bbb" stroke-width="1" fill="none"/></g><g class="indicator"><path d="M337.2 447.5v17" stroke="#bbb" stroke-width="1" fill="none"/></g><g class="indicator"><path d="M378.8 447.5v17" stroke="#bbb" stroke-width="1" fill="none"/></g><g class="indicator"><path d="M519.35 447.5v17" stroke="#bbb" stroke-width="1" fill="none"/></g><g class="indicator"><path d="M811.85 447.5v17" stroke="#bbb" stroke-width="1" fill="none"/></g></g><g class="SourcesFooter" style="fill:#777"><g style="fill:#777"><text font-size="12.6" x="15" y="582.7"><tspan x="15" y="582.73">Source: Official data collated by Our World in Data, Gapminder (v6), HYDE (v3.2), UN (2019)</tspan></text></g><text font-size="12.6" x="601.3" y="582.7"><tspan x="601.27" y="582.73"><a target="_blank" style="fill:#777" href="https://ourworldindata.org/coronavirus">OurWorldInData.org/coronavirus</a> • <a style="fill:#777" class="cclogo" href="http://creativecommons.org/licenses/by/4.0/deed.en_US" target="_blank">CC BY</a></tspan></text></g></svg>